<?xml version="1.0" encoding="UTF-8" standalone="no"?>
<!DOCTYPE svg PUBLIC "-//W3C//DTD SVG 1.1//EN"
 "http://www.w3.org/Graphics/SVG/1.1/DTD/svg11.dtd">
<!-- Generated by graphviz version 14.1.5 (0)
 -->
<!-- Title: NEBProjectionPipeline Pages: 1 -->
<svg width="421pt" height="476pt"
 viewBox="0.00 0.00 421.00 476.00" xmlns="http://www.w3.org/2000/svg" xmlns:xlink="http://www.w3.org/1999/xlink">
<g id="graph0" class="graph" transform="scale(1 1) rotate(0) translate(12.96 463.48)">
<title>NEBProjectionPipeline</title>
<polygon fill="white" stroke="none" points="-12.96,12.96 -12.96,-463.48 407.91,-463.48 407.91,12.96 -12.96,12.96"/>
<!-- neb -->
<g id="node1" class="node">
<title>neb</title>
<path fill="#ff655d" stroke="#ff655d" stroke-width="2" d="M337.2,-450.52C337.2,-450.52 57.75,-450.52 57.75,-450.52 51.75,-450.52 45.75,-444.52 45.75,-438.52 45.75,-438.52 45.75,-414.1 45.75,-414.1 45.75,-408.1 51.75,-402.1 57.75,-402.1 57.75,-402.1 337.2,-402.1 337.2,-402.1 343.2,-402.1 349.2,-408.1 349.2,-414.1 349.2,-414.1 349.2,-438.52 349.2,-438.52 349.2,-444.52 343.2,-450.52 337.2,-450.52"/>
<text xml:space="preserve" text-anchor="middle" x="197.47" y="-423.31" font-family="Jost" font-size="15.00" fill="white">1. NEB band &#160;· &#160;3N coords, E, F_parallel</text>
</g>
<!-- ira -->
<g id="node2" class="node">
<title>ira</title>
<path fill="white" stroke="#004d40" stroke-width="2" d="M315.07,-370.1C315.07,-370.1 79.88,-370.1 79.88,-370.1 73.88,-370.1 67.88,-364.1 67.88,-358.1 67.88,-358.1 67.88,-333.68 67.88,-333.68 67.88,-327.68 73.88,-321.68 79.88,-321.68 79.88,-321.68 315.07,-321.68 315.07,-321.68 321.07,-321.68 327.07,-327.68 327.07,-333.68 327.07,-333.68 327.07,-358.1 327.07,-358.1 327.07,-364.1 321.07,-370.1 315.07,-370.1"/>
<text xml:space="preserve" text-anchor="middle" x="197.47" y="-342.89" font-family="Jost" font-size="15.00" fill="#004d40">2. IRA RMSD &#160;· &#160;r = d(R), p = d(P)</text>
</g>
<!-- neb&#45;&gt;ira -->
<g id="edge1" class="edge">
<title>neb&#45;&gt;ira</title>
<path fill="none" stroke="#004d40" stroke-width="1.8" d="M197.47,-401.36C197.47,-395.63 197.47,-389.4 197.47,-383.25"/>
<polygon fill="#004d40" stroke="#004d40" stroke-width="1.8" points="200.98,-383.69 197.48,-373.69 193.98,-383.69 200.98,-383.69"/>
</g>
<!-- grad -->
<g id="node3" class="node">
<title>grad</title>
<path fill="white" stroke="#004d40" stroke-width="2" d="M315.07,-289.68C315.07,-289.68 79.88,-289.68 79.88,-289.68 73.88,-289.68 67.88,-283.68 67.88,-277.68 67.88,-277.68 67.88,-253.26 67.88,-253.26 67.88,-247.26 73.88,-241.26 79.88,-241.26 79.88,-241.26 315.07,-241.26 315.07,-241.26 321.07,-241.26 327.07,-247.26 327.07,-253.26 327.07,-253.26 327.07,-277.68 327.07,-277.68 327.07,-283.68 321.07,-289.68 315.07,-289.68"/>
<text xml:space="preserve" text-anchor="middle" x="197.47" y="-262.47" font-family="Jost" font-size="15.00" fill="#004d40">3. Synthetic gradients in (r, p)</text>
</g>
<!-- ira&#45;&gt;grad -->
<g id="edge2" class="edge">
<title>ira&#45;&gt;grad</title>
<path fill="none" stroke="#004d40" stroke-width="1.8" d="M197.47,-320.94C197.47,-315.21 197.47,-308.98 197.47,-302.83"/>
<polygon fill="#004d40" stroke="#004d40" stroke-width="1.8" points="200.98,-303.27 197.48,-293.27 193.98,-303.27 200.98,-303.27"/>
</g>
<!-- gp -->
<g id="node4" class="node">
<title>gp</title>
<path fill="#f1db4b" stroke="#004d40" stroke-width="2" d="M382.95,-209.26C382.95,-209.26 12,-209.26 12,-209.26 6,-209.26 0,-203.26 0,-197.26 0,-197.26 0,-172.84 0,-172.84 0,-166.84 6,-160.84 12,-160.84 12,-160.84 382.95,-160.84 382.95,-160.84 388.95,-160.84 394.95,-166.84 394.95,-172.84 394.95,-172.84 394.95,-197.26 394.95,-197.26 394.95,-203.26 388.95,-209.26 382.95,-209.26"/>
<text xml:space="preserve" text-anchor="middle" x="197.47" y="-182.05" font-family="Jost" font-size="15.00" fill="#004d40">4. Grad&#45;enhanced GP &#160;· &#160;IMQ kernel, mean + variance</text>
</g>
<!-- grad&#45;&gt;gp -->
<g id="edge3" class="edge">
<title>grad&#45;&gt;gp</title>
<path fill="none" stroke="#004d40" stroke-width="1.8" d="M197.47,-240.52C197.47,-234.79 197.47,-228.56 197.47,-222.41"/>
<polygon fill="#004d40" stroke="#004d40" stroke-width="1.8" points="200.98,-222.85 197.48,-212.85 193.98,-222.85 200.98,-222.85"/>
</g>
<!-- sd -->
<g id="node5" class="node">
<title>sd</title>
<path fill="white" stroke="#004d40" stroke-width="2" d="M345.45,-128.84C345.45,-128.84 49.5,-128.84 49.5,-128.84 43.5,-128.84 37.5,-122.84 37.5,-116.84 37.5,-116.84 37.5,-92.42 37.5,-92.42 37.5,-86.42 43.5,-80.42 49.5,-80.42 49.5,-80.42 345.45,-80.42 345.45,-80.42 351.45,-80.42 357.45,-86.42 357.45,-92.42 357.45,-92.42 357.45,-116.84 357.45,-116.84 357.45,-122.84 351.45,-128.84 345.45,-128.84"/>
<text xml:space="preserve" text-anchor="middle" x="197.47" y="-101.63" font-family="Jost" font-size="15.00" fill="#004d40">5. Rotate frame &#160;· &#160;s progress, d orthogonal</text>
</g>
<!-- gp&#45;&gt;sd -->
<g id="edge4" class="edge">
<title>gp&#45;&gt;sd</title>
<path fill="none" stroke="#004d40" stroke-width="1.8" d="M197.47,-160.1C197.47,-154.37 197.47,-148.14 197.47,-141.99"/>
<polygon fill="#004d40" stroke="#004d40" stroke-width="1.8" points="200.98,-142.43 197.48,-132.43 193.98,-142.43 200.98,-142.43"/>
</g>
<!-- out -->
<g id="node6" class="node">
<title>out</title>
<path fill="#004d40" stroke="#004d40" stroke-width="2" d="M375.82,-48.42C375.82,-48.42 19.12,-48.42 19.12,-48.42 13.12,-48.42 7.12,-42.42 7.12,-36.42 7.12,-36.42 7.12,-12 7.12,-12 7.12,-6 13.12,0 19.12,0 19.12,0 375.82,0 375.82,0 381.82,0 387.82,-6 387.82,-12 387.82,-12 387.82,-36.42 387.82,-36.42 387.82,-42.42 381.82,-48.42 375.82,-48.42"/>
<text xml:space="preserve" text-anchor="middle" x="197.47" y="-21.21" font-family="Jost" font-size="15.00" fill="white">6. s&#45;d landscape &#160;· &#160;path, samples, variance contours</text>
</g>
<!-- sd&#45;&gt;out -->
<g id="edge5" class="edge">
<title>sd&#45;&gt;out</title>
<path fill="none" stroke="#004d40" stroke-width="1.8" d="M197.47,-79.68C197.47,-73.95 197.47,-67.72 197.47,-61.57"/>
<polygon fill="#004d40" stroke="#004d40" stroke-width="1.8" points="200.98,-62.01 197.48,-52.01 193.98,-62.01 200.98,-62.01"/>
</g>
</g>
</svg>
