<svg xmlns="http://www.w3.org/2000/svg" xmlns:xlink="http://www.w3.org/1999/xlink" width="1088" height="476pt" viewBox="0 0 816.13 476"><g id="graph0" class="graph" transform="scale(1 1) rotate(0) translate(4 472)"><title>src.dot</title><polygon fill="#fff" stroke="transparent" points="-4 4 -4 -472 812.128 -472 812.128 4 -4 4"/><g id="node1" class="node"><title>constants</title><ellipse cx="403" cy="-162" fill="none" stroke="#000" rx="44.693" ry="18"/><text x="403" y="-158.3" fill="#000" font-family="Times,serif" font-size="14" text-anchor="middle">constants</text></g><g id="node2" class="node"><title>types</title><ellipse cx="403" cy="-18" fill="none" stroke="#000" rx="29.795" ry="18"/><text x="403" y="-14.3" fill="#000" font-family="Times,serif" font-size="14" text-anchor="middle">types</text></g><g id="edge1" class="edge"><title>constants-&gt;types</title><path fill="none" stroke="#000" d="M403,-143.7623C403,-119.201 403,-75.2474 403,-46.3541"/><polygon fill="#000" stroke="#000" points="406.5 -46.09 403 -36.09 399.5 -46.09 406.5 -46.09"/></g><g id="node3" class="node"><title>reigen</title><ellipse cx="123" cy="-234" fill="none" stroke="#000" rx="33.295" ry="18"/><text x="123" y="-230.3" fill="#000" font-family="Times,serif" font-size="14" text-anchor="middle">reigen</text></g><g id="edge4" class="edge"><title>reigen-&gt;types</title><path fill="none" stroke="#000" d="M98.7733,-221.5218C83.7103,-212.2981 65.6223,-198.195 57,-180 50.1483,-165.5413 50.3574,-158.5559 57,-144 77.2743,-99.5732 96.21,-93.6155 140,-72 213.2761,-35.8296 309.5305,-23.8748 362.927,-19.9321"/><polygon fill="#000" stroke="#000" points="363.276 -23.416 373.015 -19.246 362.801 -16.433 363.276 -23.416"/></g><g id="node4" class="node"><title>ode1d</title><ellipse cx="224" cy="-90" fill="none" stroke="#000" rx="33.295" ry="18"/><text x="224" y="-86.3" fill="#000" font-family="Times,serif" font-size="14" text-anchor="middle">ode1d</text></g><g id="edge2" class="edge"><title>reigen-&gt;ode1d</title><path fill="none" stroke="#000" d="M134.9826,-216.9158C152.5986,-191.8 185.61,-144.7343 206.1051,-115.5135"/><polygon fill="#000" stroke="#000" points="209.156 -117.259 212.033 -107.062 203.425 -113.239 209.156 -117.259"/></g><g id="node5" class="node"><title>rschroed</title><ellipse cx="108" cy="-162" fill="none" stroke="#000" rx="42.494" ry="18"/><text x="108" y="-158.3" fill="#000" font-family="Times,serif" font-size="14" text-anchor="middle">rschroed</text></g><g id="edge3" class="edge"><title>reigen-&gt;rschroed</title><path fill="none" stroke="#000" d="M119.2149,-215.8314C117.6106,-208.131 115.703,-198.9743 113.9201,-190.4166"/><polygon fill="#000" stroke="#000" points="117.302 -189.489 111.836 -180.413 110.449 -190.917 117.302 -189.489"/></g><g id="edge14" class="edge"><title>ode1d-&gt;types</title><path fill="none" stroke="#000" d="M250.7981,-79.2209C282.1328,-66.617 334.0742,-45.7243 368.4218,-31.9085"/><polygon fill="#000" stroke="#000" points="370.071 -35.018 378.042 -28.039 367.459 -28.523 370.071 -35.018"/></g><g id="edge26" class="edge"><title>rschroed-&gt;types</title><path fill="none" stroke="#000" d="M117.8023,-144.185C130.0778,-123.5878 153.0565,-90.1925 182,-72 238.4256,-36.5335 316.4823,-24.3607 363.1399,-20.1829"/><polygon fill="#000" stroke="#000" points="363.482 -23.667 373.164 -19.366 362.913 -16.69 363.482 -23.667"/></g><g id="edge25" class="edge"><title>rschroed-&gt;ode1d</title><path fill="none" stroke="#000" d="M132.0353,-147.0816C149.7948,-136.0584 174.114,-120.9637 193.2837,-109.0653"/><polygon fill="#000" stroke="#000" points="195.307 -111.929 201.957 -103.682 191.615 -105.981 195.307 -111.929"/></g><g id="node6" class="node"><title>dft</title><ellipse cx="376" cy="-306" fill="none" stroke="#000" rx="27" ry="18"/><text x="376" y="-302.3" fill="#000" font-family="Times,serif" font-size="14" text-anchor="middle">dft</text></g><g id="edge5" class="edge"><title>dft-&gt;constants</title><path fill="none" stroke="#000" d="M379.365,-288.0535C383.973,-263.4774 392.2936,-219.1008 397.7317,-190.0974"/><polygon fill="#000" stroke="#000" points="401.19 -190.647 399.593 -180.173 394.31 -189.356 401.19 -190.647"/></g><g id="edge12" class="edge"><title>dft-&gt;types</title><path fill="none" stroke="#000" d="M368.8365,-288.4208C357.6277,-258.5961 338.2793,-196.2303 349,-144 356.435,-107.777 374.7368,-69.1095 387.9757,-44.3082"/><polygon fill="#000" stroke="#000" points="391.226 -45.658 392.943 -35.203 385.081 -42.305 391.226 -45.658"/></g><g id="edge10" class="edge"><title>dft-&gt;reigen</title><path fill="none" stroke="#000" d="M350.8111,-299.0261C314.0901,-288.8342 243.7247,-269.2099 184,-252 176.8515,-249.9401 169.2405,-247.7177 161.9057,-245.561"/><polygon fill="#000" stroke="#000" points="162.726 -242.154 152.144 -242.682 160.746 -248.868 162.726 -242.154"/></g><g id="edge9" class="edge"><title>dft-&gt;ode1d</title><path fill="none" stroke="#000" d="M350.0489,-300.9704C309.1581,-292.4593 232.748,-273.9799 217,-252 188.4977,-212.2187 201.9329,-151.7631 213.4924,-117.0556"/><polygon fill="#000" stroke="#000" points="216.811 -118.169 216.819 -107.575 210.205 -115.852 216.811 -118.169"/></g><g id="node7" class="node"><title>dft_data</title><ellipse cx="620" cy="-162" fill="none" stroke="#000" rx="40.094" ry="18"/><text x="620" y="-158.3" fill="#000" font-family="Times,serif" font-size="14" text-anchor="middle">dft_data</text></g><g id="edge6" class="edge"><title>dft-&gt;dft_data</title><path fill="none" stroke="#000" d="M402.8228,-302.6589C454.6097,-295.6895 565.6759,-278.0544 593,-252 609.7125,-236.0641 616.1979,-210.233 618.6565,-190.3227"/><polygon fill="#000" stroke="#000" points="622.151 -190.543 619.628 -180.253 615.184 -189.871 622.151 -190.543"/></g><g id="node8" class="node"><title>energies</title><ellipse cx="445" cy="-234" fill="none" stroke="#000" rx="40.893" ry="18"/><text x="445" y="-230.3" fill="#000" font-family="Times,serif" font-size="14" text-anchor="middle">energies</text></g><g id="edge7" class="edge"><title>dft-&gt;energies</title><path fill="none" stroke="#000" d="M390.6331,-290.7307C399.6736,-281.2971 411.4751,-268.9825 421.7717,-258.2382"/><polygon fill="#000" stroke="#000" points="424.55 -260.397 428.942 -250.756 419.496 -255.554 424.55 -260.397"/></g><g id="node9" class="node"><title>mixings</title><ellipse cx="544" cy="-234" fill="none" stroke="#000" rx="40.094" ry="18"/><text x="544" y="-230.3" fill="#000" font-family="Times,serif" font-size="14" text-anchor="middle">mixings</text></g><g id="edge8" class="edge"><title>dft-&gt;mixings</title><path fill="none" stroke="#000" d="M399.0074,-296.1397C426.4075,-284.3968 472.5929,-264.6031 505.4727,-250.5117"/><polygon fill="#000" stroke="#000" points="506.977 -253.675 514.79 -246.519 504.22 -247.241 506.977 -253.675"/></g><g id="node10" class="node"><title>rpoisson</title><ellipse cx="268" cy="-234" fill="none" stroke="#000" rx="41.693" ry="18"/><text x="268" y="-230.3" fill="#000" font-family="Times,serif" font-size="14" text-anchor="middle">rpoisson</text></g><g id="edge11" class="edge"><title>dft-&gt;rpoisson</title><path fill="none" stroke="#000" d="M356.6918,-293.1278C340.7689,-282.5126 317.8672,-267.2448 299.3244,-254.8829"/><polygon fill="#000" stroke="#000" points="301.149 -251.893 290.887 -249.258 297.267 -257.718 301.149 -251.893"/></g><g id="edge13" class="edge"><title>dft_data-&gt;types</title><path fill="none" stroke="#000" d="M613.7154,-144.1896C605.6848,-123.9138 589.8967,-91.1331 566,-72 529.9935,-43.171 477.9678,-29.4643 442.4401,-23.1313"/><polygon fill="#000" stroke="#000" points="442.872 -19.655 432.433 -21.464 441.721 -26.56 442.872 -19.655"/></g><g id="edge23" class="edge"><title>energies-&gt;constants</title><path fill="none" stroke="#000" d="M434.618,-216.2022C429.7353,-207.832 423.8134,-197.6802 418.4208,-188.4356"/><polygon fill="#000" stroke="#000" points="421.325 -186.467 413.263 -179.593 415.278 -189.994 421.325 -186.467"/></g><g id="edge24" class="edge"><title>energies-&gt;types</title><path fill="none" stroke="#000" d="M450.9363,-215.9464C456.1158,-197.6859 462.0711,-168.7062 457,-144 449.565,-107.777 431.2632,-69.1095 418.0243,-44.3082"/><polygon fill="#000" stroke="#000" points="420.919 -42.305 413.057 -35.203 414.774 -45.658 420.919 -42.305"/></g><g id="edge31" class="edge"><title>mixings-&gt;constants</title><path fill="none" stroke="#000" d="M517.1471,-220.2879C495.1834,-209.0724 463.9016,-193.0987 439.638,-180.7088"/><polygon fill="#000" stroke="#000" points="441.214 -177.584 430.716 -176.153 438.031 -183.818 441.214 -177.584"/></g><g id="edge34" class="edge"><title>mixings-&gt;types</title><path fill="none" stroke="#000" d="M535.7054,-216.159C521.0419,-185.4126 488.6989,-121.0258 453,-72 445.1266,-61.1873 435.3312,-50.1877 426.5024,-40.9622"/><polygon fill="#000" stroke="#000" points="428.87 -38.377 419.377 -33.673 423.865 -43.271 428.87 -38.377"/></g><g id="edge33" class="edge"><title>mixings-&gt;ode1d</title><path fill="none" stroke="#000" d="M532.0271,-216.5146C516.967,-195.9147 489.1516,-162.1977 457,-144 396.737,-109.8913 316.1138,-97.306 267.2291,-92.6765"/><polygon fill="#000" stroke="#000" points="267.269 -89.167 257.002 -91.781 266.658 -96.14 267.269 -89.167"/></g><g id="edge32" class="edge"><title>mixings-&gt;dft_data</title><path fill="none" stroke="#000" d="M561.2456,-217.6621C571.2802,-208.1556 584.1001,-196.0105 595.2028,-185.4921"/><polygon fill="#000" stroke="#000" points="597.707 -187.941 602.56 -178.523 592.893 -182.859 597.707 -187.941"/></g><g id="edge27" class="edge"><title>rpoisson-&gt;constants</title><path fill="none" stroke="#000" d="M294.3498,-219.9468C314.9869,-208.9403 343.9224,-193.508 366.7441,-181.3365"/><polygon fill="#000" stroke="#000" points="368.615 -184.306 375.791 -176.511 365.32 -178.129 368.615 -184.306"/></g><g id="edge29" class="edge"><title>rpoisson-&gt;types</title><path fill="none" stroke="#000" d="M269.2091,-215.8315C272.1826,-183.7283 282.2851,-116.1955 316,-72 329.4972,-54.3071 350.5966,-41.0056 368.6364,-32.0313"/><polygon fill="#000" stroke="#000" points="370.188 -35.169 377.735 -27.733 367.198 -28.84 370.188 -35.169"/></g><g id="edge28" class="edge"><title>rpoisson-&gt;ode1d</title><path fill="none" stroke="#000" d="M262.5163,-216.0535C255.007,-191.4774 241.4475,-147.1008 232.5853,-118.0974"/><polygon fill="#000" stroke="#000" points="235.822 -116.713 229.553 -108.173 229.128 -118.759 235.822 -116.713"/></g><g id="node11" class="node"><title>drivers</title><ellipse cx="614" cy="-378" fill="none" stroke="#000" rx="35.995" ry="18"/><text x="614" y="-374.3" fill="#000" font-family="Times,serif" font-size="14" text-anchor="middle">drivers</text></g><g id="edge21" class="edge"><title>drivers-&gt;types</title><path fill="none" stroke="#000" d="M647.524,-371.7081C692.3067,-362.6283 768.2093,-344.656 787,-324 814.51,-293.7592 806,-274.8816 806,-234 806,-234 806,-234 806,-162 806,-111.0515 778.9058,-97.8464 735,-72 686.0955,-43.211 520.0828,-27.0101 442.9707,-20.8774"/><polygon fill="#000" stroke="#000" points="442.943 -17.365 432.701 -20.079 442.4 -24.344 442.943 -17.365"/></g><g id="edge15" class="edge"><title>drivers-&gt;dft</title><path fill="none" stroke="#000" d="M582.8857,-368.5873C538.2782,-355.0926 456.4453,-330.3364 410.1933,-316.3442"/><polygon fill="#000" stroke="#000" points="411.201 -312.992 400.615 -313.447 409.174 -319.692 411.201 -312.992"/></g><g id="edge16" class="edge"><title>drivers-&gt;dft_data</title><path fill="none" stroke="#000" d="M614.5012,-359.9555C615.5446,-322.3938 617.9568,-235.5541 619.2108,-190.4103"/><polygon fill="#000" stroke="#000" points="622.717 -190.238 619.496 -180.145 615.72 -190.044 622.717 -190.238"/></g><g id="edge17" class="edge"><title>drivers-&gt;energies</title><path fill="none" stroke="#000" d="M595.5923,-362.3154C565.6549,-336.8065 506.2913,-286.2245 471.7117,-256.7603"/><polygon fill="#000" stroke="#000" points="473.783 -253.927 463.901 -250.105 469.243 -259.255 473.783 -253.927"/></g><g id="edge19" class="edge"><title>drivers-&gt;mixings</title><path fill="none" stroke="#000" d="M605.4166,-360.3428C593.3462,-335.5122 571.2543,-290.066 557.117,-260.9836"/><polygon fill="#000" stroke="#000" points="560.173 -259.265 552.654 -251.802 553.878 -262.325 560.173 -259.265"/></g><g id="node12" class="node"><title>mesh</title><ellipse cx="670" cy="-90" fill="none" stroke="#000" rx="29.795" ry="18"/><text x="670" y="-86.3" fill="#000" font-family="Times,serif" font-size="14" text-anchor="middle">mesh</text></g><g id="edge18" class="edge"><title>drivers-&gt;mesh</title><path fill="none" stroke="#000" d="M619.4396,-360.0308C622.5861,-349.5411 626.5861,-336.0411 630,-324 648.0863,-260.2087 659.892,-245.6772 669,-180 671.8575,-159.3951 672.0135,-135.8823 671.5049,-118.0579"/><polygon fill="#000" stroke="#000" points="675.001 -117.892 671.132 -108.029 668.006 -118.152 675.001 -117.892"/></g><g id="node13" class="node"><title>states</title><ellipse cx="747" cy="-306" fill="none" stroke="#000" rx="31.396" ry="18"/><text x="747" y="-302.3" fill="#000" font-family="Times,serif" font-size="14" text-anchor="middle">states</text></g><g id="edge20" class="edge"><title>drivers-&gt;states</title><path fill="none" stroke="#000" d="M638.3942,-364.7941C659.9768,-353.1103 691.6111,-335.9849 715.1778,-323.227"/><polygon fill="#000" stroke="#000" points="716.966 -326.239 724.094 -318.4 713.634 -320.083 716.966 -326.239"/></g><g id="edge22" class="edge"><title>mesh-&gt;types</title><path fill="none" stroke="#000" d="M644.4721,-80.4592C636.3794,-77.578 627.3622,-74.5149 619,-72 557.3157,-53.4491 484.4128,-36.1682 441.0336,-26.3644"/><polygon fill="#000" stroke="#000" points="441.715 -22.93 431.191 -24.154 440.181 -29.76 441.715 -22.93"/></g><g id="edge30" class="edge"><title>states-&gt;types</title><path fill="none" stroke="#000" d="M750.282,-288.0357C757.1364,-244.3214 767.817,-131.6275 709,-72 672.5311,-35.0286 517.8381,-23.1244 443.3752,-19.4943"/><polygon fill="#000" stroke="#000" points="443.145 -15.98 432.995 -19.017 442.823 -22.973 443.145 -15.98"/></g><g id="node14" class="node"><title>atom_u</title><ellipse cx="272" cy="-450" fill="none" stroke="#000" rx="37.894" ry="18"/><text x="272" y="-446.3" fill="#000" font-family="Times,serif" font-size="14" text-anchor="middle">atom_u</text></g><g id="edge36" class="edge"><title>atom_u-&gt;types</title><path fill="none" stroke="#000" d="M234.4651,-447.2652C159.8484,-439.5737 0,-410.8596 0,-306 0,-306 0,-306 0,-162 0,-109.3582 31.1505,-97.8647 77,-72 125.3779,-44.709 287.0934,-27.8078 363.006,-21.1933"/><polygon fill="#000" stroke="#000" points="363.462 -24.667 373.127 -20.328 362.866 -17.693 363.462 -24.667"/></g><g id="edge35" class="edge"><title>atom_u-&gt;drivers</title><path fill="none" stroke="#000" d="M306.6749,-442.7C369.5082,-429.472 502.0264,-401.5734 570.6969,-387.1165"/><polygon fill="#000" stroke="#000" points="571.685 -390.485 580.75 -385 570.243 -383.635 571.685 -390.485"/></g></g></svg>