<?xml version="1.0" encoding="UTF-8" standalone="no"?>
<!DOCTYPE svg PUBLIC "-//W3C//DTD SVG 1.1//EN"
 "http://www.w3.org/Graphics/SVG/1.1/DTD/svg11.dtd">
<!-- Generated by graphviz version 2.40.1 (20161225.0304)
 -->
<!-- Title: src.dot Pages: 1 -->
<svg width="1867pt" height="620pt"
 viewBox="0.00 0.00 1866.69 620.00" xmlns="http://www.w3.org/2000/svg" xmlns:xlink="http://www.w3.org/1999/xlink">
<g id="graph0" class="graph" transform="scale(1 1) rotate(0) translate(4 616)">
<title>src.dot</title>
<polygon fill="#ffffff" stroke="transparent" points="-4,4 -4,-616 1862.6884,-616 1862.6884,4 -4,4"/>
<!-- constants -->
<g id="node1" class="node">
<title>constants</title>
<ellipse fill="none" stroke="#000000" cx="323.2964" cy="-162" rx="44.6926" ry="18"/>
<text text-anchor="middle" x="323.2964" y="-158.3" font-family="Times,serif" font-size="14.00" fill="#000000">constants</text>
</g>
<!-- types -->
<g id="node2" class="node">
<title>types</title>
<ellipse fill="none" stroke="#000000" cx="1028.2964" cy="-18" rx="29.795" ry="18"/>
<text text-anchor="middle" x="1028.2964" y="-14.3" font-family="Times,serif" font-size="14.00" fill="#000000">types</text>
</g>
<!-- constants&#45;&gt;types -->
<g id="edge1" class="edge">
<title>constants&#45;&gt;types</title>
<path fill="none" stroke="#000000" d="M329.9466,-143.8401C338.7883,-122.576 356.6002,-88.2053 384.2964,-72 436.3305,-41.5544 854.9315,-24.1679 987.9062,-19.3728"/>
<polygon fill="#000000" stroke="#000000" points="988.1991,-22.8647 998.0681,-19.0109 987.9499,-15.8691 988.1991,-22.8647"/>
</g>
<!-- reigen -->
<g id="node3" class="node">
<title>reigen</title>
<ellipse fill="none" stroke="#000000" cx="1260.2964" cy="-306" rx="33.2948" ry="18"/>
<text text-anchor="middle" x="1260.2964" y="-302.3" font-family="Times,serif" font-size="14.00" fill="#000000">reigen</text>
</g>
<!-- reigen&#45;&gt;types -->
<g id="edge5" class="edge">
<title>reigen&#45;&gt;types</title>
<path fill="none" stroke="#000000" d="M1293.0654,-303.2629C1353.3736,-296.7378 1473.0133,-276.0447 1441.2964,-216 1366.9758,-75.2999 1156.4823,-33.5815 1068.1226,-22.0722"/>
<polygon fill="#000000" stroke="#000000" points="1068.3245,-18.5706 1057.9699,-20.8138 1067.4634,-25.5174 1068.3245,-18.5706"/>
</g>
<!-- ode1d -->
<g id="node4" class="node">
<title>ode1d</title>
<ellipse fill="none" stroke="#000000" cx="987.2964" cy="-162" rx="33.2948" ry="18"/>
<text text-anchor="middle" x="987.2964" y="-158.3" font-family="Times,serif" font-size="14.00" fill="#000000">ode1d</text>
</g>
<!-- reigen&#45;&gt;ode1d -->
<g id="edge2" class="edge">
<title>reigen&#45;&gt;ode1d</title>
<path fill="none" stroke="#000000" d="M1243.6815,-290.3877C1222.0328,-270.7441 1182.3206,-237.0396 1143.2964,-216 1106.1918,-195.9953 1060.2285,-181.1524 1027.8338,-172.1435"/>
<polygon fill="#000000" stroke="#000000" points="1028.389,-168.6676 1017.8212,-169.4244 1026.5544,-175.4229 1028.389,-168.6676"/>
</g>
<!-- rdirac -->
<g id="node5" class="node">
<title>rdirac</title>
<ellipse fill="none" stroke="#000000" cx="1260.2964" cy="-234" rx="31.6951" ry="18"/>
<text text-anchor="middle" x="1260.2964" y="-230.3" font-family="Times,serif" font-size="14.00" fill="#000000">rdirac</text>
</g>
<!-- reigen&#45;&gt;rdirac -->
<g id="edge3" class="edge">
<title>reigen&#45;&gt;rdirac</title>
<path fill="none" stroke="#000000" d="M1260.2964,-287.8314C1260.2964,-280.131 1260.2964,-270.9743 1260.2964,-262.4166"/>
<polygon fill="#000000" stroke="#000000" points="1263.7965,-262.4132 1260.2964,-252.4133 1256.7965,-262.4133 1263.7965,-262.4132"/>
</g>
<!-- rschroed -->
<g id="node6" class="node">
<title>rschroed</title>
<ellipse fill="none" stroke="#000000" cx="1390.2964" cy="-234" rx="42.4939" ry="18"/>
<text text-anchor="middle" x="1390.2964" y="-230.3" font-family="Times,serif" font-size="14.00" fill="#000000">rschroed</text>
</g>
<!-- reigen&#45;&gt;rschroed -->
<g id="edge4" class="edge">
<title>reigen&#45;&gt;rschroed</title>
<path fill="none" stroke="#000000" d="M1283.5378,-293.1278C1303.4363,-282.1071 1332.3891,-266.0717 1355.1248,-253.4796"/>
<polygon fill="#000000" stroke="#000000" points="1357.0761,-256.4 1364.1283,-248.4931 1353.6846,-250.2764 1357.0761,-256.4"/>
</g>
<!-- utils -->
<g id="node7" class="node">
<title>utils</title>
<ellipse fill="none" stroke="#000000" cx="1121.2964" cy="-90" rx="27" ry="18"/>
<text text-anchor="middle" x="1121.2964" y="-86.3" font-family="Times,serif" font-size="14.00" fill="#000000">utils</text>
</g>
<!-- reigen&#45;&gt;utils -->
<g id="edge6" class="edge">
<title>reigen&#45;&gt;utils</title>
<path fill="none" stroke="#000000" d="M1276.614,-289.9267C1292.9286,-271.8124 1313.9136,-241.5573 1301.2964,-216 1271.7664,-156.1841 1198.5845,-119.293 1155.1696,-101.919"/>
<polygon fill="#000000" stroke="#000000" points="1156.1899,-98.5609 1145.6007,-98.2127 1153.6615,-105.0883 1156.1899,-98.5609"/>
</g>
<!-- ode1d&#45;&gt;types -->
<g id="edge31" class="edge">
<title>ode1d&#45;&gt;types</title>
<path fill="none" stroke="#000000" d="M992.4062,-144.0535C999.4036,-119.4774 1012.0386,-75.1008 1020.2965,-46.0974"/>
<polygon fill="#000000" stroke="#000000" points="1023.75,-46.7489 1023.1222,-36.1727 1017.0176,-44.832 1023.75,-46.7489"/>
</g>
<!-- ode1d&#45;&gt;utils -->
<g id="edge32" class="edge">
<title>ode1d&#45;&gt;utils</title>
<path fill="none" stroke="#000000" d="M1010.9445,-149.2936C1033.2312,-137.3186 1066.7332,-119.3176 1090.975,-106.2921"/>
<polygon fill="#000000" stroke="#000000" points="1092.9391,-109.21 1100.0915,-101.3937 1089.6259,-103.0438 1092.9391,-109.21"/>
</g>
<!-- rdirac&#45;&gt;types -->
<g id="edge64" class="edge">
<title>rdirac&#45;&gt;types</title>
<path fill="none" stroke="#000000" d="M1253.5312,-216.2331C1240.11,-183.2465 1207.0486,-112.243 1157.2964,-72 1130.3131,-50.174 1093.243,-35.8859 1065.7637,-27.5227"/>
<polygon fill="#000000" stroke="#000000" points="1066.6902,-24.1471 1056.1101,-24.7066 1064.7298,-30.867 1066.6902,-24.1471"/>
</g>
<!-- rdirac&#45;&gt;ode1d -->
<g id="edge63" class="edge">
<title>rdirac&#45;&gt;ode1d</title>
<path fill="none" stroke="#000000" d="M1234.2496,-223.08C1227.7915,-220.575 1220.844,-218.0488 1214.2964,-216 1150.4984,-196.0364 1074.627,-179.3722 1028.7566,-170.0489"/>
<polygon fill="#000000" stroke="#000000" points="1029.3762,-166.6035 1018.8821,-168.0613 1027.9948,-173.4659 1029.3762,-166.6035"/>
</g>
<!-- rdirac&#45;&gt;utils -->
<g id="edge65" class="edge">
<title>rdirac&#45;&gt;utils</title>
<path fill="none" stroke="#000000" d="M1245.634,-217.8695C1229.0314,-199.704 1201.0649,-169.4031 1176.2964,-144 1165.8745,-133.3111 1154.0909,-121.6831 1144.1117,-111.9645"/>
<polygon fill="#000000" stroke="#000000" points="1146.4988,-109.4039 1136.8847,-104.9519 1141.6241,-114.4276 1146.4988,-109.4039"/>
</g>
<!-- rschroed&#45;&gt;types -->
<g id="edge53" class="edge">
<title>rschroed&#45;&gt;types</title>
<path fill="none" stroke="#000000" d="M1373.6999,-217.214C1340.9633,-184.9443 1264.6041,-113.7586 1188.2964,-72 1166.8399,-60.2581 1105.3801,-40.8817 1065.1804,-28.8114"/>
<polygon fill="#000000" stroke="#000000" points="1066.0387,-25.4151 1055.4554,-25.9092 1064.0369,-32.1228 1066.0387,-25.4151"/>
</g>
<!-- rschroed&#45;&gt;ode1d -->
<g id="edge52" class="edge">
<title>rschroed&#45;&gt;ode1d</title>
<path fill="none" stroke="#000000" d="M1352.2316,-226.0468C1336.4864,-222.8234 1318.0315,-219.1306 1301.2964,-216 1204.155,-197.8278 1089.6638,-178.7186 1029.3548,-168.8315"/>
<polygon fill="#000000" stroke="#000000" points="1029.8798,-165.371 1019.4458,-167.2101 1028.7494,-172.2791 1029.8798,-165.371"/>
</g>
<!-- rschroed&#45;&gt;utils -->
<g id="edge54" class="edge">
<title>rschroed&#45;&gt;utils</title>
<path fill="none" stroke="#000000" d="M1381.5824,-216.2911C1370.5843,-195.7959 1349.74,-162.4986 1322.2964,-144 1271.9193,-110.0427 1201.0115,-97.3969 1158.2725,-92.7165"/>
<polygon fill="#000000" stroke="#000000" points="1158.6025,-89.2321 1148.3024,-91.7137 1157.902,-96.197 1158.6025,-89.2321"/>
</g>
<!-- utils&#45;&gt;types -->
<g id="edge44" class="edge">
<title>utils&#45;&gt;types</title>
<path fill="none" stroke="#000000" d="M1103.3651,-76.1177C1089.6482,-65.4981 1070.5162,-50.6863 1055,-38.6738"/>
<polygon fill="#000000" stroke="#000000" points="1056.8591,-35.6867 1046.8093,-32.3325 1052.5739,-41.2218 1056.8591,-35.6867"/>
</g>
<!-- dftatom -->
<g id="node8" class="node">
<title>dftatom</title>
<ellipse fill="none" stroke="#000000" cx="1098.2964" cy="-522" rx="38.9931" ry="18"/>
<text text-anchor="middle" x="1098.2964" y="-518.3" font-family="Times,serif" font-size="14.00" fill="#000000">dftatom</text>
</g>
<!-- dftatom&#45;&gt;types -->
<g id="edge15" class="edge">
<title>dftatom&#45;&gt;types</title>
<path fill="none" stroke="#000000" d="M1136.7674,-518.8441C1291.2621,-505.6651 1858.2964,-452.2383 1858.2964,-378 1858.2964,-378 1858.2964,-378 1858.2964,-162 1858.2964,-120.2388 1863.9455,-98.0392 1831.2964,-72 1801.1968,-47.9941 1227.5495,-25.2917 1068.7419,-19.4471"/>
<polygon fill="#000000" stroke="#000000" points="1068.5851,-15.9391 1058.4638,-19.0711 1068.3291,-22.9344 1068.5851,-15.9391"/>
</g>
<!-- dftatom&#45;&gt;reigen -->
<g id="edge12" class="edge">
<title>dftatom&#45;&gt;reigen</title>
<path fill="none" stroke="#000000" d="M1111.2797,-504.6889C1139.8578,-466.5848 1208.3005,-375.3279 1241.5426,-331.0052"/>
<polygon fill="#000000" stroke="#000000" points="1244.4994,-332.8961 1247.6994,-322.7961 1238.8993,-328.6961 1244.4994,-332.8961"/>
</g>
<!-- dftatom&#45;&gt;ode1d -->
<g id="edge11" class="edge">
<title>dftatom&#45;&gt;ode1d</title>
<path fill="none" stroke="#000000" d="M1092.7919,-504.1475C1074.8168,-445.8498 1017.7451,-260.7526 995.9085,-189.931"/>
<polygon fill="#000000" stroke="#000000" points="999.1253,-188.485 992.8342,-179.9602 992.4361,-190.5476 999.1253,-188.485"/>
</g>
<!-- dftatom&#45;&gt;utils -->
<g id="edge16" class="edge">
<title>dftatom&#45;&gt;utils</title>
<path fill="none" stroke="#000000" d="M1136.8463,-518.6976C1250.1655,-507.9387 1574.2964,-469.1941 1574.2964,-378 1574.2964,-378 1574.2964,-378 1574.2964,-306 1574.2964,-210.2555 1515.7864,-190.8661 1432.2964,-144 1385.8386,-117.9215 1230.5448,-100.3062 1158.5417,-93.3422"/>
<polygon fill="#000000" stroke="#000000" points="1158.8318,-89.854 1148.5455,-92.3922 1158.1696,-96.8226 1158.8318,-89.854"/>
</g>
<!-- dft -->
<g id="node9" class="node">
<title>dft</title>
<ellipse fill="none" stroke="#000000" cx="551.2964" cy="-378" rx="27" ry="18"/>
<text text-anchor="middle" x="551.2964" y="-374.3" font-family="Times,serif" font-size="14.00" fill="#000000">dft</text>
</g>
<!-- dftatom&#45;&gt;dft -->
<g id="edge7" class="edge">
<title>dftatom&#45;&gt;dft</title>
<path fill="none" stroke="#000000" d="M1064.0791,-512.9922C966.1534,-487.2128 685.4858,-413.3259 586.4301,-387.2491"/>
<polygon fill="#000000" stroke="#000000" points="587.1736,-383.8256 576.612,-384.6644 585.3915,-390.595 587.1736,-383.8256"/>
</g>
<!-- drivers -->
<g id="node10" class="node">
<title>drivers</title>
<ellipse fill="none" stroke="#000000" cx="619.2964" cy="-450" rx="35.9954" ry="18"/>
<text text-anchor="middle" x="619.2964" y="-446.3" font-family="Times,serif" font-size="14.00" fill="#000000">drivers</text>
</g>
<!-- dftatom&#45;&gt;drivers -->
<g id="edge8" class="edge">
<title>dftatom&#45;&gt;drivers</title>
<path fill="none" stroke="#000000" d="M1061.1337,-516.4772C995.6809,-506.7422 855.5672,-485.8663 737.2964,-468 712.9738,-464.3258 685.8374,-460.1889 663.7257,-456.8084"/>
<polygon fill="#000000" stroke="#000000" points="664.0437,-453.3164 653.6294,-455.264 662.9852,-460.2359 664.0437,-453.3164"/>
</g>
<!-- energies -->
<g id="node11" class="node">
<title>energies</title>
<ellipse fill="none" stroke="#000000" cx="177.2964" cy="-234" rx="40.8928" ry="18"/>
<text text-anchor="middle" x="177.2964" y="-230.3" font-family="Times,serif" font-size="14.00" fill="#000000">energies</text>
</g>
<!-- dftatom&#45;&gt;energies -->
<g id="edge9" class="edge">
<title>dftatom&#45;&gt;energies</title>
<path fill="none" stroke="#000000" d="M1059.2935,-521.4148C905.696,-518.3832 344.2905,-500.2379 207.2964,-396 167.0308,-365.3621 168.4984,-338.519 171.2964,-288 171.7534,-279.7487 172.6003,-270.8207 173.5168,-262.6455"/>
<polygon fill="#000000" stroke="#000000" points="177.0235,-262.7968 174.7346,-252.4522 170.0729,-261.9664 177.0235,-262.7968"/>
</g>
<!-- mesh -->
<g id="node12" class="node">
<title>mesh</title>
<ellipse fill="none" stroke="#000000" cx="1452.2964" cy="-378" rx="29.795" ry="18"/>
<text text-anchor="middle" x="1452.2964" y="-374.3" font-family="Times,serif" font-size="14.00" fill="#000000">mesh</text>
</g>
<!-- dftatom&#45;&gt;mesh -->
<g id="edge10" class="edge">
<title>dftatom&#45;&gt;mesh</title>
<path fill="none" stroke="#000000" d="M1130.8064,-511.8403C1162.794,-501.6051 1212.8676,-484.942 1255.2964,-468 1314.2084,-444.4762 1381.0273,-412.8717 1419.7477,-394.0527"/>
<polygon fill="#000000" stroke="#000000" points="1421.5116,-397.0865 1428.9646,-389.5563 1418.4424,-390.7952 1421.5116,-397.0865"/>
</g>
<!-- rpoisson -->
<g id="node13" class="node">
<title>rpoisson</title>
<ellipse fill="none" stroke="#000000" cx="1092.2964" cy="-234" rx="41.6928" ry="18"/>
<text text-anchor="middle" x="1092.2964" y="-230.3" font-family="Times,serif" font-size="14.00" fill="#000000">rpoisson</text>
</g>
<!-- dftatom&#45;&gt;rpoisson -->
<g id="edge13" class="edge">
<title>dftatom&#45;&gt;rpoisson</title>
<path fill="none" stroke="#000000" d="M1097.9211,-503.9843C1096.9067,-455.2939 1094.1047,-320.7961 1092.881,-262.0573"/>
<polygon fill="#000000" stroke="#000000" points="1096.3792,-261.9338 1092.6716,-252.0089 1089.3808,-262.0796 1096.3792,-261.9338"/>
</g>
<!-- states -->
<g id="node14" class="node">
<title>states</title>
<ellipse fill="none" stroke="#000000" cx="1350.2964" cy="-378" rx="31.3957" ry="18"/>
<text text-anchor="middle" x="1350.2964" y="-374.3" font-family="Times,serif" font-size="14.00" fill="#000000">states</text>
</g>
<!-- dftatom&#45;&gt;states -->
<g id="edge14" class="edge">
<title>dftatom&#45;&gt;states</title>
<path fill="none" stroke="#000000" d="M1126.9434,-509.727C1150.329,-499.402 1184.0115,-483.8266 1212.2964,-468 1251.4877,-446.0709 1294.5149,-417.1869 1321.931,-398.1278"/>
<polygon fill="#000000" stroke="#000000" points="1324.0682,-400.9041 1330.2591,-392.3062 1320.0577,-395.1669 1324.0682,-400.9041"/>
</g>
<!-- dft&#45;&gt;constants -->
<g id="edge21" class="edge">
<title>dft&#45;&gt;constants</title>
<path fill="none" stroke="#000000" d="M524.5788,-374.6243C491.8865,-369.2208 436.5469,-355.7892 401.2964,-324 360.8927,-287.5635 339.3496,-225.6479 329.7138,-189.8375"/>
<polygon fill="#000000" stroke="#000000" points="333.077,-188.862 327.2017,-180.0454 326.2965,-190.6015 333.077,-188.862"/>
</g>
<!-- dft&#45;&gt;types -->
<g id="edge28" class="edge">
<title>dft&#45;&gt;types</title>
<path fill="none" stroke="#000000" d="M524.7421,-374.1162C496.7848,-368.4564 454.1306,-354.999 434.2964,-324 425.6732,-310.5226 429.5147,-303.2688 434.2964,-288 469.2261,-176.4636 484.1948,-132.3334 584.2964,-72 651.8444,-31.2874 891.7527,-21.185 987.9562,-18.7488"/>
<polygon fill="#000000" stroke="#000000" points="988.2391,-22.2432 998.1529,-18.5059 988.0724,-15.2452 988.2391,-22.2432"/>
</g>
<!-- dft&#45;&gt;reigen -->
<g id="edge26" class="edge">
<title>dft&#45;&gt;reigen</title>
<path fill="none" stroke="#000000" d="M578.5465,-376.8628C665.8941,-372.9581 946.6043,-358.395 1176.2964,-324 1190.5186,-321.8703 1205.9438,-318.7914 1219.6482,-315.7804"/>
<polygon fill="#000000" stroke="#000000" points="1220.7569,-319.1185 1229.7442,-313.5079 1219.2197,-312.2893 1220.7569,-319.1185"/>
</g>
<!-- dft&#45;&gt;ode1d -->
<g id="edge25" class="edge">
<title>dft&#45;&gt;ode1d</title>
<path fill="none" stroke="#000000" d="M578.2113,-375.5982C643.8545,-369.3745 810.3115,-351.2836 858.2964,-324 914.0985,-292.2717 954.8119,-226 974.3402,-188.8022"/>
<polygon fill="#000000" stroke="#000000" points="977.6238,-190.0685 979.0635,-179.5719 971.3923,-186.8797 977.6238,-190.0685"/>
</g>
<!-- dft&#45;&gt;utils -->
<g id="edge29" class="edge">
<title>dft&#45;&gt;utils</title>
<path fill="none" stroke="#000000" d="M578.4095,-376.103C663.7761,-369.9249 926.1518,-349.3132 1007.2964,-324 1072.5858,-303.6328 1108.0192,-310.5922 1143.2964,-252 1168.7469,-209.7291 1149.4878,-150.1651 1134.5043,-116.2863"/>
<polygon fill="#000000" stroke="#000000" points="1137.6079,-114.6585 1130.2393,-107.0457 1131.2522,-117.592 1137.6079,-114.6585"/>
</g>
<!-- dft&#45;&gt;energies -->
<g id="edge23" class="edge">
<title>dft&#45;&gt;energies</title>
<path fill="none" stroke="#000000" d="M525.6061,-372.1013C488.9792,-363.3604 419.9154,-345.6472 363.2964,-324 334.1254,-312.847 258.5938,-275.2323 213.2589,-252.3103"/>
<polygon fill="#000000" stroke="#000000" points="214.5733,-249.0528 204.0708,-247.6569 211.4105,-255.2975 214.5733,-249.0528"/>
</g>
<!-- dft&#45;&gt;rpoisson -->
<g id="edge27" class="edge">
<title>dft&#45;&gt;rpoisson</title>
<path fill="none" stroke="#000000" d="M578.2232,-376.0802C657.6314,-370.1626 889.7076,-350.961 960.2964,-324 1000.9785,-308.4617 1041.411,-278.1294 1066.5974,-256.9946"/>
<polygon fill="#000000" stroke="#000000" points="1068.8877,-259.6413 1074.2201,-250.4862 1064.3423,-254.3178 1068.8877,-259.6413"/>
</g>
<!-- dft_data -->
<g id="node17" class="node">
<title>dft_data</title>
<ellipse fill="none" stroke="#000000" cx="40.2964" cy="-234" rx="40.0939" ry="18"/>
<text text-anchor="middle" x="40.2964" y="-230.3" font-family="Times,serif" font-size="14.00" fill="#000000">dft_data</text>
</g>
<!-- dft&#45;&gt;dft_data -->
<g id="edge22" class="edge">
<title>dft&#45;&gt;dft_data</title>
<path fill="none" stroke="#000000" d="M524.3238,-375.4801C450.6354,-368.3671 247.2346,-347.1416 184.2964,-324 140.4135,-307.8648 95.6365,-277.1803 67.915,-256.1659"/>
<polygon fill="#000000" stroke="#000000" points="69.9387,-253.3068 59.8792,-249.9814 65.6694,-258.8541 69.9387,-253.3068"/>
</g>
<!-- mixings -->
<g id="node18" class="node">
<title>mixings</title>
<ellipse fill="none" stroke="#000000" cx="233.2964" cy="-306" rx="40.0939" ry="18"/>
<text text-anchor="middle" x="233.2964" y="-302.3" font-family="Times,serif" font-size="14.00" fill="#000000">mixings</text>
</g>
<!-- dft&#45;&gt;mixings -->
<g id="edge24" class="edge">
<title>dft&#45;&gt;mixings</title>
<path fill="none" stroke="#000000" d="M524.8226,-373.6696C476.9897,-365.6058 373.1551,-347.0018 287.2964,-324 283.2157,-322.9068 278.992,-321.6767 274.7869,-320.386"/>
<polygon fill="#000000" stroke="#000000" points="275.6752,-316.9958 265.0847,-317.3001 273.5535,-323.6665 275.6752,-316.9958"/>
</g>
<!-- drivers&#45;&gt;constants -->
<g id="edge33" class="edge">
<title>drivers&#45;&gt;constants</title>
<path fill="none" stroke="#000000" d="M587.6777,-441.3308C535.9763,-425.7234 432.76,-388.382 369.2964,-324 333.6767,-287.8648 325.2112,-226.2723 323.453,-190.3451"/>
<polygon fill="#000000" stroke="#000000" points="326.9416,-189.9497 323.1001,-180.0759 319.9457,-190.1902 326.9416,-189.9497"/>
</g>
<!-- drivers&#45;&gt;types -->
<g id="edge41" class="edge">
<title>drivers&#45;&gt;types</title>
<path fill="none" stroke="#000000" d="M655.0253,-447.8549C803.5744,-438.0682 1368.7635,-391.9318 1458.2964,-252 1513.3629,-165.9361 1409.2983,-112.0368 1315.2964,-72 1232.0816,-36.5575 1125.4734,-24.2888 1068.4862,-20.1074"/>
<polygon fill="#000000" stroke="#000000" points="1068.6562,-16.611 1058.4397,-19.417 1068.1762,-23.5945 1068.6562,-16.611"/>
</g>
<!-- drivers&#45;&gt;ode1d -->
<g id="edge39" class="edge">
<title>drivers&#45;&gt;ode1d</title>
<path fill="none" stroke="#000000" d="M649.9917,-440.5161C703.3022,-423.1011 814.983,-382.3803 895.2964,-324 930.4099,-298.4758 940.0444,-289.8523 961.2964,-252 972.1294,-232.7052 978.7915,-208.4986 982.6563,-190.0509"/>
<polygon fill="#000000" stroke="#000000" points="986.0987,-190.6836 984.5716,-180.1994 979.2274,-189.3476 986.0987,-190.6836"/>
</g>
<!-- drivers&#45;&gt;dft -->
<g id="edge34" class="edge">
<title>drivers&#45;&gt;dft</title>
<path fill="none" stroke="#000000" d="M603.8662,-433.6621C594.6589,-423.9132 582.8307,-411.3892 572.7264,-400.6906"/>
<polygon fill="#000000" stroke="#000000" points="575.1465,-398.1556 565.7357,-393.2886 570.0574,-402.962 575.1465,-398.1556"/>
</g>
<!-- drivers&#45;&gt;energies -->
<g id="edge36" class="edge">
<title>drivers&#45;&gt;energies</title>
<path fill="none" stroke="#000000" d="M584.0996,-446.8056C507.7963,-439.5089 329.5674,-420.3518 274.2964,-396 227.4196,-375.3465 208.2612,-369.2735 184.2964,-324 174.306,-305.1265 172.9675,-280.8473 173.901,-262.2637"/>
<polygon fill="#000000" stroke="#000000" points="177.4082,-262.2975 174.665,-252.064 170.4277,-261.7746 177.4082,-262.2975"/>
</g>
<!-- drivers&#45;&gt;mesh -->
<g id="edge37" class="edge">
<title>drivers&#45;&gt;mesh</title>
<path fill="none" stroke="#000000" d="M655.2435,-448.4984C787.4006,-442.8199 1246.1384,-421.6727 1390.2964,-396 1398.8621,-394.4746 1407.9337,-392.2192 1416.4169,-389.8169"/>
<polygon fill="#000000" stroke="#000000" points="1417.4467,-393.1622 1426.0394,-386.9642 1415.457,-386.4509 1417.4467,-393.1622"/>
</g>
<!-- drivers&#45;&gt;states -->
<g id="edge40" class="edge">
<title>drivers&#45;&gt;states</title>
<path fill="none" stroke="#000000" d="M654.5541,-446.5273C776.3314,-434.5328 1178.8906,-394.8827 1309.2023,-382.0476"/>
<polygon fill="#000000" stroke="#000000" points="1309.926,-385.4933 1319.5347,-381.0299 1309.2398,-378.527 1309.926,-385.4933"/>
</g>
<!-- drivers&#45;&gt;dft_data -->
<g id="edge35" class="edge">
<title>drivers&#45;&gt;dft_data</title>
<path fill="none" stroke="#000000" d="M583.6484,-447.6368C496.6315,-441.5012 275.5082,-423.5956 207.2964,-396 139.1779,-368.4421 83.5414,-298.2456 57.0448,-259.925"/>
<polygon fill="#000000" stroke="#000000" points="59.7495,-257.6771 51.2426,-251.3617 53.9544,-261.6036 59.7495,-257.6771"/>
</g>
<!-- drivers&#45;&gt;mixings -->
<g id="edge38" class="edge">
<title>drivers&#45;&gt;mixings</title>
<path fill="none" stroke="#000000" d="M584.3048,-446.1677C516.5364,-438.3262 370.1075,-419.217 325.2964,-396 295.4794,-380.5515 268.9632,-352.2222 252.1491,-331.4609"/>
<polygon fill="#000000" stroke="#000000" points="254.707,-329.052 245.7685,-323.3639 249.209,-333.3846 254.707,-329.052"/>
</g>
<!-- energies&#45;&gt;constants -->
<g id="edge49" class="edge">
<title>energies&#45;&gt;constants</title>
<path fill="none" stroke="#000000" d="M204.7579,-220.4574C227.6105,-209.1876 260.3765,-193.029 285.6702,-180.5554"/>
<polygon fill="#000000" stroke="#000000" points="287.5415,-183.5351 294.9622,-175.973 284.4454,-177.257 287.5415,-183.5351"/>
</g>
<!-- energies&#45;&gt;types -->
<g id="edge50" class="edge">
<title>energies&#45;&gt;types</title>
<path fill="none" stroke="#000000" d="M181.8907,-215.8776C187.6396,-196.2215 199.1322,-164.865 218.2964,-144 262.4494,-95.9286 283.858,-91.0208 346.2964,-72 467.5829,-35.0521 860.9119,-22.1737 988.1723,-18.9158"/>
<polygon fill="#000000" stroke="#000000" points="988.353,-22.4125 998.2624,-18.6636 988.178,-15.4147 988.353,-22.4125"/>
</g>
<!-- energies&#45;&gt;utils -->
<g id="edge51" class="edge">
<title>energies&#45;&gt;utils</title>
<path fill="none" stroke="#000000" d="M188.9018,-216.7106C204.3832,-195.2956 233.9829,-159.7215 269.2964,-144 344.3357,-110.5927 928.285,-94.5509 1083.5091,-90.8501"/>
<polygon fill="#000000" stroke="#000000" points="1084.0166,-94.3392 1093.9315,-90.6049 1083.8519,-87.3412 1084.0166,-94.3392"/>
</g>
<!-- mesh&#45;&gt;types -->
<g id="edge42" class="edge">
<title>mesh&#45;&gt;types</title>
<path fill="none" stroke="#000000" d="M1481.9056,-375.3052C1519.7105,-370.5559 1585.572,-357.7492 1630.2964,-324 1668.2817,-295.3362 1688.2964,-281.5867 1688.2964,-234 1688.2964,-234 1688.2964,-234 1688.2964,-162 1688.2964,-118.9187 1686.8953,-97.6694 1652.2964,-72 1605.473,-37.261 1199.1385,-22.8281 1068.5364,-19.0596"/>
<polygon fill="#000000" stroke="#000000" points="1068.2847,-15.5511 1058.1896,-18.7668 1068.0866,-22.5483 1068.2847,-15.5511"/>
</g>
<!-- mesh&#45;&gt;utils -->
<g id="edge43" class="edge">
<title>mesh&#45;&gt;utils</title>
<path fill="none" stroke="#000000" d="M1457.4969,-360.253C1465.5132,-329.6484 1478.1047,-265.4695 1459.2964,-216 1444.081,-175.9803 1432.4651,-165.2503 1395.2964,-144 1355.2258,-121.0906 1223.1928,-102.388 1158.1574,-94.3073"/>
<polygon fill="#000000" stroke="#000000" points="1158.2973,-90.7984 1147.9462,-93.0576 1157.4469,-97.7466 1158.2973,-90.7984"/>
</g>
<!-- rpoisson&#45;&gt;constants -->
<g id="edge55" class="edge">
<title>rpoisson&#45;&gt;constants</title>
<path fill="none" stroke="#000000" d="M1051.4946,-230.1798C922.4696,-218.0994 523.2392,-180.7203 377.3715,-167.0629"/>
<polygon fill="#000000" stroke="#000000" points="377.5968,-163.5688 367.3141,-166.1213 376.9442,-170.5383 377.5968,-163.5688"/>
</g>
<!-- rpoisson&#45;&gt;types -->
<g id="edge57" class="edge">
<title>rpoisson&#45;&gt;types</title>
<path fill="none" stroke="#000000" d="M1086.9499,-215.9555C1075.7456,-178.1409 1049.7431,-90.3825 1036.4458,-45.5042"/>
<polygon fill="#000000" stroke="#000000" points="1039.7795,-44.4349 1033.5827,-35.8413 1033.0679,-46.4236 1039.7795,-44.4349"/>
</g>
<!-- rpoisson&#45;&gt;ode1d -->
<g id="edge56" class="edge">
<title>rpoisson&#45;&gt;ode1d</title>
<path fill="none" stroke="#000000" d="M1070.0286,-218.7307C1054.4447,-208.0445 1033.4694,-193.6615 1016.5388,-182.0519"/>
<polygon fill="#000000" stroke="#000000" points="1018.3305,-179.0367 1008.1038,-176.2679 1014.3717,-184.8098 1018.3305,-179.0367"/>
</g>
<!-- rpoisson&#45;&gt;utils -->
<g id="edge58" class="edge">
<title>rpoisson&#45;&gt;utils</title>
<path fill="none" stroke="#000000" d="M1095.9107,-216.0535C1100.86,-191.4774 1109.797,-147.1008 1115.6379,-118.0974"/>
<polygon fill="#000000" stroke="#000000" points="1119.0934,-118.6669 1117.6366,-108.1727 1112.2312,-117.2849 1119.0934,-118.6669"/>
</g>
<!-- states&#45;&gt;types -->
<g id="edge66" class="edge">
<title>states&#45;&gt;types</title>
<path fill="none" stroke="#000000" d="M1378.1726,-369.8971C1389.1096,-366.7542 1401.7777,-363.1586 1413.2964,-360 1528.3437,-328.4528 1650.2964,-353.2942 1650.2964,-234 1650.2964,-234 1650.2964,-234 1650.2964,-162 1650.2964,-120.6022 1657.9559,-98.6732 1626.2964,-72 1583.6977,-36.1105 1195.3653,-22.5077 1068.3194,-18.9947"/>
<polygon fill="#000000" stroke="#000000" points="1068.3287,-15.4938 1058.2377,-18.7221 1068.1394,-22.4912 1068.3287,-15.4938"/>
</g>
<!-- states&#45;&gt;utils -->
<g id="edge67" class="edge">
<title>states&#45;&gt;utils</title>
<path fill="none" stroke="#000000" d="M1369.1951,-363.4142C1402.956,-335.4758 1467.7311,-272.1901 1441.2964,-216 1430.6135,-193.292 1376.7883,-155.1307 1354.2964,-144 1289.7692,-112.0672 1205.7667,-98.6189 1158.2701,-93.2647"/>
<polygon fill="#000000" stroke="#000000" points="1158.4591,-89.7651 1148.1442,-92.1843 1157.7164,-96.7256 1158.4591,-89.7651"/>
</g>
<!-- rpoisson_other -->
<g id="node15" class="node">
<title>rpoisson_other</title>
<ellipse fill="none" stroke="#000000" cx="508.2964" cy="-306" rx="64.9885" ry="18"/>
<text text-anchor="middle" x="508.2964" y="-302.3" font-family="Times,serif" font-size="14.00" fill="#000000">rpoisson_other</text>
</g>
<!-- rpoisson_other&#45;&gt;constants -->
<g id="edge17" class="edge">
<title>rpoisson_other&#45;&gt;constants</title>
<path fill="none" stroke="#000000" d="M486.348,-288.9158C452.8907,-262.8734 389.1149,-213.2317 352.0154,-184.3543"/>
<polygon fill="#000000" stroke="#000000" points="354.1214,-181.5582 344.0803,-178.1777 349.8217,-187.0821 354.1214,-181.5582"/>
</g>
<!-- rpoisson_other&#45;&gt;types -->
<g id="edge20" class="edge">
<title>rpoisson_other&#45;&gt;types</title>
<path fill="none" stroke="#000000" d="M511.2957,-287.7109C519.9341,-241.7017 549.5574,-121.3152 629.2964,-72 688.7819,-35.2108 899.0788,-22.9409 988.0595,-19.337"/>
<polygon fill="#000000" stroke="#000000" points="988.4346,-22.8252 998.2912,-18.9394 988.1628,-15.8304 988.4346,-22.8252"/>
</g>
<!-- rpoisson_other&#45;&gt;ode1d -->
<g id="edge18" class="edge">
<title>rpoisson_other&#45;&gt;ode1d</title>
<path fill="none" stroke="#000000" d="M554.7135,-293.2593C593.4548,-282.5338 650.0841,-266.6432 699.2964,-252 789.1039,-225.2777 894.0107,-191.9608 949.0747,-174.3099"/>
<polygon fill="#000000" stroke="#000000" points="950.3091,-177.5897 958.7614,-171.2016 948.1702,-170.9244 950.3091,-177.5897"/>
</g>
<!-- ode1d_other -->
<g id="node16" class="node">
<title>ode1d_other</title>
<ellipse fill="none" stroke="#000000" cx="634.2964" cy="-234" rx="55.7903" ry="18"/>
<text text-anchor="middle" x="634.2964" y="-230.3" font-family="Times,serif" font-size="14.00" fill="#000000">ode1d_other</text>
</g>
<!-- rpoisson_other&#45;&gt;ode1d_other -->
<g id="edge19" class="edge">
<title>rpoisson_other&#45;&gt;ode1d_other</title>
<path fill="none" stroke="#000000" d="M536.8878,-289.6621C554.9399,-279.3466 578.4293,-265.9241 597.8185,-254.8445"/>
<polygon fill="#000000" stroke="#000000" points="599.7382,-257.7787 606.6841,-249.7784 596.2652,-251.701 599.7382,-257.7787"/>
</g>
<!-- ode1d_other&#45;&gt;constants -->
<g id="edge59" class="edge">
<title>ode1d_other&#45;&gt;constants</title>
<path fill="none" stroke="#000000" d="M588.7413,-223.4535C531.0057,-210.087 431.8696,-187.1359 372.4654,-173.3832"/>
<polygon fill="#000000" stroke="#000000" points="373.102,-169.9381 362.5703,-171.0923 371.5232,-176.7577 373.102,-169.9381"/>
</g>
<!-- ode1d_other&#45;&gt;types -->
<g id="edge61" class="edge">
<title>ode1d_other&#45;&gt;types</title>
<path fill="none" stroke="#000000" d="M637.0004,-215.8889C640.4904,-196.8047 647.9074,-166.4588 662.2964,-144 688.1017,-103.7224 699.4276,-93.2241 742.2964,-72 785.0659,-50.8251 920.4318,-31.4985 988.4602,-22.8212"/>
<polygon fill="#000000" stroke="#000000" points="989.2917,-26.2442 998.7756,-21.5214 988.4165,-19.2991 989.2917,-26.2442"/>
</g>
<!-- ode1d_other&#45;&gt;ode1d -->
<g id="edge60" class="edge">
<title>ode1d_other&#45;&gt;ode1d</title>
<path fill="none" stroke="#000000" d="M681.5373,-224.3645C751.0858,-210.1789 879.9077,-183.9036 945.9305,-170.4372"/>
<polygon fill="#000000" stroke="#000000" points="946.8701,-173.8177 955.9688,-168.3898 945.471,-166.959 946.8701,-173.8177"/>
</g>
<!-- ode1d_other&#45;&gt;utils -->
<g id="edge62" class="edge">
<title>ode1d_other&#45;&gt;utils</title>
<path fill="none" stroke="#000000" d="M642.7969,-216.0072C653.7989,-194.9078 675.0812,-160.6991 704.2964,-144 768.7764,-107.144 994.2011,-94.7617 1083.9842,-91.2322"/>
<polygon fill="#000000" stroke="#000000" points="1084.3804,-94.7198 1094.2411,-90.8446 1084.116,-87.7248 1084.3804,-94.7198"/>
</g>
<!-- dft_data&#45;&gt;types -->
<g id="edge30" class="edge">
<title>dft_data&#45;&gt;types</title>
<path fill="none" stroke="#000000" d="M40.2359,-215.9826C41.2039,-181.5817 48.7468,-106.8719 94.2964,-72 130.2967,-44.4389 814.2042,-23.8712 988.2645,-19.0683"/>
<polygon fill="#000000" stroke="#000000" points="988.3833,-22.5664 998.2837,-18.7937 988.1915,-15.5691 988.3833,-22.5664"/>
</g>
<!-- mixings&#45;&gt;constants -->
<g id="edge75" class="edge">
<title>mixings&#45;&gt;constants</title>
<path fill="none" stroke="#000000" d="M238.395,-288.0983C244.2807,-269.1889 255.1353,-238.9876 270.2964,-216 277.5288,-205.0342 287.198,-194.3957 296.2968,-185.502"/>
<polygon fill="#000000" stroke="#000000" points="298.8725,-187.8836 303.7395,-178.4728 294.0661,-182.7945 298.8725,-187.8836"/>
</g>
<!-- mixings&#45;&gt;types -->
<g id="edge78" class="edge">
<title>mixings&#45;&gt;types</title>
<path fill="none" stroke="#000000" d="M197.0341,-297.9712C172.6903,-290.4917 142.4051,-276.653 127.2964,-252 118.936,-238.3581 121.6395,-230.9666 127.2964,-216 157.4673,-136.1771 177.7887,-109.7962 254.2964,-72 320.3416,-39.3725 838.6581,-23.0764 988.0979,-19.0248"/>
<polygon fill="#000000" stroke="#000000" points="988.306,-22.5206 998.2088,-18.7542 988.1187,-15.5231 988.306,-22.5206"/>
</g>
<!-- mixings&#45;&gt;ode1d -->
<g id="edge77" class="edge">
<title>mixings&#45;&gt;ode1d</title>
<path fill="none" stroke="#000000" d="M269.1496,-297.6571C312.294,-287.4842 386.8557,-269.4779 450.2964,-252 503.5678,-237.3237 515.2672,-227.5793 569.2964,-216 704.4264,-187.0396 867.6827,-171.4192 944.0144,-165.2182"/>
<polygon fill="#000000" stroke="#000000" points="944.5065,-168.6901 954.1963,-164.4053 943.9494,-161.7123 944.5065,-168.6901"/>
</g>
<!-- mixings&#45;&gt;utils -->
<g id="edge79" class="edge">
<title>mixings&#45;&gt;utils</title>
<path fill="none" stroke="#000000" d="M262.1866,-293.3056C303.5462,-275.2955 382.1686,-241.6651 450.2964,-216 543.4159,-180.9201 565.2361,-165.9345 662.2964,-144 816.4636,-109.1601 1005.1442,-95.9641 1083.9435,-91.7316"/>
<polygon fill="#000000" stroke="#000000" points="1084.5133,-95.2068 1094.3182,-91.1925 1084.15,-88.2162 1084.5133,-95.2068"/>
</g>
<!-- mixings&#45;&gt;dft_data -->
<g id="edge76" class="edge">
<title>mixings&#45;&gt;dft_data</title>
<path fill="none" stroke="#000000" d="M202.2876,-294.432C169.3669,-282.1506 117.1921,-262.6865 80.9872,-249.18"/>
<polygon fill="#000000" stroke="#000000" points="81.8209,-245.7554 71.2283,-245.5393 79.3742,-252.3139 81.8209,-245.7554"/>
</g>
<!-- lapack -->
<g id="node19" class="node">
<title>lapack</title>
<ellipse fill="none" stroke="#000000" cx="1788.2964" cy="-90" rx="34.394" ry="18"/>
<text text-anchor="middle" x="1788.2964" y="-86.3" font-family="Times,serif" font-size="14.00" fill="#000000">lapack</text>
</g>
<!-- rschroed_other -->
<g id="node20" class="node">
<title>rschroed_other</title>
<ellipse fill="none" stroke="#000000" cx="656.2964" cy="-306" rx="64.9885" ry="18"/>
<text text-anchor="middle" x="656.2964" y="-302.3" font-family="Times,serif" font-size="14.00" fill="#000000">rschroed_other</text>
</g>
<!-- rschroed_other&#45;&gt;types -->
<g id="edge47" class="edge">
<title>rschroed_other&#45;&gt;types</title>
<path fill="none" stroke="#000000" d="M616.1455,-291.604C598.4487,-283.0176 579.4075,-270.1762 569.2964,-252 561.5184,-238.0178 563.9748,-231.0891 569.2964,-216 596.6304,-138.4963 614.1578,-113.1494 685.2964,-72 736.2967,-42.4995 909.3943,-26.5663 988.3948,-20.6812"/>
<polygon fill="#000000" stroke="#000000" points="988.7278,-24.1663 998.4471,-19.9489 988.2192,-17.1848 988.7278,-24.1663"/>
</g>
<!-- rschroed_other&#45;&gt;ode1d -->
<g id="edge45" class="edge">
<title>rschroed_other&#45;&gt;ode1d</title>
<path fill="none" stroke="#000000" d="M704.2437,-293.649C756.3288,-280.0306 833.8178,-259.1058 846.2964,-252 866.5129,-240.488 865.3705,-229.5293 884.2964,-216 905.424,-200.8968 931.3239,-187.338 951.8663,-177.5847"/>
<polygon fill="#000000" stroke="#000000" points="953.5953,-180.6405 961.183,-173.246 950.6402,-174.2948 953.5953,-180.6405"/>
</g>
<!-- rschroed_other&#45;&gt;utils -->
<g id="edge48" class="edge">
<title>rschroed_other&#45;&gt;utils</title>
<path fill="none" stroke="#000000" d="M676.4079,-288.7672C716.0023,-255.7242 807.9931,-183.2597 897.2964,-144 959.9785,-116.4436 1038.9796,-101.5958 1084.4549,-94.7814"/>
<polygon fill="#000000" stroke="#000000" points="1085.0535,-98.2313 1094.448,-93.333 1084.0493,-91.3037 1085.0535,-98.2313"/>
</g>
<!-- rschroed_other&#45;&gt;ode1d_other -->
<g id="edge46" class="edge">
<title>rschroed_other&#45;&gt;ode1d_other</title>
<path fill="none" stroke="#000000" d="M650.7449,-287.8314C648.3661,-280.0463 645.5326,-270.7729 642.8931,-262.1347"/>
<polygon fill="#000000" stroke="#000000" points="646.1922,-260.954 639.9227,-252.4133 639.4977,-262.9996 646.1922,-260.954"/>
</g>
<!-- c_dftatom -->
<g id="node21" class="node">
<title>c_dftatom</title>
<ellipse fill="none" stroke="#000000" cx="222.2964" cy="-594" rx="47.3916" ry="18"/>
<text text-anchor="middle" x="222.2964" y="-590.3" font-family="Times,serif" font-size="14.00" fill="#000000">c_dftatom</text>
</g>
<!-- c_dftatom&#45;&gt;dftatom -->
<g id="edge70" class="edge">
<title>c_dftatom&#45;&gt;dftatom</title>
<path fill="none" stroke="#000000" d="M268.7755,-590.1798C419.7037,-577.7747 895.2026,-538.6926 1049.4585,-526.0141"/>
<polygon fill="#000000" stroke="#000000" points="1049.8953,-529.4901 1059.5749,-525.1826 1049.3218,-522.5136 1049.8953,-529.4901"/>
</g>
<!-- c_dftatom&#45;&gt;dft -->
<g id="edge68" class="edge">
<title>c_dftatom&#45;&gt;dft</title>
<path fill="none" stroke="#000000" d="M246.2223,-578.2918C305.5568,-539.3367 459.2704,-438.4183 522.9848,-396.5876"/>
<polygon fill="#000000" stroke="#000000" points="525.2718,-399.273 531.7103,-390.859 521.43,-393.4215 525.2718,-399.273"/>
</g>
<!-- c_dftatom&#45;&gt;dft_data -->
<g id="edge69" class="edge">
<title>c_dftatom&#45;&gt;dft_data</title>
<path fill="none" stroke="#000000" d="M180.7549,-585.1565C119.8042,-569.4655 13.2964,-530.5258 13.2964,-450 13.2964,-450 13.2964,-450 13.2964,-378 13.2964,-336.9969 24.0025,-290.534 31.9314,-261.7459"/>
<polygon fill="#000000" stroke="#000000" points="35.3391,-262.558 34.702,-251.9823 28.605,-260.647 35.3391,-262.558"/>
</g>
<!-- c_dftatom&#45;&gt;mixings -->
<g id="edge71" class="edge">
<title>c_dftatom&#45;&gt;mixings</title>
<path fill="none" stroke="#000000" d="M222.9845,-575.9843C224.8442,-527.2939 229.9813,-392.7961 232.2248,-334.0573"/>
<polygon fill="#000000" stroke="#000000" points="235.7243,-334.1352 232.6086,-324.0089 228.7294,-333.868 235.7243,-334.1352"/>
</g>
<!-- interpolation -->
<g id="node22" class="node">
<title>interpolation</title>
<ellipse fill="none" stroke="#000000" cx="1773.2964" cy="-162" rx="57.3905" ry="18"/>
<text text-anchor="middle" x="1773.2964" y="-158.3" font-family="Times,serif" font-size="14.00" fill="#000000">interpolation</text>
</g>
<!-- interpolation&#45;&gt;types -->
<g id="edge73" class="edge">
<title>interpolation&#45;&gt;types</title>
<path fill="none" stroke="#000000" d="M1764.9358,-144.1339C1753.9006,-122.8203 1732.3014,-88.0586 1702.2964,-72 1646.3765,-42.0718 1204.512,-24.1894 1068.1994,-19.3442"/>
<polygon fill="#000000" stroke="#000000" points="1068.2968,-15.8456 1058.1801,-18.9921 1068.0509,-22.8413 1068.2968,-15.8456"/>
</g>
<!-- interpolation&#45;&gt;utils -->
<g id="edge74" class="edge">
<title>interpolation&#45;&gt;utils</title>
<path fill="none" stroke="#000000" d="M1719.1076,-156.016C1590.1685,-141.7773 1267.7346,-106.1711 1158.3036,-94.0867"/>
<polygon fill="#000000" stroke="#000000" points="1158.4189,-90.5782 1148.0951,-92.9594 1157.6505,-97.5359 1158.4189,-90.5782"/>
</g>
<!-- interpolation&#45;&gt;lapack -->
<g id="edge72" class="edge">
<title>interpolation&#45;&gt;lapack</title>
<path fill="none" stroke="#000000" d="M1777.0816,-143.8314C1778.7284,-135.9266 1780.6949,-126.4872 1782.518,-117.7365"/>
<polygon fill="#000000" stroke="#000000" points="1785.9513,-118.4171 1784.5645,-107.9134 1779.0984,-116.9894 1785.9513,-118.4171"/>
</g>
<!-- rdirac_other -->
<g id="node23" class="node">
<title>rdirac_other</title>
<ellipse fill="none" stroke="#000000" cx="794.2964" cy="-306" rx="55.4913" ry="18"/>
<text text-anchor="middle" x="794.2964" y="-302.3" font-family="Times,serif" font-size="14.00" fill="#000000">rdirac_other</text>
</g>
<!-- rdirac_other&#45;&gt;types -->
<g id="edge82" class="edge">
<title>rdirac_other&#45;&gt;types</title>
<path fill="none" stroke="#000000" d="M799.3894,-287.8215C805.1611,-268.9503 815.7003,-239.0259 830.2964,-216 878.1439,-140.5189 959.376,-71.3409 1001.3717,-38.3371"/>
<polygon fill="#000000" stroke="#000000" points="1003.7232,-40.9422 1009.4689,-32.0407 999.4262,-35.4163 1003.7232,-40.9422"/>
</g>
<!-- rdirac_other&#45;&gt;ode1d -->
<g id="edge80" class="edge">
<title>rdirac_other&#45;&gt;ode1d</title>
<path fill="none" stroke="#000000" d="M823.0921,-290.4596C841.1769,-280.2819 864.7037,-266.2638 884.2964,-252 912.939,-231.1478 943.18,-204.0323 963.4278,-185.0363"/>
<polygon fill="#000000" stroke="#000000" points="966.0761,-187.349 970.9358,-177.9344 961.2658,-182.2636 966.0761,-187.349"/>
</g>
<!-- rdirac_other&#45;&gt;utils -->
<g id="edge83" class="edge">
<title>rdirac_other&#45;&gt;utils</title>
<path fill="none" stroke="#000000" d="M805.9782,-288.289C828.7899,-255.0763 882.5541,-183.2589 945.2964,-144 989.0086,-116.6486 1047.5251,-102.3247 1084.826,-95.4711"/>
<polygon fill="#000000" stroke="#000000" points="1085.5083,-98.9049 1094.7542,-93.7315 1084.3002,-92.0099 1085.5083,-98.9049"/>
</g>
<!-- rdirac_other&#45;&gt;ode1d_other -->
<g id="edge81" class="edge">
<title>rdirac_other&#45;&gt;ode1d_other</title>
<path fill="none" stroke="#000000" d="M761.5319,-291.256C736.9412,-280.1902 703.0736,-264.9497 676.4623,-252.9747"/>
<polygon fill="#000000" stroke="#000000" points="677.5726,-249.6363 667.0171,-248.7243 674.7,-256.0197 677.5726,-249.6363"/>
</g>
</g>
</svg>
