<svg xmlns="http://www.w3.org/2000/svg" xmlns:xlink="http://www.w3.org/1999/xlink" width="1867pt" height="620pt" viewBox="0 0 1866.69 620"><g id="graph0" class="graph" transform="scale(1 1) rotate(0) translate(4 616)"><title>src.dot</title><polygon fill="#fff" stroke="transparent" points="-4 4 -4 -616 1862.688 -616 1862.688 4 -4 4"/><g id="node1" class="node"><title>constants</title><ellipse cx="323.296" cy="-162" fill="none" stroke="#000" rx="44.693" ry="18"/><text x="323.296" y="-158.3" fill="#000" font-family="Times,serif" font-size="14" text-anchor="middle">constants</text></g><g id="node2" class="node"><title>types</title><ellipse cx="1028.296" cy="-18" fill="none" stroke="#000" rx="29.795" ry="18"/><text x="1028.296" y="-14.3" fill="#000" font-family="Times,serif" font-size="14" text-anchor="middle">types</text></g><g id="edge1" class="edge"><title>constants-&gt;types</title><path fill="none" stroke="#000" d="M329.9466,-143.8401C338.7883,-122.576 356.6002,-88.2053 384.2964,-72 436.3305,-41.5544 854.9315,-24.1679 987.9062,-19.3728"/><polygon fill="#000" stroke="#000" points="988.199 -22.865 998.068 -19.011 987.95 -15.869 988.199 -22.865"/></g><g id="node3" class="node"><title>reigen</title><ellipse cx="1260.296" cy="-306" fill="none" stroke="#000" rx="33.295" ry="18"/><text x="1260.296" y="-302.3" fill="#000" font-family="Times,serif" font-size="14" text-anchor="middle">reigen</text></g><g id="edge5" class="edge"><title>reigen-&gt;types</title><path fill="none" stroke="#000" d="M1293.0654,-303.2629C1353.3736,-296.7378 1473.0133,-276.0447 1441.2964,-216 1366.9758,-75.2999 1156.4823,-33.5815 1068.1226,-22.0722"/><polygon fill="#000" stroke="#000" points="1068.324 -18.571 1057.97 -20.814 1067.463 -25.517 1068.324 -18.571"/></g><g id="node4" class="node"><title>ode1d</title><ellipse cx="987.296" cy="-162" fill="none" stroke="#000" rx="33.295" ry="18"/><text x="987.296" y="-158.3" fill="#000" font-family="Times,serif" font-size="14" text-anchor="middle">ode1d</text></g><g id="edge2" class="edge"><title>reigen-&gt;ode1d</title><path fill="none" stroke="#000" d="M1243.6815,-290.3877C1222.0328,-270.7441 1182.3206,-237.0396 1143.2964,-216 1106.1918,-195.9953 1060.2285,-181.1524 1027.8338,-172.1435"/><polygon fill="#000" stroke="#000" points="1028.389 -168.668 1017.821 -169.424 1026.554 -175.423 1028.389 -168.668"/></g><g id="node5" class="node"><title>rdirac</title><ellipse cx="1260.296" cy="-234" fill="none" stroke="#000" rx="31.695" ry="18"/><text x="1260.296" y="-230.3" fill="#000" font-family="Times,serif" font-size="14" text-anchor="middle">rdirac</text></g><g id="edge3" class="edge"><title>reigen-&gt;rdirac</title><path fill="none" stroke="#000" d="M1260.2964,-287.8314C1260.2964,-280.131 1260.2964,-270.9743 1260.2964,-262.4166"/><polygon fill="#000" stroke="#000" points="1263.796 -262.413 1260.296 -252.413 1256.796 -262.413 1263.796 -262.413"/></g><g id="node6" class="node"><title>rschroed</title><ellipse cx="1390.296" cy="-234" fill="none" stroke="#000" rx="42.494" ry="18"/><text x="1390.296" y="-230.3" fill="#000" font-family="Times,serif" font-size="14" text-anchor="middle">rschroed</text></g><g id="edge4" class="edge"><title>reigen-&gt;rschroed</title><path fill="none" stroke="#000" d="M1283.5378,-293.1278C1303.4363,-282.1071 1332.3891,-266.0717 1355.1248,-253.4796"/><polygon fill="#000" stroke="#000" points="1357.076 -256.4 1364.128 -248.493 1353.685 -250.276 1357.076 -256.4"/></g><g id="node7" class="node"><title>utils</title><ellipse cx="1121.296" cy="-90" fill="none" stroke="#000" rx="27" ry="18"/><text x="1121.296" y="-86.3" fill="#000" font-family="Times,serif" font-size="14" text-anchor="middle">utils</text></g><g id="edge6" class="edge"><title>reigen-&gt;utils</title><path fill="none" stroke="#000" d="M1276.614,-289.9267C1292.9286,-271.8124 1313.9136,-241.5573 1301.2964,-216 1271.7664,-156.1841 1198.5845,-119.293 1155.1696,-101.919"/><polygon fill="#000" stroke="#000" points="1156.19 -98.561 1145.601 -98.213 1153.661 -105.088 1156.19 -98.561"/></g><g id="edge31" class="edge"><title>ode1d-&gt;types</title><path fill="none" stroke="#000" d="M992.4062,-144.0535C999.4036,-119.4774 1012.0386,-75.1008 1020.2965,-46.0974"/><polygon fill="#000" stroke="#000" points="1023.75 -46.749 1023.122 -36.173 1017.018 -44.832 1023.75 -46.749"/></g><g id="edge32" class="edge"><title>ode1d-&gt;utils</title><path fill="none" stroke="#000" d="M1010.9445,-149.2936C1033.2312,-137.3186 1066.7332,-119.3176 1090.975,-106.2921"/><polygon fill="#000" stroke="#000" points="1092.939 -109.21 1100.091 -101.394 1089.626 -103.044 1092.939 -109.21"/></g><g id="edge64" class="edge"><title>rdirac-&gt;types</title><path fill="none" stroke="#000" d="M1253.5312,-216.2331C1240.11,-183.2465 1207.0486,-112.243 1157.2964,-72 1130.3131,-50.174 1093.243,-35.8859 1065.7637,-27.5227"/><polygon fill="#000" stroke="#000" points="1066.69 -24.147 1056.11 -24.707 1064.73 -30.867 1066.69 -24.147"/></g><g id="edge63" class="edge"><title>rdirac-&gt;ode1d</title><path fill="none" stroke="#000" d="M1234.2496,-223.08C1227.7915,-220.575 1220.844,-218.0488 1214.2964,-216 1150.4984,-196.0364 1074.627,-179.3722 1028.7566,-170.0489"/><polygon fill="#000" stroke="#000" points="1029.376 -166.603 1018.882 -168.061 1027.995 -173.466 1029.376 -166.603"/></g><g id="edge65" class="edge"><title>rdirac-&gt;utils</title><path fill="none" stroke="#000" d="M1245.634,-217.8695C1229.0314,-199.704 1201.0649,-169.4031 1176.2964,-144 1165.8745,-133.3111 1154.0909,-121.6831 1144.1117,-111.9645"/><polygon fill="#000" stroke="#000" points="1146.499 -109.404 1136.885 -104.952 1141.624 -114.428 1146.499 -109.404"/></g><g id="edge53" class="edge"><title>rschroed-&gt;types</title><path fill="none" stroke="#000" d="M1373.6999,-217.214C1340.9633,-184.9443 1264.6041,-113.7586 1188.2964,-72 1166.8399,-60.2581 1105.3801,-40.8817 1065.1804,-28.8114"/><polygon fill="#000" stroke="#000" points="1066.039 -25.415 1055.455 -25.909 1064.037 -32.123 1066.039 -25.415"/></g><g id="edge52" class="edge"><title>rschroed-&gt;ode1d</title><path fill="none" stroke="#000" d="M1352.2316,-226.0468C1336.4864,-222.8234 1318.0315,-219.1306 1301.2964,-216 1204.155,-197.8278 1089.6638,-178.7186 1029.3548,-168.8315"/><polygon fill="#000" stroke="#000" points="1029.88 -165.371 1019.446 -167.21 1028.749 -172.279 1029.88 -165.371"/></g><g id="edge54" class="edge"><title>rschroed-&gt;utils</title><path fill="none" stroke="#000" d="M1381.5824,-216.2911C1370.5843,-195.7959 1349.74,-162.4986 1322.2964,-144 1271.9193,-110.0427 1201.0115,-97.3969 1158.2725,-92.7165"/><polygon fill="#000" stroke="#000" points="1158.602 -89.232 1148.302 -91.714 1157.902 -96.197 1158.602 -89.232"/></g><g id="edge44" class="edge"><title>utils-&gt;types</title><path fill="none" stroke="#000" d="M1103.3651,-76.1177C1089.6482,-65.4981 1070.5162,-50.6863 1055,-38.6738"/><polygon fill="#000" stroke="#000" points="1056.859 -35.687 1046.809 -32.333 1052.574 -41.222 1056.859 -35.687"/></g><g id="node8" class="node"><title>dftatom</title><ellipse cx="1098.296" cy="-522" fill="none" stroke="#000" rx="38.993" ry="18"/><text x="1098.296" y="-518.3" fill="#000" font-family="Times,serif" font-size="14" text-anchor="middle">dftatom</text></g><g id="edge15" class="edge"><title>dftatom-&gt;types</title><path fill="none" stroke="#000" d="M1136.7674,-518.8441C1291.2621,-505.6651 1858.2964,-452.2383 1858.2964,-378 1858.2964,-378 1858.2964,-378 1858.2964,-162 1858.2964,-120.2388 1863.9455,-98.0392 1831.2964,-72 1801.1968,-47.9941 1227.5495,-25.2917 1068.7419,-19.4471"/><polygon fill="#000" stroke="#000" points="1068.585 -15.939 1058.464 -19.071 1068.329 -22.934 1068.585 -15.939"/></g><g id="edge12" class="edge"><title>dftatom-&gt;reigen</title><path fill="none" stroke="#000" d="M1111.2797,-504.6889C1139.8578,-466.5848 1208.3005,-375.3279 1241.5426,-331.0052"/><polygon fill="#000" stroke="#000" points="1244.499 -332.896 1247.699 -322.796 1238.899 -328.696 1244.499 -332.896"/></g><g id="edge11" class="edge"><title>dftatom-&gt;ode1d</title><path fill="none" stroke="#000" d="M1092.7919,-504.1475C1074.8168,-445.8498 1017.7451,-260.7526 995.9085,-189.931"/><polygon fill="#000" stroke="#000" points="999.125 -188.485 992.834 -179.96 992.436 -190.548 999.125 -188.485"/></g><g id="edge16" class="edge"><title>dftatom-&gt;utils</title><path fill="none" stroke="#000" d="M1136.8463,-518.6976C1250.1655,-507.9387 1574.2964,-469.1941 1574.2964,-378 1574.2964,-378 1574.2964,-378 1574.2964,-306 1574.2964,-210.2555 1515.7864,-190.8661 1432.2964,-144 1385.8386,-117.9215 1230.5448,-100.3062 1158.5417,-93.3422"/><polygon fill="#000" stroke="#000" points="1158.832 -89.854 1148.545 -92.392 1158.17 -96.823 1158.832 -89.854"/></g><g id="node9" class="node"><title>dft</title><ellipse cx="551.296" cy="-378" fill="none" stroke="#000" rx="27" ry="18"/><text x="551.296" y="-374.3" fill="#000" font-family="Times,serif" font-size="14" text-anchor="middle">dft</text></g><g id="edge7" class="edge"><title>dftatom-&gt;dft</title><path fill="none" stroke="#000" d="M1064.0791,-512.9922C966.1534,-487.2128 685.4858,-413.3259 586.4301,-387.2491"/><polygon fill="#000" stroke="#000" points="587.174 -383.826 576.612 -384.664 585.391 -390.595 587.174 -383.826"/></g><g id="node10" class="node"><title>drivers</title><ellipse cx="619.296" cy="-450" fill="none" stroke="#000" rx="35.995" ry="18"/><text x="619.296" y="-446.3" fill="#000" font-family="Times,serif" font-size="14" text-anchor="middle">drivers</text></g><g id="edge8" class="edge"><title>dftatom-&gt;drivers</title><path fill="none" stroke="#000" d="M1061.1337,-516.4772C995.6809,-506.7422 855.5672,-485.8663 737.2964,-468 712.9738,-464.3258 685.8374,-460.1889 663.7257,-456.8084"/><polygon fill="#000" stroke="#000" points="664.044 -453.316 653.629 -455.264 662.985 -460.236 664.044 -453.316"/></g><g id="node11" class="node"><title>energies</title><ellipse cx="177.296" cy="-234" fill="none" stroke="#000" rx="40.893" ry="18"/><text x="177.296" y="-230.3" fill="#000" font-family="Times,serif" font-size="14" text-anchor="middle">energies</text></g><g id="edge9" class="edge"><title>dftatom-&gt;energies</title><path fill="none" stroke="#000" d="M1059.2935,-521.4148C905.696,-518.3832 344.2905,-500.2379 207.2964,-396 167.0308,-365.3621 168.4984,-338.519 171.2964,-288 171.7534,-279.7487 172.6003,-270.8207 173.5168,-262.6455"/><polygon fill="#000" stroke="#000" points="177.024 -262.797 174.735 -252.452 170.073 -261.966 177.024 -262.797"/></g><g id="node12" class="node"><title>mesh</title><ellipse cx="1452.296" cy="-378" fill="none" stroke="#000" rx="29.795" ry="18"/><text x="1452.296" y="-374.3" fill="#000" font-family="Times,serif" font-size="14" text-anchor="middle">mesh</text></g><g id="edge10" class="edge"><title>dftatom-&gt;mesh</title><path fill="none" stroke="#000" d="M1130.8064,-511.8403C1162.794,-501.6051 1212.8676,-484.942 1255.2964,-468 1314.2084,-444.4762 1381.0273,-412.8717 1419.7477,-394.0527"/><polygon fill="#000" stroke="#000" points="1421.512 -397.087 1428.965 -389.556 1418.442 -390.795 1421.512 -397.087"/></g><g id="node13" class="node"><title>rpoisson</title><ellipse cx="1092.296" cy="-234" fill="none" stroke="#000" rx="41.693" ry="18"/><text x="1092.296" y="-230.3" fill="#000" font-family="Times,serif" font-size="14" text-anchor="middle">rpoisson</text></g><g id="edge13" class="edge"><title>dftatom-&gt;rpoisson</title><path fill="none" stroke="#000" d="M1097.9211,-503.9843C1096.9067,-455.2939 1094.1047,-320.7961 1092.881,-262.0573"/><polygon fill="#000" stroke="#000" points="1096.379 -261.934 1092.672 -252.009 1089.381 -262.08 1096.379 -261.934"/></g><g id="node14" class="node"><title>states</title><ellipse cx="1350.296" cy="-378" fill="none" stroke="#000" rx="31.396" ry="18"/><text x="1350.296" y="-374.3" fill="#000" font-family="Times,serif" font-size="14" text-anchor="middle">states</text></g><g id="edge14" class="edge"><title>dftatom-&gt;states</title><path fill="none" stroke="#000" d="M1126.9434,-509.727C1150.329,-499.402 1184.0115,-483.8266 1212.2964,-468 1251.4877,-446.0709 1294.5149,-417.1869 1321.931,-398.1278"/><polygon fill="#000" stroke="#000" points="1324.068 -400.904 1330.259 -392.306 1320.058 -395.167 1324.068 -400.904"/></g><g id="edge21" class="edge"><title>dft-&gt;constants</title><path fill="none" stroke="#000" d="M524.5788,-374.6243C491.8865,-369.2208 436.5469,-355.7892 401.2964,-324 360.8927,-287.5635 339.3496,-225.6479 329.7138,-189.8375"/><polygon fill="#000" stroke="#000" points="333.077 -188.862 327.202 -180.045 326.296 -190.601 333.077 -188.862"/></g><g id="edge28" class="edge"><title>dft-&gt;types</title><path fill="none" stroke="#000" d="M524.7421,-374.1162C496.7848,-368.4564 454.1306,-354.999 434.2964,-324 425.6732,-310.5226 429.5147,-303.2688 434.2964,-288 469.2261,-176.4636 484.1948,-132.3334 584.2964,-72 651.8444,-31.2874 891.7527,-21.185 987.9562,-18.7488"/><polygon fill="#000" stroke="#000" points="988.239 -22.243 998.153 -18.506 988.072 -15.245 988.239 -22.243"/></g><g id="edge26" class="edge"><title>dft-&gt;reigen</title><path fill="none" stroke="#000" d="M578.5465,-376.8628C665.8941,-372.9581 946.6043,-358.395 1176.2964,-324 1190.5186,-321.8703 1205.9438,-318.7914 1219.6482,-315.7804"/><polygon fill="#000" stroke="#000" points="1220.757 -319.118 1229.744 -313.508 1219.22 -312.289 1220.757 -319.118"/></g><g id="edge25" class="edge"><title>dft-&gt;ode1d</title><path fill="none" stroke="#000" d="M578.2113,-375.5982C643.8545,-369.3745 810.3115,-351.2836 858.2964,-324 914.0985,-292.2717 954.8119,-226 974.3402,-188.8022"/><polygon fill="#000" stroke="#000" points="977.624 -190.069 979.063 -179.572 971.392 -186.88 977.624 -190.069"/></g><g id="edge29" class="edge"><title>dft-&gt;utils</title><path fill="none" stroke="#000" d="M578.4095,-376.103C663.7761,-369.9249 926.1518,-349.3132 1007.2964,-324 1072.5858,-303.6328 1108.0192,-310.5922 1143.2964,-252 1168.7469,-209.7291 1149.4878,-150.1651 1134.5043,-116.2863"/><polygon fill="#000" stroke="#000" points="1137.608 -114.659 1130.239 -107.046 1131.252 -117.592 1137.608 -114.659"/></g><g id="edge23" class="edge"><title>dft-&gt;energies</title><path fill="none" stroke="#000" d="M525.6061,-372.1013C488.9792,-363.3604 419.9154,-345.6472 363.2964,-324 334.1254,-312.847 258.5938,-275.2323 213.2589,-252.3103"/><polygon fill="#000" stroke="#000" points="214.573 -249.053 204.071 -247.657 211.411 -255.298 214.573 -249.053"/></g><g id="edge27" class="edge"><title>dft-&gt;rpoisson</title><path fill="none" stroke="#000" d="M578.2232,-376.0802C657.6314,-370.1626 889.7076,-350.961 960.2964,-324 1000.9785,-308.4617 1041.411,-278.1294 1066.5974,-256.9946"/><polygon fill="#000" stroke="#000" points="1068.888 -259.641 1074.22 -250.486 1064.342 -254.318 1068.888 -259.641"/></g><g id="node17" class="node"><title>dft_data</title><ellipse cx="40.296" cy="-234" fill="none" stroke="#000" rx="40.094" ry="18"/><text x="40.296" y="-230.3" fill="#000" font-family="Times,serif" font-size="14" text-anchor="middle">dft_data</text></g><g id="edge22" class="edge"><title>dft-&gt;dft_data</title><path fill="none" stroke="#000" d="M524.3238,-375.4801C450.6354,-368.3671 247.2346,-347.1416 184.2964,-324 140.4135,-307.8648 95.6365,-277.1803 67.915,-256.1659"/><polygon fill="#000" stroke="#000" points="69.939 -253.307 59.879 -249.981 65.669 -258.854 69.939 -253.307"/></g><g id="node18" class="node"><title>mixings</title><ellipse cx="233.296" cy="-306" fill="none" stroke="#000" rx="40.094" ry="18"/><text x="233.296" y="-302.3" fill="#000" font-family="Times,serif" font-size="14" text-anchor="middle">mixings</text></g><g id="edge24" class="edge"><title>dft-&gt;mixings</title><path fill="none" stroke="#000" d="M524.8226,-373.6696C476.9897,-365.6058 373.1551,-347.0018 287.2964,-324 283.2157,-322.9068 278.992,-321.6767 274.7869,-320.386"/><polygon fill="#000" stroke="#000" points="275.675 -316.996 265.085 -317.3 273.553 -323.666 275.675 -316.996"/></g><g id="edge33" class="edge"><title>drivers-&gt;constants</title><path fill="none" stroke="#000" d="M587.6777,-441.3308C535.9763,-425.7234 432.76,-388.382 369.2964,-324 333.6767,-287.8648 325.2112,-226.2723 323.453,-190.3451"/><polygon fill="#000" stroke="#000" points="326.942 -189.95 323.1 -180.076 319.946 -190.19 326.942 -189.95"/></g><g id="edge41" class="edge"><title>drivers-&gt;types</title><path fill="none" stroke="#000" d="M655.0253,-447.8549C803.5744,-438.0682 1368.7635,-391.9318 1458.2964,-252 1513.3629,-165.9361 1409.2983,-112.0368 1315.2964,-72 1232.0816,-36.5575 1125.4734,-24.2888 1068.4862,-20.1074"/><polygon fill="#000" stroke="#000" points="1068.656 -16.611 1058.44 -19.417 1068.176 -23.595 1068.656 -16.611"/></g><g id="edge39" class="edge"><title>drivers-&gt;ode1d</title><path fill="none" stroke="#000" d="M649.9917,-440.5161C703.3022,-423.1011 814.983,-382.3803 895.2964,-324 930.4099,-298.4758 940.0444,-289.8523 961.2964,-252 972.1294,-232.7052 978.7915,-208.4986 982.6563,-190.0509"/><polygon fill="#000" stroke="#000" points="986.099 -190.684 984.572 -180.199 979.227 -189.348 986.099 -190.684"/></g><g id="edge34" class="edge"><title>drivers-&gt;dft</title><path fill="none" stroke="#000" d="M603.8662,-433.6621C594.6589,-423.9132 582.8307,-411.3892 572.7264,-400.6906"/><polygon fill="#000" stroke="#000" points="575.146 -398.156 565.736 -393.289 570.057 -402.962 575.146 -398.156"/></g><g id="edge36" class="edge"><title>drivers-&gt;energies</title><path fill="none" stroke="#000" d="M584.0996,-446.8056C507.7963,-439.5089 329.5674,-420.3518 274.2964,-396 227.4196,-375.3465 208.2612,-369.2735 184.2964,-324 174.306,-305.1265 172.9675,-280.8473 173.901,-262.2637"/><polygon fill="#000" stroke="#000" points="177.408 -262.298 174.665 -252.064 170.428 -261.775 177.408 -262.298"/></g><g id="edge37" class="edge"><title>drivers-&gt;mesh</title><path fill="none" stroke="#000" d="M655.2435,-448.4984C787.4006,-442.8199 1246.1384,-421.6727 1390.2964,-396 1398.8621,-394.4746 1407.9337,-392.2192 1416.4169,-389.8169"/><polygon fill="#000" stroke="#000" points="1417.447 -393.162 1426.039 -386.964 1415.457 -386.451 1417.447 -393.162"/></g><g id="edge40" class="edge"><title>drivers-&gt;states</title><path fill="none" stroke="#000" d="M654.5541,-446.5273C776.3314,-434.5328 1178.8906,-394.8827 1309.2023,-382.0476"/><polygon fill="#000" stroke="#000" points="1309.926 -385.493 1319.535 -381.03 1309.24 -378.527 1309.926 -385.493"/></g><g id="edge35" class="edge"><title>drivers-&gt;dft_data</title><path fill="none" stroke="#000" d="M583.6484,-447.6368C496.6315,-441.5012 275.5082,-423.5956 207.2964,-396 139.1779,-368.4421 83.5414,-298.2456 57.0448,-259.925"/><polygon fill="#000" stroke="#000" points="59.749 -257.677 51.243 -251.362 53.954 -261.604 59.749 -257.677"/></g><g id="edge38" class="edge"><title>drivers-&gt;mixings</title><path fill="none" stroke="#000" d="M584.3048,-446.1677C516.5364,-438.3262 370.1075,-419.217 325.2964,-396 295.4794,-380.5515 268.9632,-352.2222 252.1491,-331.4609"/><polygon fill="#000" stroke="#000" points="254.707 -329.052 245.768 -323.364 249.209 -333.385 254.707 -329.052"/></g><g id="edge49" class="edge"><title>energies-&gt;constants</title><path fill="none" stroke="#000" d="M204.7579,-220.4574C227.6105,-209.1876 260.3765,-193.029 285.6702,-180.5554"/><polygon fill="#000" stroke="#000" points="287.541 -183.535 294.962 -175.973 284.445 -177.257 287.541 -183.535"/></g><g id="edge50" class="edge"><title>energies-&gt;types</title><path fill="none" stroke="#000" d="M181.8907,-215.8776C187.6396,-196.2215 199.1322,-164.865 218.2964,-144 262.4494,-95.9286 283.858,-91.0208 346.2964,-72 467.5829,-35.0521 860.9119,-22.1737 988.1723,-18.9158"/><polygon fill="#000" stroke="#000" points="988.353 -22.413 998.262 -18.664 988.178 -15.415 988.353 -22.413"/></g><g id="edge51" class="edge"><title>energies-&gt;utils</title><path fill="none" stroke="#000" d="M188.9018,-216.7106C204.3832,-195.2956 233.9829,-159.7215 269.2964,-144 344.3357,-110.5927 928.285,-94.5509 1083.5091,-90.8501"/><polygon fill="#000" stroke="#000" points="1084.017 -94.339 1093.931 -90.605 1083.852 -87.341 1084.017 -94.339"/></g><g id="edge42" class="edge"><title>mesh-&gt;types</title><path fill="none" stroke="#000" d="M1481.9056,-375.3052C1519.7105,-370.5559 1585.572,-357.7492 1630.2964,-324 1668.2817,-295.3362 1688.2964,-281.5867 1688.2964,-234 1688.2964,-234 1688.2964,-234 1688.2964,-162 1688.2964,-118.9187 1686.8953,-97.6694 1652.2964,-72 1605.473,-37.261 1199.1385,-22.8281 1068.5364,-19.0596"/><polygon fill="#000" stroke="#000" points="1068.285 -15.551 1058.19 -18.767 1068.087 -22.548 1068.285 -15.551"/></g><g id="edge43" class="edge"><title>mesh-&gt;utils</title><path fill="none" stroke="#000" d="M1457.4969,-360.253C1465.5132,-329.6484 1478.1047,-265.4695 1459.2964,-216 1444.081,-175.9803 1432.4651,-165.2503 1395.2964,-144 1355.2258,-121.0906 1223.1928,-102.388 1158.1574,-94.3073"/><polygon fill="#000" stroke="#000" points="1158.297 -90.798 1147.946 -93.058 1157.447 -97.747 1158.297 -90.798"/></g><g id="edge55" class="edge"><title>rpoisson-&gt;constants</title><path fill="none" stroke="#000" d="M1051.4946,-230.1798C922.4696,-218.0994 523.2392,-180.7203 377.3715,-167.0629"/><polygon fill="#000" stroke="#000" points="377.597 -163.569 367.314 -166.121 376.944 -170.538 377.597 -163.569"/></g><g id="edge57" class="edge"><title>rpoisson-&gt;types</title><path fill="none" stroke="#000" d="M1086.9499,-215.9555C1075.7456,-178.1409 1049.7431,-90.3825 1036.4458,-45.5042"/><polygon fill="#000" stroke="#000" points="1039.78 -44.435 1033.583 -35.841 1033.068 -46.424 1039.78 -44.435"/></g><g id="edge56" class="edge"><title>rpoisson-&gt;ode1d</title><path fill="none" stroke="#000" d="M1070.0286,-218.7307C1054.4447,-208.0445 1033.4694,-193.6615 1016.5388,-182.0519"/><polygon fill="#000" stroke="#000" points="1018.331 -179.037 1008.104 -176.268 1014.372 -184.81 1018.331 -179.037"/></g><g id="edge58" class="edge"><title>rpoisson-&gt;utils</title><path fill="none" stroke="#000" d="M1095.9107,-216.0535C1100.86,-191.4774 1109.797,-147.1008 1115.6379,-118.0974"/><polygon fill="#000" stroke="#000" points="1119.093 -118.667 1117.637 -108.173 1112.231 -117.285 1119.093 -118.667"/></g><g id="edge66" class="edge"><title>states-&gt;types</title><path fill="none" stroke="#000" d="M1378.1726,-369.8971C1389.1096,-366.7542 1401.7777,-363.1586 1413.2964,-360 1528.3437,-328.4528 1650.2964,-353.2942 1650.2964,-234 1650.2964,-234 1650.2964,-234 1650.2964,-162 1650.2964,-120.6022 1657.9559,-98.6732 1626.2964,-72 1583.6977,-36.1105 1195.3653,-22.5077 1068.3194,-18.9947"/><polygon fill="#000" stroke="#000" points="1068.329 -15.494 1058.238 -18.722 1068.139 -22.491 1068.329 -15.494"/></g><g id="edge67" class="edge"><title>states-&gt;utils</title><path fill="none" stroke="#000" d="M1369.1951,-363.4142C1402.956,-335.4758 1467.7311,-272.1901 1441.2964,-216 1430.6135,-193.292 1376.7883,-155.1307 1354.2964,-144 1289.7692,-112.0672 1205.7667,-98.6189 1158.2701,-93.2647"/><polygon fill="#000" stroke="#000" points="1158.459 -89.765 1148.144 -92.184 1157.716 -96.726 1158.459 -89.765"/></g><g id="node15" class="node"><title>rpoisson_other</title><ellipse cx="508.296" cy="-306" fill="none" stroke="#000" rx="64.989" ry="18"/><text x="508.296" y="-302.3" fill="#000" font-family="Times,serif" font-size="14" text-anchor="middle">rpoisson_other</text></g><g id="edge17" class="edge"><title>rpoisson_other-&gt;constants</title><path fill="none" stroke="#000" d="M486.348,-288.9158C452.8907,-262.8734 389.1149,-213.2317 352.0154,-184.3543"/><polygon fill="#000" stroke="#000" points="354.121 -181.558 344.08 -178.178 349.822 -187.082 354.121 -181.558"/></g><g id="edge20" class="edge"><title>rpoisson_other-&gt;types</title><path fill="none" stroke="#000" d="M511.2957,-287.7109C519.9341,-241.7017 549.5574,-121.3152 629.2964,-72 688.7819,-35.2108 899.0788,-22.9409 988.0595,-19.337"/><polygon fill="#000" stroke="#000" points="988.435 -22.825 998.291 -18.939 988.163 -15.83 988.435 -22.825"/></g><g id="edge18" class="edge"><title>rpoisson_other-&gt;ode1d</title><path fill="none" stroke="#000" d="M554.7135,-293.2593C593.4548,-282.5338 650.0841,-266.6432 699.2964,-252 789.1039,-225.2777 894.0107,-191.9608 949.0747,-174.3099"/><polygon fill="#000" stroke="#000" points="950.309 -177.59 958.761 -171.202 948.17 -170.924 950.309 -177.59"/></g><g id="node16" class="node"><title>ode1d_other</title><ellipse cx="634.296" cy="-234" fill="none" stroke="#000" rx="55.79" ry="18"/><text x="634.296" y="-230.3" fill="#000" font-family="Times,serif" font-size="14" text-anchor="middle">ode1d_other</text></g><g id="edge19" class="edge"><title>rpoisson_other-&gt;ode1d_other</title><path fill="none" stroke="#000" d="M536.8878,-289.6621C554.9399,-279.3466 578.4293,-265.9241 597.8185,-254.8445"/><polygon fill="#000" stroke="#000" points="599.738 -257.779 606.684 -249.778 596.265 -251.701 599.738 -257.779"/></g><g id="edge59" class="edge"><title>ode1d_other-&gt;constants</title><path fill="none" stroke="#000" d="M588.7413,-223.4535C531.0057,-210.087 431.8696,-187.1359 372.4654,-173.3832"/><polygon fill="#000" stroke="#000" points="373.102 -169.938 362.57 -171.092 371.523 -176.758 373.102 -169.938"/></g><g id="edge61" class="edge"><title>ode1d_other-&gt;types</title><path fill="none" stroke="#000" d="M637.0004,-215.8889C640.4904,-196.8047 647.9074,-166.4588 662.2964,-144 688.1017,-103.7224 699.4276,-93.2241 742.2964,-72 785.0659,-50.8251 920.4318,-31.4985 988.4602,-22.8212"/><polygon fill="#000" stroke="#000" points="989.292 -26.244 998.776 -21.521 988.417 -19.299 989.292 -26.244"/></g><g id="edge60" class="edge"><title>ode1d_other-&gt;ode1d</title><path fill="none" stroke="#000" d="M681.5373,-224.3645C751.0858,-210.1789 879.9077,-183.9036 945.9305,-170.4372"/><polygon fill="#000" stroke="#000" points="946.87 -173.818 955.969 -168.39 945.471 -166.959 946.87 -173.818"/></g><g id="edge62" class="edge"><title>ode1d_other-&gt;utils</title><path fill="none" stroke="#000" d="M642.7969,-216.0072C653.7989,-194.9078 675.0812,-160.6991 704.2964,-144 768.7764,-107.144 994.2011,-94.7617 1083.9842,-91.2322"/><polygon fill="#000" stroke="#000" points="1084.38 -94.72 1094.241 -90.845 1084.116 -87.725 1084.38 -94.72"/></g><g id="edge30" class="edge"><title>dft_data-&gt;types</title><path fill="none" stroke="#000" d="M40.2359,-215.9826C41.2039,-181.5817 48.7468,-106.8719 94.2964,-72 130.2967,-44.4389 814.2042,-23.8712 988.2645,-19.0683"/><polygon fill="#000" stroke="#000" points="988.383 -22.566 998.284 -18.794 988.192 -15.569 988.383 -22.566"/></g><g id="edge75" class="edge"><title>mixings-&gt;constants</title><path fill="none" stroke="#000" d="M238.395,-288.0983C244.2807,-269.1889 255.1353,-238.9876 270.2964,-216 277.5288,-205.0342 287.198,-194.3957 296.2968,-185.502"/><polygon fill="#000" stroke="#000" points="298.873 -187.884 303.74 -178.473 294.066 -182.794 298.873 -187.884"/></g><g id="edge78" class="edge"><title>mixings-&gt;types</title><path fill="none" stroke="#000" d="M197.0341,-297.9712C172.6903,-290.4917 142.4051,-276.653 127.2964,-252 118.936,-238.3581 121.6395,-230.9666 127.2964,-216 157.4673,-136.1771 177.7887,-109.7962 254.2964,-72 320.3416,-39.3725 838.6581,-23.0764 988.0979,-19.0248"/><polygon fill="#000" stroke="#000" points="988.306 -22.521 998.209 -18.754 988.119 -15.523 988.306 -22.521"/></g><g id="edge77" class="edge"><title>mixings-&gt;ode1d</title><path fill="none" stroke="#000" d="M269.1496,-297.6571C312.294,-287.4842 386.8557,-269.4779 450.2964,-252 503.5678,-237.3237 515.2672,-227.5793 569.2964,-216 704.4264,-187.0396 867.6827,-171.4192 944.0144,-165.2182"/><polygon fill="#000" stroke="#000" points="944.506 -168.69 954.196 -164.405 943.949 -161.712 944.506 -168.69"/></g><g id="edge79" class="edge"><title>mixings-&gt;utils</title><path fill="none" stroke="#000" d="M262.1866,-293.3056C303.5462,-275.2955 382.1686,-241.6651 450.2964,-216 543.4159,-180.9201 565.2361,-165.9345 662.2964,-144 816.4636,-109.1601 1005.1442,-95.9641 1083.9435,-91.7316"/><polygon fill="#000" stroke="#000" points="1084.513 -95.207 1094.318 -91.192 1084.15 -88.216 1084.513 -95.207"/></g><g id="edge76" class="edge"><title>mixings-&gt;dft_data</title><path fill="none" stroke="#000" d="M202.2876,-294.432C169.3669,-282.1506 117.1921,-262.6865 80.9872,-249.18"/><polygon fill="#000" stroke="#000" points="81.821 -245.755 71.228 -245.539 79.374 -252.314 81.821 -245.755"/></g><g id="node19" class="node"><title>lapack</title><ellipse cx="1788.296" cy="-90" fill="none" stroke="#000" rx="34.394" ry="18"/><text x="1788.296" y="-86.3" fill="#000" font-family="Times,serif" font-size="14" text-anchor="middle">lapack</text></g><g id="node20" class="node"><title>rschroed_other</title><ellipse cx="656.296" cy="-306" fill="none" stroke="#000" rx="64.989" ry="18"/><text x="656.296" y="-302.3" fill="#000" font-family="Times,serif" font-size="14" text-anchor="middle">rschroed_other</text></g><g id="edge47" class="edge"><title>rschroed_other-&gt;types</title><path fill="none" stroke="#000" d="M616.1455,-291.604C598.4487,-283.0176 579.4075,-270.1762 569.2964,-252 561.5184,-238.0178 563.9748,-231.0891 569.2964,-216 596.6304,-138.4963 614.1578,-113.1494 685.2964,-72 736.2967,-42.4995 909.3943,-26.5663 988.3948,-20.6812"/><polygon fill="#000" stroke="#000" points="988.728 -24.166 998.447 -19.949 988.219 -17.185 988.728 -24.166"/></g><g id="edge45" class="edge"><title>rschroed_other-&gt;ode1d</title><path fill="none" stroke="#000" d="M704.2437,-293.649C756.3288,-280.0306 833.8178,-259.1058 846.2964,-252 866.5129,-240.488 865.3705,-229.5293 884.2964,-216 905.424,-200.8968 931.3239,-187.338 951.8663,-177.5847"/><polygon fill="#000" stroke="#000" points="953.595 -180.641 961.183 -173.246 950.64 -174.295 953.595 -180.641"/></g><g id="edge48" class="edge"><title>rschroed_other-&gt;utils</title><path fill="none" stroke="#000" d="M676.4079,-288.7672C716.0023,-255.7242 807.9931,-183.2597 897.2964,-144 959.9785,-116.4436 1038.9796,-101.5958 1084.4549,-94.7814"/><polygon fill="#000" stroke="#000" points="1085.053 -98.231 1094.448 -93.333 1084.049 -91.304 1085.053 -98.231"/></g><g id="edge46" class="edge"><title>rschroed_other-&gt;ode1d_other</title><path fill="none" stroke="#000" d="M650.7449,-287.8314C648.3661,-280.0463 645.5326,-270.7729 642.8931,-262.1347"/><polygon fill="#000" stroke="#000" points="646.192 -260.954 639.923 -252.413 639.498 -263 646.192 -260.954"/></g><g id="node21" class="node"><title>c_dftatom</title><ellipse cx="222.296" cy="-594" fill="none" stroke="#000" rx="47.392" ry="18"/><text x="222.296" y="-590.3" fill="#000" font-family="Times,serif" font-size="14" text-anchor="middle">c_dftatom</text></g><g id="edge70" class="edge"><title>c_dftatom-&gt;dftatom</title><path fill="none" stroke="#000" d="M268.7755,-590.1798C419.7037,-577.7747 895.2026,-538.6926 1049.4585,-526.0141"/><polygon fill="#000" stroke="#000" points="1049.895 -529.49 1059.575 -525.183 1049.322 -522.514 1049.895 -529.49"/></g><g id="edge68" class="edge"><title>c_dftatom-&gt;dft</title><path fill="none" stroke="#000" d="M246.2223,-578.2918C305.5568,-539.3367 459.2704,-438.4183 522.9848,-396.5876"/><polygon fill="#000" stroke="#000" points="525.272 -399.273 531.71 -390.859 521.43 -393.421 525.272 -399.273"/></g><g id="edge69" class="edge"><title>c_dftatom-&gt;dft_data</title><path fill="none" stroke="#000" d="M180.7549,-585.1565C119.8042,-569.4655 13.2964,-530.5258 13.2964,-450 13.2964,-450 13.2964,-450 13.2964,-378 13.2964,-336.9969 24.0025,-290.534 31.9314,-261.7459"/><polygon fill="#000" stroke="#000" points="35.339 -262.558 34.702 -251.982 28.605 -260.647 35.339 -262.558"/></g><g id="edge71" class="edge"><title>c_dftatom-&gt;mixings</title><path fill="none" stroke="#000" d="M222.9845,-575.9843C224.8442,-527.2939 229.9813,-392.7961 232.2248,-334.0573"/><polygon fill="#000" stroke="#000" points="235.724 -334.135 232.609 -324.009 228.729 -333.868 235.724 -334.135"/></g><g id="node22" class="node"><title>interpolation</title><ellipse cx="1773.296" cy="-162" fill="none" stroke="#000" rx="57.391" ry="18"/><text x="1773.296" y="-158.3" fill="#000" font-family="Times,serif" font-size="14" text-anchor="middle">interpolation</text></g><g id="edge73" class="edge"><title>interpolation-&gt;types</title><path fill="none" stroke="#000" d="M1764.9358,-144.1339C1753.9006,-122.8203 1732.3014,-88.0586 1702.2964,-72 1646.3765,-42.0718 1204.512,-24.1894 1068.1994,-19.3442"/><polygon fill="#000" stroke="#000" points="1068.297 -15.846 1058.18 -18.992 1068.051 -22.841 1068.297 -15.846"/></g><g id="edge74" class="edge"><title>interpolation-&gt;utils</title><path fill="none" stroke="#000" d="M1719.1076,-156.016C1590.1685,-141.7773 1267.7346,-106.1711 1158.3036,-94.0867"/><polygon fill="#000" stroke="#000" points="1158.419 -90.578 1148.095 -92.959 1157.65 -97.536 1158.419 -90.578"/></g><g id="edge72" class="edge"><title>interpolation-&gt;lapack</title><path fill="none" stroke="#000" d="M1777.0816,-143.8314C1778.7284,-135.9266 1780.6949,-126.4872 1782.518,-117.7365"/><polygon fill="#000" stroke="#000" points="1785.951 -118.417 1784.564 -107.913 1779.098 -116.989 1785.951 -118.417"/></g><g id="node23" class="node"><title>rdirac_other</title><ellipse cx="794.296" cy="-306" fill="none" stroke="#000" rx="55.491" ry="18"/><text x="794.296" y="-302.3" fill="#000" font-family="Times,serif" font-size="14" text-anchor="middle">rdirac_other</text></g><g id="edge82" class="edge"><title>rdirac_other-&gt;types</title><path fill="none" stroke="#000" d="M799.3894,-287.8215C805.1611,-268.9503 815.7003,-239.0259 830.2964,-216 878.1439,-140.5189 959.376,-71.3409 1001.3717,-38.3371"/><polygon fill="#000" stroke="#000" points="1003.723 -40.942 1009.469 -32.041 999.426 -35.416 1003.723 -40.942"/></g><g id="edge80" class="edge"><title>rdirac_other-&gt;ode1d</title><path fill="none" stroke="#000" d="M823.0921,-290.4596C841.1769,-280.2819 864.7037,-266.2638 884.2964,-252 912.939,-231.1478 943.18,-204.0323 963.4278,-185.0363"/><polygon fill="#000" stroke="#000" points="966.076 -187.349 970.936 -177.934 961.266 -182.264 966.076 -187.349"/></g><g id="edge83" class="edge"><title>rdirac_other-&gt;utils</title><path fill="none" stroke="#000" d="M805.9782,-288.289C828.7899,-255.0763 882.5541,-183.2589 945.2964,-144 989.0086,-116.6486 1047.5251,-102.3247 1084.826,-95.4711"/><polygon fill="#000" stroke="#000" points="1085.508 -98.905 1094.754 -93.731 1084.3 -92.01 1085.508 -98.905"/></g><g id="edge81" class="edge"><title>rdirac_other-&gt;ode1d_other</title><path fill="none" stroke="#000" d="M761.5319,-291.256C736.9412,-280.1902 703.0736,-264.9497 676.4623,-252.9747"/><polygon fill="#000" stroke="#000" points="677.573 -249.636 667.017 -248.724 674.7 -256.02 677.573 -249.636"/></g></g></svg>