<?xml version="1.0" encoding="UTF-8" standalone="no"?>
<!DOCTYPE svg PUBLIC "-//W3C//DTD SVG 1.1//EN"
 "http://www.w3.org/Graphics/SVG/1.1/DTD/svg11.dtd">
<!-- Generated by graphviz version 2.40.1 (20161225.0304)
 -->
<!-- Title: src.dot Pages: 1 -->
<svg width="816pt" height="476pt"
 viewBox="0.00 0.00 816.13 476.00" xmlns="http://www.w3.org/2000/svg" xmlns:xlink="http://www.w3.org/1999/xlink">
<g id="graph0" class="graph" transform="scale(1 1) rotate(0) translate(4 472)">
<title>src.dot</title>
<polygon fill="#ffffff" stroke="transparent" points="-4,4 -4,-472 812.1275,-472 812.1275,4 -4,4"/>
<!-- constants -->
<g id="node1" class="node">
<title>constants</title>
<ellipse fill="none" stroke="#000000" cx="403" cy="-162" rx="44.6926" ry="18"/>
<text text-anchor="middle" x="403" y="-158.3" font-family="Times,serif" font-size="14.00" fill="#000000">constants</text>
</g>
<!-- types -->
<g id="node2" class="node">
<title>types</title>
<ellipse fill="none" stroke="#000000" cx="403" cy="-18" rx="29.795" ry="18"/>
<text text-anchor="middle" x="403" y="-14.3" font-family="Times,serif" font-size="14.00" fill="#000000">types</text>
</g>
<!-- constants&#45;&gt;types -->
<g id="edge1" class="edge">
<title>constants&#45;&gt;types</title>
<path fill="none" stroke="#000000" d="M403,-143.7623C403,-119.201 403,-75.2474 403,-46.3541"/>
<polygon fill="#000000" stroke="#000000" points="406.5001,-46.0896 403,-36.0896 399.5001,-46.0897 406.5001,-46.0896"/>
</g>
<!-- reigen -->
<g id="node3" class="node">
<title>reigen</title>
<ellipse fill="none" stroke="#000000" cx="123" cy="-234" rx="33.2948" ry="18"/>
<text text-anchor="middle" x="123" y="-230.3" font-family="Times,serif" font-size="14.00" fill="#000000">reigen</text>
</g>
<!-- reigen&#45;&gt;types -->
<g id="edge4" class="edge">
<title>reigen&#45;&gt;types</title>
<path fill="none" stroke="#000000" d="M98.7733,-221.5218C83.7103,-212.2981 65.6223,-198.195 57,-180 50.1483,-165.5413 50.3574,-158.5559 57,-144 77.2743,-99.5732 96.21,-93.6155 140,-72 213.2761,-35.8296 309.5305,-23.8748 362.927,-19.9321"/>
<polygon fill="#000000" stroke="#000000" points="363.2761,-23.4165 373.0154,-19.2456 362.8008,-16.4327 363.2761,-23.4165"/>
</g>
<!-- ode1d -->
<g id="node4" class="node">
<title>ode1d</title>
<ellipse fill="none" stroke="#000000" cx="224" cy="-90" rx="33.2948" ry="18"/>
<text text-anchor="middle" x="224" y="-86.3" font-family="Times,serif" font-size="14.00" fill="#000000">ode1d</text>
</g>
<!-- reigen&#45;&gt;ode1d -->
<g id="edge2" class="edge">
<title>reigen&#45;&gt;ode1d</title>
<path fill="none" stroke="#000000" d="M134.9826,-216.9158C152.5986,-191.8 185.61,-144.7343 206.1051,-115.5135"/>
<polygon fill="#000000" stroke="#000000" points="209.1561,-117.2587 212.0329,-107.0619 203.4252,-113.2391 209.1561,-117.2587"/>
</g>
<!-- rschroed -->
<g id="node5" class="node">
<title>rschroed</title>
<ellipse fill="none" stroke="#000000" cx="108" cy="-162" rx="42.4939" ry="18"/>
<text text-anchor="middle" x="108" y="-158.3" font-family="Times,serif" font-size="14.00" fill="#000000">rschroed</text>
</g>
<!-- reigen&#45;&gt;rschroed -->
<g id="edge3" class="edge">
<title>reigen&#45;&gt;rschroed</title>
<path fill="none" stroke="#000000" d="M119.2149,-215.8314C117.6106,-208.131 115.703,-198.9743 113.9201,-190.4166"/>
<polygon fill="#000000" stroke="#000000" points="117.3021,-189.4892 111.8361,-180.4133 110.4493,-190.9169 117.3021,-189.4892"/>
</g>
<!-- ode1d&#45;&gt;types -->
<g id="edge14" class="edge">
<title>ode1d&#45;&gt;types</title>
<path fill="none" stroke="#000000" d="M250.7981,-79.2209C282.1328,-66.617 334.0742,-45.7243 368.4218,-31.9085"/>
<polygon fill="#000000" stroke="#000000" points="370.0709,-35.0178 378.0424,-28.0388 367.4587,-28.5235 370.0709,-35.0178"/>
</g>
<!-- rschroed&#45;&gt;types -->
<g id="edge26" class="edge">
<title>rschroed&#45;&gt;types</title>
<path fill="none" stroke="#000000" d="M117.8023,-144.185C130.0778,-123.5878 153.0565,-90.1925 182,-72 238.4256,-36.5335 316.4823,-24.3607 363.1399,-20.1829"/>
<polygon fill="#000000" stroke="#000000" points="363.4819,-23.6667 373.1644,-19.3655 362.913,-16.6898 363.4819,-23.6667"/>
</g>
<!-- rschroed&#45;&gt;ode1d -->
<g id="edge25" class="edge">
<title>rschroed&#45;&gt;ode1d</title>
<path fill="none" stroke="#000000" d="M132.0353,-147.0816C149.7948,-136.0584 174.114,-120.9637 193.2837,-109.0653"/>
<polygon fill="#000000" stroke="#000000" points="195.3068,-111.929 201.9574,-103.6816 191.6152,-105.9815 195.3068,-111.929"/>
</g>
<!-- dft -->
<g id="node6" class="node">
<title>dft</title>
<ellipse fill="none" stroke="#000000" cx="376" cy="-306" rx="27" ry="18"/>
<text text-anchor="middle" x="376" y="-302.3" font-family="Times,serif" font-size="14.00" fill="#000000">dft</text>
</g>
<!-- dft&#45;&gt;constants -->
<g id="edge5" class="edge">
<title>dft&#45;&gt;constants</title>
<path fill="none" stroke="#000000" d="M379.365,-288.0535C383.973,-263.4774 392.2936,-219.1008 397.7317,-190.0974"/>
<polygon fill="#000000" stroke="#000000" points="401.1897,-190.6465 399.5926,-180.1727 394.3096,-189.3564 401.1897,-190.6465"/>
</g>
<!-- dft&#45;&gt;types -->
<g id="edge12" class="edge">
<title>dft&#45;&gt;types</title>
<path fill="none" stroke="#000000" d="M368.8365,-288.4208C357.6277,-258.5961 338.2793,-196.2303 349,-144 356.435,-107.777 374.7368,-69.1095 387.9757,-44.3082"/>
<polygon fill="#000000" stroke="#000000" points="391.2265,-45.6576 392.943,-35.2027 385.0814,-42.3053 391.2265,-45.6576"/>
</g>
<!-- dft&#45;&gt;reigen -->
<g id="edge10" class="edge">
<title>dft&#45;&gt;reigen</title>
<path fill="none" stroke="#000000" d="M350.8111,-299.0261C314.0901,-288.8342 243.7247,-269.2099 184,-252 176.8515,-249.9401 169.2405,-247.7177 161.9057,-245.561"/>
<polygon fill="#000000" stroke="#000000" points="162.7258,-242.1539 152.1441,-242.6822 160.7456,-248.868 162.7258,-242.1539"/>
</g>
<!-- dft&#45;&gt;ode1d -->
<g id="edge9" class="edge">
<title>dft&#45;&gt;ode1d</title>
<path fill="none" stroke="#000000" d="M350.0489,-300.9704C309.1581,-292.4593 232.748,-273.9799 217,-252 188.4977,-212.2187 201.9329,-151.7631 213.4924,-117.0556"/>
<polygon fill="#000000" stroke="#000000" points="216.8107,-118.1695 216.8187,-107.5747 210.2054,-115.8521 216.8107,-118.1695"/>
</g>
<!-- dft_data -->
<g id="node7" class="node">
<title>dft_data</title>
<ellipse fill="none" stroke="#000000" cx="620" cy="-162" rx="40.0939" ry="18"/>
<text text-anchor="middle" x="620" y="-158.3" font-family="Times,serif" font-size="14.00" fill="#000000">dft_data</text>
</g>
<!-- dft&#45;&gt;dft_data -->
<g id="edge6" class="edge">
<title>dft&#45;&gt;dft_data</title>
<path fill="none" stroke="#000000" d="M402.8228,-302.6589C454.6097,-295.6895 565.6759,-278.0544 593,-252 609.7125,-236.0641 616.1979,-210.233 618.6565,-190.3227"/>
<polygon fill="#000000" stroke="#000000" points="622.1514,-190.5432 619.6279,-180.2533 615.1838,-189.8709 622.1514,-190.5432"/>
</g>
<!-- energies -->
<g id="node8" class="node">
<title>energies</title>
<ellipse fill="none" stroke="#000000" cx="445" cy="-234" rx="40.8928" ry="18"/>
<text text-anchor="middle" x="445" y="-230.3" font-family="Times,serif" font-size="14.00" fill="#000000">energies</text>
</g>
<!-- dft&#45;&gt;energies -->
<g id="edge7" class="edge">
<title>dft&#45;&gt;energies</title>
<path fill="none" stroke="#000000" d="M390.6331,-290.7307C399.6736,-281.2971 411.4751,-268.9825 421.7717,-258.2382"/>
<polygon fill="#000000" stroke="#000000" points="424.5501,-260.3975 428.9423,-250.7559 419.4962,-255.5541 424.5501,-260.3975"/>
</g>
<!-- mixings -->
<g id="node9" class="node">
<title>mixings</title>
<ellipse fill="none" stroke="#000000" cx="544" cy="-234" rx="40.0939" ry="18"/>
<text text-anchor="middle" x="544" y="-230.3" font-family="Times,serif" font-size="14.00" fill="#000000">mixings</text>
</g>
<!-- dft&#45;&gt;mixings -->
<g id="edge8" class="edge">
<title>dft&#45;&gt;mixings</title>
<path fill="none" stroke="#000000" d="M399.0074,-296.1397C426.4075,-284.3968 472.5929,-264.6031 505.4727,-250.5117"/>
<polygon fill="#000000" stroke="#000000" points="506.9772,-253.6749 514.7899,-246.5186 504.2197,-247.2409 506.9772,-253.6749"/>
</g>
<!-- rpoisson -->
<g id="node10" class="node">
<title>rpoisson</title>
<ellipse fill="none" stroke="#000000" cx="268" cy="-234" rx="41.6928" ry="18"/>
<text text-anchor="middle" x="268" y="-230.3" font-family="Times,serif" font-size="14.00" fill="#000000">rpoisson</text>
</g>
<!-- dft&#45;&gt;rpoisson -->
<g id="edge11" class="edge">
<title>dft&#45;&gt;rpoisson</title>
<path fill="none" stroke="#000000" d="M356.6918,-293.1278C340.7689,-282.5126 317.8672,-267.2448 299.3244,-254.8829"/>
<polygon fill="#000000" stroke="#000000" points="301.1495,-251.8932 290.8875,-249.2583 297.2666,-257.7176 301.1495,-251.8932"/>
</g>
<!-- dft_data&#45;&gt;types -->
<g id="edge13" class="edge">
<title>dft_data&#45;&gt;types</title>
<path fill="none" stroke="#000000" d="M613.7154,-144.1896C605.6848,-123.9138 589.8967,-91.1331 566,-72 529.9935,-43.171 477.9678,-29.4643 442.4401,-23.1313"/>
<polygon fill="#000000" stroke="#000000" points="442.8718,-19.6551 432.4325,-21.464 441.7213,-26.5599 442.8718,-19.6551"/>
</g>
<!-- energies&#45;&gt;constants -->
<g id="edge23" class="edge">
<title>energies&#45;&gt;constants</title>
<path fill="none" stroke="#000000" d="M434.618,-216.2022C429.7353,-207.832 423.8134,-197.6802 418.4208,-188.4356"/>
<polygon fill="#000000" stroke="#000000" points="421.3246,-186.4673 413.2626,-179.593 415.2781,-189.9944 421.3246,-186.4673"/>
</g>
<!-- energies&#45;&gt;types -->
<g id="edge24" class="edge">
<title>energies&#45;&gt;types</title>
<path fill="none" stroke="#000000" d="M450.9363,-215.9464C456.1158,-197.6859 462.0711,-168.7062 457,-144 449.565,-107.777 431.2632,-69.1095 418.0243,-44.3082"/>
<polygon fill="#000000" stroke="#000000" points="420.9186,-42.3053 413.057,-35.2027 414.7735,-45.6576 420.9186,-42.3053"/>
</g>
<!-- mixings&#45;&gt;constants -->
<g id="edge31" class="edge">
<title>mixings&#45;&gt;constants</title>
<path fill="none" stroke="#000000" d="M517.1471,-220.2879C495.1834,-209.0724 463.9016,-193.0987 439.638,-180.7088"/>
<polygon fill="#000000" stroke="#000000" points="441.2142,-177.5838 430.7164,-176.1531 438.0307,-183.818 441.2142,-177.5838"/>
</g>
<!-- mixings&#45;&gt;types -->
<g id="edge34" class="edge">
<title>mixings&#45;&gt;types</title>
<path fill="none" stroke="#000000" d="M535.7054,-216.159C521.0419,-185.4126 488.6989,-121.0258 453,-72 445.1266,-61.1873 435.3312,-50.1877 426.5024,-40.9622"/>
<polygon fill="#000000" stroke="#000000" points="428.8702,-38.3774 419.377,-33.6731 423.8645,-43.2706 428.8702,-38.3774"/>
</g>
<!-- mixings&#45;&gt;ode1d -->
<g id="edge33" class="edge">
<title>mixings&#45;&gt;ode1d</title>
<path fill="none" stroke="#000000" d="M532.0271,-216.5146C516.967,-195.9147 489.1516,-162.1977 457,-144 396.737,-109.8913 316.1138,-97.306 267.2291,-92.6765"/>
<polygon fill="#000000" stroke="#000000" points="267.2689,-89.1666 257.0015,-91.7806 266.6579,-96.1399 267.2689,-89.1666"/>
</g>
<!-- mixings&#45;&gt;dft_data -->
<g id="edge32" class="edge">
<title>mixings&#45;&gt;dft_data</title>
<path fill="none" stroke="#000000" d="M561.2456,-217.6621C571.2802,-208.1556 584.1001,-196.0105 595.2028,-185.4921"/>
<polygon fill="#000000" stroke="#000000" points="597.7072,-187.9408 602.5596,-178.5225 592.8929,-182.8591 597.7072,-187.9408"/>
</g>
<!-- rpoisson&#45;&gt;constants -->
<g id="edge27" class="edge">
<title>rpoisson&#45;&gt;constants</title>
<path fill="none" stroke="#000000" d="M294.3498,-219.9468C314.9869,-208.9403 343.9224,-193.508 366.7441,-181.3365"/>
<polygon fill="#000000" stroke="#000000" points="368.6147,-184.3056 375.7911,-176.5114 365.3205,-178.1291 368.6147,-184.3056"/>
</g>
<!-- rpoisson&#45;&gt;types -->
<g id="edge29" class="edge">
<title>rpoisson&#45;&gt;types</title>
<path fill="none" stroke="#000000" d="M269.2091,-215.8315C272.1826,-183.7283 282.2851,-116.1955 316,-72 329.4972,-54.3071 350.5966,-41.0056 368.6364,-32.0313"/>
<polygon fill="#000000" stroke="#000000" points="370.1884,-35.1691 377.7347,-27.7325 367.1979,-28.8401 370.1884,-35.1691"/>
</g>
<!-- rpoisson&#45;&gt;ode1d -->
<g id="edge28" class="edge">
<title>rpoisson&#45;&gt;ode1d</title>
<path fill="none" stroke="#000000" d="M262.5163,-216.0535C255.007,-191.4774 241.4475,-147.1008 232.5853,-118.0974"/>
<polygon fill="#000000" stroke="#000000" points="235.8223,-116.7134 229.5528,-108.1727 229.1278,-118.759 235.8223,-116.7134"/>
</g>
<!-- drivers -->
<g id="node11" class="node">
<title>drivers</title>
<ellipse fill="none" stroke="#000000" cx="614" cy="-378" rx="35.9954" ry="18"/>
<text text-anchor="middle" x="614" y="-374.3" font-family="Times,serif" font-size="14.00" fill="#000000">drivers</text>
</g>
<!-- drivers&#45;&gt;types -->
<g id="edge21" class="edge">
<title>drivers&#45;&gt;types</title>
<path fill="none" stroke="#000000" d="M647.524,-371.7081C692.3067,-362.6283 768.2093,-344.656 787,-324 814.51,-293.7592 806,-274.8816 806,-234 806,-234 806,-234 806,-162 806,-111.0515 778.9058,-97.8464 735,-72 686.0955,-43.211 520.0828,-27.0101 442.9707,-20.8774"/>
<polygon fill="#000000" stroke="#000000" points="442.9426,-17.3647 432.7013,-20.0786 442.3997,-24.3436 442.9426,-17.3647"/>
</g>
<!-- drivers&#45;&gt;dft -->
<g id="edge15" class="edge">
<title>drivers&#45;&gt;dft</title>
<path fill="none" stroke="#000000" d="M582.8857,-368.5873C538.2782,-355.0926 456.4453,-330.3364 410.1933,-316.3442"/>
<polygon fill="#000000" stroke="#000000" points="411.2006,-312.9923 400.6155,-313.4467 409.1736,-319.6924 411.2006,-312.9923"/>
</g>
<!-- drivers&#45;&gt;dft_data -->
<g id="edge16" class="edge">
<title>drivers&#45;&gt;dft_data</title>
<path fill="none" stroke="#000000" d="M614.5012,-359.9555C615.5446,-322.3938 617.9568,-235.5541 619.2108,-190.4103"/>
<polygon fill="#000000" stroke="#000000" points="622.7169,-190.2384 619.496,-180.1451 615.7196,-190.044 622.7169,-190.2384"/>
</g>
<!-- drivers&#45;&gt;energies -->
<g id="edge17" class="edge">
<title>drivers&#45;&gt;energies</title>
<path fill="none" stroke="#000000" d="M595.5923,-362.3154C565.6549,-336.8065 506.2913,-286.2245 471.7117,-256.7603"/>
<polygon fill="#000000" stroke="#000000" points="473.7825,-253.9265 463.9009,-250.1049 469.2425,-259.2546 473.7825,-253.9265"/>
</g>
<!-- drivers&#45;&gt;mixings -->
<g id="edge19" class="edge">
<title>drivers&#45;&gt;mixings</title>
<path fill="none" stroke="#000000" d="M605.4166,-360.3428C593.3462,-335.5122 571.2543,-290.066 557.117,-260.9836"/>
<polygon fill="#000000" stroke="#000000" points="560.1734,-259.2651 552.6536,-251.8017 553.8778,-262.3255 560.1734,-259.2651"/>
</g>
<!-- mesh -->
<g id="node12" class="node">
<title>mesh</title>
<ellipse fill="none" stroke="#000000" cx="670" cy="-90" rx="29.795" ry="18"/>
<text text-anchor="middle" x="670" y="-86.3" font-family="Times,serif" font-size="14.00" fill="#000000">mesh</text>
</g>
<!-- drivers&#45;&gt;mesh -->
<g id="edge18" class="edge">
<title>drivers&#45;&gt;mesh</title>
<path fill="none" stroke="#000000" d="M619.4396,-360.0308C622.5861,-349.5411 626.5861,-336.0411 630,-324 648.0863,-260.2087 659.892,-245.6772 669,-180 671.8575,-159.3951 672.0135,-135.8823 671.5049,-118.0579"/>
<polygon fill="#000000" stroke="#000000" points="675.0013,-117.8922 671.1324,-108.029 668.0061,-118.1521 675.0013,-117.8922"/>
</g>
<!-- states -->
<g id="node13" class="node">
<title>states</title>
<ellipse fill="none" stroke="#000000" cx="747" cy="-306" rx="31.3957" ry="18"/>
<text text-anchor="middle" x="747" y="-302.3" font-family="Times,serif" font-size="14.00" fill="#000000">states</text>
</g>
<!-- drivers&#45;&gt;states -->
<g id="edge20" class="edge">
<title>drivers&#45;&gt;states</title>
<path fill="none" stroke="#000000" d="M638.3942,-364.7941C659.9768,-353.1103 691.6111,-335.9849 715.1778,-323.227"/>
<polygon fill="#000000" stroke="#000000" points="716.9661,-326.239 724.0939,-318.4003 713.6336,-320.0831 716.9661,-326.239"/>
</g>
<!-- mesh&#45;&gt;types -->
<g id="edge22" class="edge">
<title>mesh&#45;&gt;types</title>
<path fill="none" stroke="#000000" d="M644.4721,-80.4592C636.3794,-77.578 627.3622,-74.5149 619,-72 557.3157,-53.4491 484.4128,-36.1682 441.0336,-26.3644"/>
<polygon fill="#000000" stroke="#000000" points="441.7149,-22.9302 431.1909,-24.1538 440.1809,-29.7601 441.7149,-22.9302"/>
</g>
<!-- states&#45;&gt;types -->
<g id="edge30" class="edge">
<title>states&#45;&gt;types</title>
<path fill="none" stroke="#000000" d="M750.282,-288.0357C757.1364,-244.3214 767.817,-131.6275 709,-72 672.5311,-35.0286 517.8381,-23.1244 443.3752,-19.4943"/>
<polygon fill="#000000" stroke="#000000" points="443.145,-15.9801 432.9947,-19.0167 442.8232,-22.9727 443.145,-15.9801"/>
</g>
<!-- atom_u -->
<g id="node14" class="node">
<title>atom_u</title>
<ellipse fill="none" stroke="#000000" cx="272" cy="-450" rx="37.8943" ry="18"/>
<text text-anchor="middle" x="272" y="-446.3" font-family="Times,serif" font-size="14.00" fill="#000000">atom_u</text>
</g>
<!-- atom_u&#45;&gt;types -->
<g id="edge36" class="edge">
<title>atom_u&#45;&gt;types</title>
<path fill="none" stroke="#000000" d="M234.4651,-447.2652C159.8484,-439.5737 0,-410.8596 0,-306 0,-306 0,-306 0,-162 0,-109.3582 31.1505,-97.8647 77,-72 125.3779,-44.709 287.0934,-27.8078 363.006,-21.1933"/>
<polygon fill="#000000" stroke="#000000" points="363.4619,-24.6672 373.1275,-20.3283 362.8657,-17.6927 363.4619,-24.6672"/>
</g>
<!-- atom_u&#45;&gt;drivers -->
<g id="edge35" class="edge">
<title>atom_u&#45;&gt;drivers</title>
<path fill="none" stroke="#000000" d="M306.6749,-442.7C369.5082,-429.472 502.0264,-401.5734 570.6969,-387.1165"/>
<polygon fill="#000000" stroke="#000000" points="571.6851,-390.4852 580.7496,-385.0001 570.243,-383.6354 571.6851,-390.4852"/>
</g>
</g>
</svg>
