<svg width="517" height="313" viewBox="0 0 517 313" fill="none" xmlns="http://www.w3.org/2000/svg">
<g clip-path="url(#clip0)">
<path d="M301.596 169.133L304.486 166.829L426.262 236.704L423.95 239.338L301.596 169.133Z" fill="#0078D4"/>
<path d="M247.933 200.409L250.822 198.104L372.598 267.98L370.287 270.614L247.933 200.409Z" fill="#0078D4"/>
<path d="M346.922 133.002L349.811 130.698L471.587 200.573L469.276 203.207L346.922 133.002Z" fill="#0078D4"/>
<path d="M327.933 31.3572L342.133 24.8552C343.785 23.8676 345.931 23.703 348.325 24.526L334.125 31.028C331.731 30.2049 329.584 30.3695 327.933 31.3572Z" fill="#84ECFD"/>
<path d="M362.856 10.4523C373.093 16.3781 382.01 27.5714 387.128 39.67C388.532 40.0815 390.018 40.7399 391.587 41.6452C402.154 47.7357 410.741 62.5503 410.741 74.6489L414.291 76.7065C421.143 80.6571 426.757 90.2866 426.757 98.27V99.0107C426.757 106.912 421.143 110.122 414.208 106.171L336.767 61.645C329.914 57.6944 324.3 48.0649 324.3 40.1638V39.4231C324.3 32.5096 328.511 29.2174 334.125 31.1104C334.042 29.7113 333.96 28.3121 333.96 26.9952C334.042 8.64158 346.922 1.31657 362.856 10.4523Z" fill="#2195DC"/>
<path d="M344.611 7.40698C343.868 7.65389 343.042 8.06541 342.382 8.47693L344.611 7.40698Z" fill="#32B0E7"/>
<path d="M428.491 70.2046L424.941 68.147L422.217 69.3815L424.941 68.147C424.941 56.0484 416.438 41.2338 405.787 35.1433C404.219 34.238 402.733 33.5796 401.329 33.168C396.21 21.0694 387.294 9.79386 377.056 3.95032C369.048 -0.658672 361.783 -1.07019 356.582 1.97504L344.61 7.40706C349.564 5.59639 355.921 6.41942 362.856 10.4523C373.094 16.3781 382.01 27.5714 387.129 39.67C388.532 40.0815 390.018 40.74 391.587 41.6453C402.155 47.7357 410.741 62.5504 410.741 74.649L414.291 76.7066C421.143 80.6571 426.757 90.2866 426.757 98.2701V99.0108C426.757 102.961 425.354 105.677 423.125 106.994L437.325 100.492C439.554 99.1754 440.958 96.4594 440.958 92.5088V91.7681C440.958 83.7846 435.344 74.1552 428.491 70.2046Z" fill="#32B0E7"/>
<path opacity="0.5" d="M8.83887 189.133L233.154 59.9167L450.122 183.866L225.806 313.082L8.83887 189.133Z" fill="url(#paint0_linear)"/>
<path opacity="0.2" d="M228.2 42.6338L454.497 172.838L439.967 181.151L226.797 303.947L15.0306 182.056L0.5 173.661L228.2 42.6338Z" fill="#505055"/>
<path d="M0.5 173.66V176.788L226.797 306.992L454.497 175.965V172.837V172.343L228.2 59.3406L0.58256 173.166L0.5 173.66Z" fill="#505055"/>
<path d="M0.5 173.249L228.2 42.1392L454.497 172.343L226.797 303.453L0.5 173.249Z" fill="#505055"/>
<path d="M228.613 267.816L227.54 268.392L47.2285 164.936L48.2192 164.36L228.613 267.816Z" fill="#78787D"/>
<path d="M248.427 256.375L247.354 256.869L67.7031 153.908L68.7764 153.332L248.427 256.375Z" fill="#78787D"/>
<path d="M268.159 244.935L267.169 245.429L87.5181 142.468L88.5913 141.892L268.159 244.935Z" fill="#78787D"/>
<path d="M287.973 233.413L286.9 233.989L107.332 130.945L108.323 130.452L287.973 233.413Z" fill="#78787D"/>
<path d="M307.788 221.973L306.714 222.549L127.064 119.505L128.137 118.929L307.788 221.973Z" fill="#78787D"/>
<path d="M327.602 210.532L326.529 211.026L146.878 108.064L147.952 107.488L327.602 210.532Z" fill="#78787D"/>
<path d="M347.335 199.092L346.344 199.586L166.693 96.5419L167.767 96.0481L347.335 199.092Z" fill="#78787D"/>
<path d="M367.149 187.57L366.075 188.146L186.507 85.102L187.498 84.6082L367.149 187.57Z" fill="#78787D"/>
<path d="M386.963 176.13L385.89 176.706L206.239 73.6618L207.313 73.0857L386.963 176.13Z" fill="#78787D"/>
<path d="M406.777 164.689L405.704 165.183L226.053 62.2216L227.126 61.6455L406.777 164.689Z" fill="#78787D"/>
<path d="M218.706 274.07L219.697 274.646L225.063 271.518L224.073 270.942L218.706 274.07Z" fill="#BCBCBC"/>
<path d="M198.809 262.712L199.799 263.288L205.248 260.16L204.258 259.584L198.809 262.712Z" fill="#BCBCBC"/>
<path d="M178.912 251.272L179.903 251.848L185.269 248.721L184.278 248.145L178.912 251.272Z" fill="#BCBCBC"/>
<path d="M158.933 239.914L159.923 240.49L165.372 237.363L164.382 236.787L158.933 239.914Z" fill="#BCBCBC"/>
<path d="M139.118 228.474L140.109 229.05L145.475 225.922L144.485 225.346L139.118 228.474Z" fill="#BCBCBC"/>
<path d="M119.139 217.116L120.129 217.692L125.578 214.565L124.588 213.989L119.139 217.116Z" fill="#BCBCBC"/>
<path d="M99.2417 205.676L100.232 206.252L105.681 203.124L104.691 202.548L99.2417 205.676Z" fill="#BCBCBC"/>
<path d="M79.3442 194.318L80.335 194.894L85.7839 191.767L84.7932 191.19L79.3442 194.318Z" fill="#505055"/>
<path d="M59.4478 182.878L60.4385 183.454L65.8874 180.327L64.8967 179.75L59.4478 182.878Z" fill="#BCBCBC"/>
<path d="M39.5503 171.52L40.541 172.096L45.9899 168.969L44.9992 168.393L39.5503 171.52Z" fill="#505055"/>
<path d="M49.6235 173.742L49.9538 173.906L52.348 172.59L52.0178 172.425L49.6235 173.742Z" fill="#BCBCBC"/>
<path d="M56.1455 177.446L56.4757 177.693L58.87 176.294L58.5397 176.129L56.1455 177.446Z" fill="#BCBCBC"/>
<path d="M69.52 185.182L69.8503 185.347L72.2445 184.03L71.9143 183.783L69.52 185.182Z" fill="#BCBCBC"/>
<path d="M76.0425 188.886L76.3727 189.051L78.767 187.734L78.4367 187.487L76.0425 188.886Z" fill="#505055"/>
<path d="M89.4995 196.54L89.8297 196.787L92.224 195.388L91.8937 195.223L89.4995 196.54Z" fill="#505055"/>
<path d="M96.0215 200.326L96.3517 200.491L98.6634 199.174L98.3331 198.927L96.0215 200.326Z" fill="#505055"/>
<path d="M109.314 207.98L109.644 208.145L112.038 206.828L111.708 206.581L109.314 207.98Z" fill="#BCBCBC"/>
<path d="M115.836 211.684L116.167 211.848L118.561 210.532L118.231 210.285L115.836 211.684Z" fill="#BCBCBC"/>
<path d="M129.293 219.338L129.624 219.503L131.935 218.186L131.605 218.021L129.293 219.338Z" fill="#BCBCBC"/>
<path d="M135.816 223.042L136.146 223.289L138.458 221.889L138.128 221.725L135.816 223.042Z" fill="#BCBCBC"/>
<path d="M149.108 230.696L149.438 230.943L151.832 229.544L151.502 229.379L149.108 230.696Z" fill="#BCBCBC"/>
<path d="M155.63 234.482L155.96 234.647L158.354 233.33L158.024 233.083L155.63 234.482Z" fill="#BCBCBC"/>
<path d="M169.087 242.136L169.417 242.301L171.729 240.984L171.399 240.819L169.087 242.136Z" fill="#BCBCBC"/>
<path d="M175.61 245.84L175.94 246.087L178.252 244.688L177.922 244.523L175.61 245.84Z" fill="#BCBCBC"/>
<path d="M188.985 253.577L189.315 253.741L191.709 252.424L191.379 252.177L188.985 253.577Z" fill="#BCBCBC"/>
<path d="M195.506 257.28L195.837 257.444L198.148 256.128L197.818 255.963L195.506 257.28Z" fill="#BCBCBC"/>
<path d="M208.799 264.934L209.13 265.099L211.524 263.782L211.194 263.535L208.799 264.934Z" fill="#BCBCBC"/>
<path d="M215.321 268.638L215.652 268.802L218.046 267.485L217.633 267.321L215.321 268.638Z" fill="#BCBCBC"/>
<path d="M226.384 267.486L227.458 268.062L405.952 165.759L404.879 165.183L226.384 267.486Z" fill="#78787D"/>
<path d="M206.652 256.046L207.643 256.539L386.137 154.236L385.146 153.742L206.652 256.046Z" fill="#78787D"/>
<path d="M186.838 244.605L187.911 245.099L366.323 142.796L365.333 142.302L186.838 244.605Z" fill="#78787D"/>
<path d="M167.023 233.083L168.097 233.659L346.592 131.356L345.518 130.78L167.023 233.083Z" fill="#78787D"/>
<path d="M147.209 221.643L148.283 222.22L326.777 119.916L325.704 119.34L147.209 221.643Z" fill="#78787D"/>
<path d="M127.477 210.202L128.468 210.696L306.963 108.393L305.972 107.899L127.477 210.202Z" fill="#78787D"/>
<path d="M107.663 198.762L108.736 199.256L287.23 96.9531L286.157 96.377L107.663 198.762Z" fill="#78787D"/>
<path d="M87.8481 187.24L88.9214 187.816L267.416 85.5129L266.343 84.9368L87.8481 187.24Z" fill="#78787D"/>
<path d="M68.0342 175.8L69.1075 176.376L247.602 74.0727L246.529 73.4966L68.0342 175.8Z" fill="#78787D"/>
<path d="M48.0547 164.442L49.0454 165.1L227.788 62.5505L226.797 62.0566L48.0547 164.442Z" fill="#78787D"/>
<path d="M348.655 251.849C350.637 253.001 350.637 254.894 348.655 256.046C346.674 257.198 343.454 257.198 341.472 256.046C339.491 254.894 339.491 253.001 341.472 251.849C343.454 250.696 346.674 250.696 348.655 251.849Z" fill="#0078D4"/>
<path d="M347.335 252.589C348.573 253.33 348.573 254.482 347.335 255.141C346.096 255.881 344.115 255.881 342.877 255.141C341.638 254.4 341.638 253.248 342.877 252.589C344.115 251.931 346.096 251.931 347.335 252.589Z" fill="#F4F4F4"/>
<path d="M401.494 220.244C403.475 221.396 403.475 223.289 401.494 224.441C399.512 225.594 396.292 225.594 394.311 224.441C392.329 223.289 392.329 221.396 394.311 220.244C396.292 219.092 399.512 219.092 401.494 220.244Z" fill="#0078D4"/>
<path d="M400.09 221.067C401.329 221.808 401.329 222.96 400.09 223.618C398.852 224.359 396.87 224.359 395.632 223.618C394.394 222.878 394.394 221.725 395.632 221.067C396.87 220.326 398.852 220.326 400.09 221.067Z" fill="#F4F4F4"/>
<path d="M454.25 188.557C456.231 189.709 456.231 191.602 454.25 192.755C452.268 193.907 449.049 193.907 447.067 192.755C445.086 191.602 445.086 189.709 447.067 188.557C449.049 187.405 452.268 187.405 454.25 188.557Z" fill="#0078D4"/>
<path d="M452.929 189.298C454.167 190.038 454.167 191.191 452.929 191.849C451.691 192.59 449.709 192.59 448.471 191.849C447.232 191.108 447.232 189.956 448.471 189.298C449.709 188.639 451.691 188.639 452.929 189.298Z" fill="#F4F4F4"/>
<path d="M400.834 284.934L399.596 284.605L398.192 285.428L398.77 286.169L398.11 286.58L395.88 283.782L396.541 283.37L401.412 284.687L400.834 284.934ZM397.862 285.016L398.935 284.358L397.036 283.782C396.954 283.782 396.871 283.7 396.789 283.7C396.871 283.782 396.954 283.782 396.954 283.864L397.862 285.016Z" fill="#505055"/>
<path d="M394.725 284.934L393.651 285.51L396.789 287.321L396.128 287.65L393.074 285.839L392.083 286.497L391.587 286.168L394.229 284.687L394.725 284.934Z" fill="#505055"/>
<path d="M394.147 288.803L392.908 288.473L391.505 289.296L392.083 290.037L391.422 290.449L389.193 287.65L389.854 287.239L394.725 288.556L394.147 288.803ZM391.175 288.967L392.248 288.309L390.349 287.733C390.267 287.733 390.184 287.65 390.102 287.65C390.184 287.733 390.267 287.733 390.267 287.815L391.175 288.967Z" fill="#505055"/>
<path d="M389.853 290.695C389.853 291.107 389.523 291.436 388.862 291.848L387.872 292.424L384.322 290.366L385.312 289.79C386.633 289.049 387.872 288.967 389.028 289.625C389.688 289.955 389.936 290.284 389.853 290.695ZM388.037 291.765L388.532 291.518C388.945 291.271 389.193 291.025 389.193 290.778C389.193 290.531 388.945 290.284 388.532 290.037C387.707 289.543 386.881 289.543 385.973 290.037L385.478 290.284L388.037 291.765Z" fill="#505055"/>
<path d="M403.971 282.794C403.889 283.041 403.724 283.288 403.311 283.453L402.155 284.111L398.605 282.053L399.761 281.395C400.091 281.23 400.421 281.066 400.834 281.066C401.164 281.066 401.495 281.066 401.742 281.23C401.907 281.313 402.072 281.477 402.072 281.642C402.072 281.806 402.073 281.971 401.907 282.136C402.155 281.971 402.485 281.971 402.733 281.971C403.063 281.971 403.311 282.053 403.559 282.218C403.889 282.3 404.054 282.547 403.971 282.794ZM402.32 283.535L402.816 283.206C403.063 283.041 403.146 282.959 403.146 282.794C403.146 282.63 403.063 282.547 402.898 282.465C402.568 282.218 402.072 282.3 401.577 282.629L401.164 282.876L402.32 283.535ZM400.752 282.629L401.164 282.383C401.412 282.3 401.495 282.136 401.495 282.053C401.495 281.889 401.412 281.806 401.247 281.724C400.917 281.56 400.586 281.56 400.174 281.806L399.761 282.053L400.752 282.629Z" fill="#505055"/>
<path d="M407.769 280.901L406.531 280.572L405.128 281.395L405.705 282.136L405.045 282.547L402.816 279.749L403.476 279.337L408.347 280.654L407.769 280.901ZM404.88 280.984L405.953 280.325L404.054 279.749C403.972 279.749 403.889 279.667 403.807 279.667C403.889 279.749 403.972 279.749 403.972 279.831L404.88 280.984Z" fill="#505055"/>
<path d="M414.209 277.198L412.227 278.35L408.595 276.292L410.494 275.222L411.072 275.469L409.751 276.292L410.741 276.868L411.98 276.128L412.475 276.457L411.237 277.115L412.31 277.691L413.714 276.951L414.209 277.198Z" fill="#505055"/>
<path d="M410.328 278.35C410.493 278.432 410.658 278.597 410.658 278.679C410.74 278.761 410.74 278.926 410.658 279.008C410.575 279.09 410.493 279.255 410.41 279.337C410.328 279.42 410.163 279.584 409.915 279.666C409.832 279.666 409.75 279.749 409.667 279.749C409.585 279.831 409.502 279.831 409.337 279.913C409.254 279.996 409.089 279.996 409.007 279.996C408.924 279.996 408.842 280.078 408.759 280.078L408.181 279.749C408.264 279.749 408.429 279.749 408.511 279.749C408.594 279.749 408.759 279.666 408.842 279.666C408.924 279.666 409.089 279.584 409.172 279.584C409.254 279.584 409.337 279.502 409.42 279.502C409.667 279.337 409.832 279.255 409.832 279.09C409.832 279.008 409.832 278.843 409.667 278.761C409.585 278.679 409.502 278.679 409.42 278.679C409.337 278.679 409.172 278.679 409.089 278.679C408.924 278.679 408.842 278.679 408.677 278.761C408.511 278.761 408.346 278.843 408.181 278.843C408.016 278.843 407.851 278.926 407.603 278.926C407.438 278.926 407.273 278.926 407.108 278.926C406.943 278.926 406.778 278.926 406.695 278.843C406.53 278.843 406.365 278.761 406.282 278.679C406.117 278.597 406.035 278.432 405.952 278.35C405.869 278.267 405.869 278.103 405.952 278.02C406.035 277.938 406.035 277.773 406.2 277.691C406.282 277.609 406.447 277.444 406.613 277.362C406.943 277.115 407.273 277.033 407.521 276.95L408.099 277.28C407.768 277.28 407.438 277.444 407.108 277.609C407.025 277.691 406.943 277.691 406.86 277.773C406.778 277.856 406.778 277.856 406.695 277.938C406.695 278.02 406.613 278.02 406.695 278.103C406.695 278.185 406.778 278.185 406.86 278.267C406.943 278.35 407.025 278.35 407.108 278.35C407.19 278.35 407.273 278.35 407.438 278.35C407.521 278.35 407.686 278.35 407.851 278.267C408.016 278.267 408.181 278.185 408.346 278.185C408.511 278.185 408.759 278.103 408.924 278.103C409.089 278.103 409.254 278.103 409.42 278.103C409.585 278.103 409.75 278.103 409.915 278.185C410.08 278.185 410.245 278.267 410.328 278.35Z" fill="#505055"/>
<path d="M418.172 274.399C418.254 274.729 418.089 274.976 417.759 275.223C417.346 275.469 416.933 275.552 416.438 275.469C415.943 275.387 415.365 275.223 414.787 274.893C414.126 274.564 413.796 274.153 413.713 273.906C413.631 273.576 413.796 273.329 414.126 273.083C414.869 272.671 415.943 272.753 417.098 273.494C417.676 273.823 418.089 274.07 418.172 274.399ZM415.282 274.564C416.19 275.058 416.851 275.223 417.263 274.976C417.676 274.729 417.429 274.317 416.52 273.823C415.612 273.247 414.869 273.165 414.456 273.33C414.126 273.576 414.374 273.988 415.282 274.564Z" fill="#505055"/>
<path d="M420.896 273.329L420.318 273.659L417.346 271.93C417.346 272.012 417.264 272.095 417.181 272.259C417.098 272.342 417.016 272.506 416.933 272.589L416.438 272.342C416.521 272.259 416.603 272.177 416.603 272.095C416.686 272.012 416.686 271.93 416.768 271.848C416.851 271.766 416.851 271.683 416.851 271.601C416.851 271.519 416.933 271.436 416.933 271.354L417.181 271.189L420.896 273.329Z" fill="#505055"/>
<path d="M348.325 268.72V264.029C348.325 264.687 348.738 265.264 349.564 265.757V270.449C348.738 269.955 348.325 269.296 348.325 268.72Z" fill="#393940"/>
<path d="M414.704 264.523V269.215C414.704 269.791 414.291 270.449 413.465 270.861V266.169C414.291 265.758 414.704 265.099 414.704 264.523Z" fill="#393940"/>
<path d="M413.465 266.169V270.861L384.899 287.404L384.982 282.712L413.465 266.169Z" fill="#323237"/>
<path d="M379.038 282.712V287.403L349.564 270.449V265.758L379.038 282.712Z" fill="#323237"/>
<path d="M413.466 262.795C415.117 263.7 415.117 265.264 413.466 266.169L384.9 282.712C383.249 283.618 380.69 283.618 379.038 282.712L349.565 265.758C347.913 264.852 347.913 263.289 349.565 262.383L378.13 245.84C379.781 244.935 382.423 244.935 383.992 245.84L413.466 262.795Z" fill="#505055"/>
<path d="M384.982 282.712V287.403C383.331 288.309 380.771 288.309 379.12 287.403V282.712C380.689 283.617 383.331 283.7 384.982 282.712Z" fill="#393940"/>
<g opacity="0.25">
<path opacity="0.25" d="M401.329 257.198C409.172 261.725 409.172 268.967 401.412 273.494C393.651 278.021 381.019 278.021 373.176 273.494C365.333 268.967 365.333 261.725 373.093 257.198C380.937 252.671 393.568 252.671 401.329 257.198Z" fill="url(#paint1_linear)"/>
</g>
<path d="M396.294 262.136L396.211 264.852C396.211 266.992 394.808 269.214 391.918 270.86C386.139 274.235 376.81 274.235 370.948 270.86C368.058 269.214 366.572 266.992 366.572 264.77L366.655 262.054C366.655 264.276 368.141 266.498 371.03 268.144C376.81 271.519 386.221 271.519 392.001 268.144C394.89 266.416 396.294 264.276 396.294 262.136Z" fill="#323237"/>
<path d="M396.872 234.976L396.789 263.618C396.789 265.84 395.303 268.145 392.331 269.873C386.304 273.33 376.562 273.33 370.535 269.873C367.48 268.145 365.994 265.84 365.994 263.536L366.077 234.894C366.077 237.199 367.563 239.503 370.617 241.231C376.644 244.688 386.386 244.688 392.413 241.231C395.386 239.503 396.872 237.281 396.872 234.976Z" fill="url(#paint2_linear)"/>
<path d="M397.036 234.318L396.953 237.199C396.953 239.503 395.467 241.725 392.495 243.454C386.468 246.91 376.726 246.91 370.616 243.454C367.562 241.725 366.076 239.421 366.076 237.116L366.158 234.236C366.158 236.54 367.644 238.845 370.699 240.573C376.726 244.03 386.551 244.03 392.578 240.573C395.467 238.845 396.953 236.622 397.036 234.318Z" fill="#CDCDD0"/>
<path d="M392.496 228.556C398.523 232.013 398.605 237.692 392.578 241.231C386.551 244.688 376.727 244.688 370.7 241.231C364.673 237.774 364.59 232.096 370.617 228.639C376.562 225.1 386.386 225.1 392.496 228.556Z" fill="white"/>
<path d="M389.854 230.121C394.477 232.754 394.477 237.116 389.936 239.75C385.313 242.384 377.882 242.384 373.259 239.75C368.636 237.116 368.636 232.754 373.177 230.121C377.8 227.404 385.23 227.404 389.854 230.121Z" fill="#CDCDD0"/>
<path d="M373.177 231.437C377.8 228.803 385.231 228.803 389.854 231.437C391.835 232.589 392.991 234.071 393.239 235.552C393.569 233.577 392.413 231.52 389.854 230.038C385.231 227.404 377.718 227.404 373.177 230.038C370.618 231.52 369.462 233.577 369.792 235.552C370.04 234.071 371.195 232.589 373.177 231.437Z" fill="#78787D"/>
<path d="M490.742 225.841L489.668 226.417L492.723 228.146L492.145 228.475L489.091 226.746L488.1 227.322L487.604 227.076L490.246 225.512L490.742 225.841Z" fill="#505055"/>
<path d="M490.081 229.71L488.843 229.38L487.439 230.203L488.017 230.944L487.357 231.356L485.127 228.557L485.788 228.146L490.659 229.463L490.081 229.71ZM487.191 229.792L488.265 229.133L486.366 228.64C486.283 228.64 486.201 228.557 486.118 228.557C486.201 228.64 486.283 228.64 486.283 228.722L487.191 229.792Z" fill="#505055"/>
<path d="M485.87 231.602C485.87 232.014 485.54 232.425 484.88 232.754L483.889 233.33L480.339 231.273L481.33 230.697C482.651 229.956 483.889 229.874 485.045 230.532C485.705 230.779 485.953 231.191 485.87 231.602ZM484.054 232.672L484.549 232.425C484.962 232.178 485.21 231.931 485.21 231.684C485.21 231.437 484.962 231.191 484.549 230.944C483.724 230.45 482.898 230.45 481.99 230.944L481.495 231.191L484.054 232.672Z" fill="#505055"/>
<path d="M499.988 223.701C499.905 223.948 499.74 224.195 499.328 224.359L498.172 225.018L494.622 222.96L495.777 222.302C496.108 222.137 496.438 221.973 496.851 221.973C497.181 221.973 497.511 221.973 497.759 222.137C497.924 222.22 498.089 222.384 498.089 222.549C498.089 222.713 498.089 222.878 497.924 223.043C498.172 222.96 498.502 222.878 498.75 222.878C499.08 222.878 499.327 222.96 499.575 223.125C499.905 223.207 499.988 223.454 499.988 223.701ZM498.337 224.442L498.832 224.113C499.08 223.948 499.162 223.866 499.162 223.701C499.162 223.536 499.08 223.454 498.915 223.372C498.584 223.125 498.089 223.207 497.594 223.536L497.181 223.783L498.337 224.442ZM496.686 223.454L497.098 223.207C497.263 223.125 497.429 222.96 497.429 222.878C497.429 222.796 497.346 222.631 497.181 222.549C496.851 222.384 496.52 222.384 496.108 222.631L495.695 222.878L496.686 223.454Z" fill="#505055"/>
<path d="M496.85 225.841L495.612 225.512L494.209 226.335L494.787 227.075L494.126 227.487L491.897 224.689L492.557 224.277L497.428 225.594L496.85 225.841ZM493.878 225.923L494.952 225.265L493.053 224.771C492.97 224.771 492.888 224.689 492.805 224.689C492.888 224.771 492.97 224.771 492.97 224.853L493.878 225.923Z" fill="#505055"/>
<path d="M506.345 219.257C506.51 219.339 506.675 219.504 506.675 219.586C506.758 219.668 506.758 219.833 506.675 219.915C506.593 219.998 506.51 220.162 506.428 220.244C506.263 220.327 506.18 220.491 505.932 220.574C505.85 220.574 505.767 220.656 505.685 220.656C505.602 220.738 505.52 220.738 505.355 220.821C505.272 220.821 505.107 220.903 505.024 220.903C504.942 220.903 504.859 220.985 504.777 220.985L504.199 220.656C504.281 220.656 504.446 220.656 504.529 220.656C504.612 220.656 504.777 220.574 504.859 220.574C504.942 220.574 505.107 220.491 505.189 220.491C505.272 220.491 505.355 220.409 505.437 220.409C505.685 220.244 505.85 220.162 505.85 219.998C505.85 219.915 505.85 219.751 505.685 219.668C505.602 219.586 505.52 219.586 505.437 219.586C505.355 219.586 505.189 219.586 505.107 219.586C505.024 219.586 504.859 219.586 504.694 219.668C504.529 219.668 504.364 219.751 504.199 219.751C504.034 219.751 503.868 219.833 503.703 219.833C503.538 219.833 503.373 219.833 503.208 219.833C503.043 219.833 502.878 219.833 502.795 219.751C502.63 219.751 502.465 219.668 502.382 219.586C502.217 219.504 502.135 219.421 502.052 219.257C501.97 219.175 501.97 219.01 502.052 218.928C502.135 218.845 502.217 218.681 502.3 218.598C502.382 218.516 502.548 218.351 502.713 218.269C503.125 218.022 503.373 217.94 503.621 217.858L504.199 218.187C503.868 218.187 503.538 218.351 503.208 218.516C503.125 218.598 503.043 218.598 502.96 218.681C502.878 218.763 502.878 218.763 502.795 218.845C502.795 218.928 502.795 219.01 502.795 219.01C502.795 219.092 502.878 219.092 502.96 219.175C503.043 219.257 503.125 219.257 503.208 219.257C503.291 219.257 503.373 219.257 503.538 219.257C503.621 219.257 503.786 219.257 503.951 219.175C504.116 219.175 504.281 219.092 504.446 219.092C504.612 219.092 504.859 219.01 505.024 219.01C505.189 219.01 505.355 219.01 505.52 219.01C505.685 219.01 505.85 219.01 506.015 219.092C506.098 219.092 506.263 219.175 506.345 219.257Z" fill="#505055"/>
<path d="M503.786 221.808L502.548 221.479L501.144 222.302L501.722 222.96L501.062 223.372L498.833 220.573L499.493 220.162L504.364 221.479L503.786 221.808ZM500.814 221.89L501.887 221.232L499.988 220.738C499.906 220.738 499.823 220.656 499.741 220.656C499.823 220.738 499.906 220.738 499.906 220.82L500.814 221.89Z" fill="#505055"/>
<path d="M510.226 218.105L508.162 219.257L504.611 217.199L506.51 216.047L507.088 216.376L505.685 217.117L506.758 217.693L507.996 217.035L508.492 217.282L507.253 218.022L508.327 218.598L509.73 217.775L510.226 218.105Z" fill="#505055"/>
<path d="M516.913 214.236L516.335 214.566L513.363 212.837C513.363 212.919 513.28 213.002 513.198 213.166C513.115 213.249 513.033 213.413 512.95 213.496L512.455 213.249C512.537 213.166 512.62 213.084 512.62 213.002C512.702 212.919 512.702 212.837 512.785 212.755C512.867 212.673 512.867 212.59 512.867 212.508C512.867 212.426 512.95 212.343 512.95 212.261L513.198 212.096L516.913 214.236Z" fill="#505055"/>
<path d="M514.188 215.306C514.271 215.636 514.106 215.882 513.775 216.129C513.445 216.376 512.95 216.459 512.454 216.376C511.959 216.294 511.381 216.129 510.803 215.8C510.143 215.471 509.812 215.142 509.73 214.813C509.647 214.483 509.73 214.236 510.143 213.99C510.886 213.578 511.959 213.66 513.115 214.401C513.693 214.648 514.106 214.977 514.188 215.306ZM511.299 215.389C512.207 215.882 512.867 216.047 513.28 215.8C513.693 215.553 513.445 215.142 512.537 214.648C511.629 214.072 510.886 213.99 510.556 214.154C510.143 214.483 510.39 214.895 511.299 215.389Z" fill="#505055"/>
<path d="M444.342 209.545V204.853C444.342 205.512 444.755 206.088 445.581 206.582V211.273C444.755 210.861 444.342 210.203 444.342 209.545Z" fill="#BCBCBC"/>
<path d="M510.72 205.347V210.038C510.72 210.614 510.307 211.273 509.482 211.684V206.993C510.307 206.581 510.72 206.005 510.72 205.347Z" fill="#393940"/>
<path d="M509.482 207.076V211.767L480.917 228.31L480.999 223.619L509.482 207.076Z" fill="#323237"/>
<path d="M475.055 223.618V228.227L445.581 211.273V206.581L475.055 223.618Z" fill="#323237"/>
<path d="M509.483 203.701C511.134 204.607 511.134 206.171 509.483 207.076L480.999 223.619C479.348 224.524 476.789 224.524 475.138 223.619L445.581 206.582C443.93 205.677 443.93 204.113 445.581 203.208L474.147 186.665C475.798 185.759 478.44 185.759 480.009 186.665L509.483 203.701Z" fill="#505055"/>
<path d="M480.999 223.619V228.31C479.348 229.215 476.788 229.215 475.137 228.31V223.619C476.706 224.524 479.348 224.524 480.999 223.619Z" fill="#393940"/>
<g opacity="0.25">
<path opacity="0.25" d="M496.768 197.282C504.611 201.808 504.611 209.051 496.85 213.578C489.09 218.105 476.458 218.105 468.615 213.578C460.772 209.051 460.772 201.808 468.532 197.282C476.293 192.755 488.925 192.755 496.768 197.282Z" fill="url(#paint3_linear)"/>
</g>
<path d="M492.31 202.96L492.227 205.676C492.227 207.816 490.824 210.039 487.934 211.685C482.155 215.059 472.826 215.059 466.964 211.685C464.074 210.039 462.588 207.816 462.588 205.594L462.671 202.878C462.671 205.1 464.157 207.323 467.047 208.969C472.826 212.343 482.238 212.343 488.017 208.969C490.906 207.323 492.31 205.183 492.31 202.96Z" fill="#323237"/>
<path d="M492.888 175.883L492.805 204.524C492.805 206.746 491.319 209.051 488.347 210.779C482.32 214.236 472.578 214.236 466.551 210.779C463.496 209.051 462.01 206.746 462.01 204.442L462.093 175.8C462.093 178.105 463.579 180.409 466.634 182.138C472.66 185.594 482.403 185.594 488.43 182.138C491.402 180.409 492.888 178.105 492.888 175.883Z" fill="url(#paint4_linear)"/>
<path d="M492.97 175.224L492.888 178.105C492.888 180.41 491.402 182.632 488.43 184.36C482.403 187.817 472.661 187.817 466.551 184.36C463.496 182.632 462.01 180.327 462.01 178.023L462.093 175.142C462.093 177.447 463.579 179.751 466.634 181.479C472.661 184.936 482.485 184.936 488.512 181.479C491.484 179.751 492.97 177.447 492.97 175.224Z" fill="#CDCDD0"/>
<path d="M488.433 169.463C494.46 172.92 494.542 178.599 488.515 182.138C482.488 185.595 472.664 185.595 466.637 182.138C460.61 178.681 460.527 173.002 466.554 169.546C472.581 166.006 482.406 166.006 488.433 169.463Z" fill="white"/>
<path d="M485.87 170.945C490.493 173.578 490.493 177.94 485.953 180.574C481.329 183.208 473.899 183.208 469.275 180.574C464.652 177.94 464.652 173.578 469.193 170.945C473.816 168.311 481.247 168.311 485.87 170.945Z" fill="#CDCDD0"/>
<path d="M469.193 172.344C473.816 169.71 481.247 169.71 485.87 172.344C487.852 173.496 489.007 174.977 489.255 176.459C489.585 174.484 488.43 172.426 485.87 170.945C481.247 168.311 473.734 168.311 469.193 170.945C466.634 172.426 465.478 174.484 465.808 176.459C466.056 174.977 467.212 173.496 469.193 172.344Z" fill="#78787D"/>
<path d="M443.435 255.881L442.444 256.457L445.499 258.185L444.921 258.597L441.866 256.786L440.793 257.362L440.297 257.115L442.939 255.552L443.435 255.881Z" fill="#505055"/>
<path d="M442.856 259.749L441.618 259.42L440.214 260.243L440.792 260.984L440.132 261.395L437.903 258.597L438.563 258.186L443.434 259.502L442.856 259.749ZM439.884 259.832L440.957 259.173L439.059 258.597C438.976 258.597 438.894 258.515 438.811 258.515C438.894 258.597 438.976 258.597 438.976 258.679L439.884 259.832Z" fill="#505055"/>
<path d="M438.646 261.642C438.646 262.054 438.316 262.383 437.655 262.795L436.664 263.371L433.114 261.313L434.105 260.737C435.426 259.996 436.664 259.914 437.82 260.572C438.398 260.819 438.646 261.231 438.646 261.642ZM436.747 262.712L437.242 262.465C437.655 262.218 437.903 261.972 437.903 261.725C437.903 261.478 437.655 261.231 437.242 260.984C436.417 260.49 435.591 260.49 434.683 260.984L434.188 261.231L436.747 262.712Z" fill="#505055"/>
<path d="M449.544 255.881L448.306 255.552L446.902 256.375L447.48 257.115L446.819 257.527L444.59 254.729L445.251 254.317L450.122 255.634L449.544 255.881ZM446.572 255.963L447.645 255.305L445.746 254.729C445.664 254.729 445.581 254.646 445.498 254.646C445.581 254.729 445.664 254.729 445.664 254.811L446.572 255.963Z" fill="#505055"/>
<path d="M452.681 253.741C452.599 253.988 452.434 254.235 452.021 254.399L450.865 255.058L447.315 253L448.471 252.342C448.801 252.177 449.131 252.012 449.544 252.012C449.874 252.012 450.204 252.012 450.452 252.177C450.617 252.259 450.782 252.424 450.782 252.589C450.782 252.753 450.782 252.918 450.617 253.082C450.865 252.918 451.195 252.918 451.443 252.918C451.773 252.918 452.021 253 452.268 253.165C452.599 253.247 452.764 253.494 452.681 253.741ZM451.03 254.482L451.525 254.152C451.773 253.988 451.856 253.905 451.856 253.741C451.856 253.576 451.773 253.494 451.608 253.412C451.278 253.165 450.782 253.247 450.287 253.494L449.874 253.741L451.03 254.482ZM449.461 253.494L449.874 253.247C450.122 253.165 450.204 253 450.204 252.918C450.204 252.753 450.122 252.671 449.957 252.589C449.627 252.424 449.296 252.424 448.884 252.671L448.471 252.918L449.461 253.494Z" fill="#505055"/>
<path d="M469.606 244.276L469.028 244.606L466.056 242.877C466.056 242.959 465.974 243.042 465.891 243.206C465.808 243.289 465.726 243.453 465.643 243.536L465.148 243.289C465.231 243.206 465.313 243.124 465.313 243.042C465.396 242.959 465.396 242.877 465.478 242.795C465.561 242.713 465.561 242.63 465.561 242.548C465.561 242.466 465.643 242.383 465.643 242.301L465.891 242.136L469.606 244.276Z" fill="#505055"/>
<path d="M466.881 245.346C466.964 245.676 466.798 245.923 466.468 246.169C466.055 246.416 465.643 246.499 465.147 246.416C464.652 246.334 464.074 246.169 463.496 245.84C462.836 245.511 462.505 245.1 462.423 244.853C462.34 244.523 462.505 244.276 462.836 244.03C463.579 243.618 464.569 243.7 465.808 244.441C466.468 244.688 466.798 245.017 466.881 245.346ZM464.074 245.429C464.982 245.923 465.643 246.087 466.055 245.84C466.468 245.593 466.221 245.182 465.312 244.688C464.404 244.112 463.661 244.03 463.248 244.194C462.836 244.523 463.083 244.935 464.074 245.429Z" fill="#505055"/>
<path d="M462.918 248.145L460.937 249.297L457.387 247.239L459.286 246.087L459.781 246.416L458.46 247.157L459.451 247.733L460.689 247.075L461.185 247.322L459.946 248.062L461.019 248.639L462.423 247.816L462.918 248.145Z" fill="#505055"/>
<path d="M459.121 249.297C459.286 249.379 459.451 249.544 459.451 249.626C459.534 249.708 459.534 249.873 459.451 249.955C459.368 250.037 459.286 250.202 459.203 250.284C459.121 250.367 458.956 250.531 458.708 250.614C458.625 250.614 458.543 250.696 458.46 250.696C458.378 250.778 458.295 250.778 458.13 250.86C458.047 250.943 457.882 250.943 457.8 250.943C457.717 250.943 457.635 251.025 457.552 251.025L456.974 250.696C457.057 250.696 457.222 250.696 457.304 250.696C457.387 250.696 457.552 250.614 457.635 250.614C457.717 250.614 457.882 250.531 457.965 250.531C458.047 250.531 458.13 250.449 458.213 250.449C458.46 250.284 458.625 250.202 458.625 250.037C458.708 249.955 458.625 249.79 458.46 249.708C458.378 249.626 458.295 249.626 458.213 249.626C458.13 249.626 457.965 249.626 457.882 249.626C457.717 249.626 457.635 249.626 457.47 249.708C457.304 249.708 457.139 249.79 456.974 249.79C456.809 249.79 456.644 249.873 456.479 249.873C456.314 249.873 456.149 249.873 455.983 249.873C455.818 249.873 455.653 249.873 455.488 249.79C455.323 249.79 455.24 249.708 455.075 249.626C454.91 249.544 454.828 249.379 454.745 249.297C454.662 249.214 454.662 249.05 454.745 248.967C454.828 248.885 454.828 248.721 454.993 248.638C455.075 248.556 455.24 248.391 455.406 248.309C455.736 248.062 456.066 247.98 456.314 247.897L456.892 248.227C456.561 248.227 456.231 248.391 455.901 248.556C455.818 248.638 455.736 248.638 455.653 248.721C455.571 248.803 455.571 248.803 455.488 248.885C455.488 248.967 455.405 248.967 455.488 249.05C455.488 249.132 455.571 249.132 455.653 249.214C455.736 249.297 455.818 249.297 455.901 249.297C455.983 249.297 456.066 249.297 456.231 249.297C456.314 249.297 456.479 249.297 456.644 249.214C456.809 249.214 456.974 249.132 457.139 249.132C457.304 249.132 457.552 249.05 457.717 249.05C457.882 249.05 458.047 249.05 458.213 249.05C458.378 249.05 458.543 249.05 458.708 249.132C458.791 249.132 458.956 249.214 459.121 249.297Z" fill="#505055"/>
<path d="M456.562 251.848L455.324 251.519L453.92 252.342L454.498 253.083L453.838 253.494L451.608 250.696L452.269 250.284L457.14 251.601L456.562 251.848ZM453.59 251.93L454.663 251.272L452.764 250.696C452.682 250.696 452.599 250.614 452.517 250.614C452.599 250.696 452.682 250.696 452.682 250.778L453.59 251.93Z" fill="#505055"/>
<path d="M397.035 239.667V234.976C397.035 235.634 397.448 236.21 398.274 236.704V241.395C397.448 240.901 397.035 240.243 397.035 239.667Z" fill="#393940"/>
<path d="M463.413 235.387V240.079C463.413 240.655 463 241.313 462.175 241.725V237.033C463 236.622 463.413 236.046 463.413 235.387Z" fill="#393940"/>
<path d="M462.257 237.116L462.174 241.807L433.691 258.35V253.659L462.257 237.116Z" fill="#323237"/>
<path d="M427.83 253.659V258.35L398.273 241.313L398.356 236.704L427.83 253.659Z" fill="#323237"/>
<path d="M462.177 233.741C463.828 234.646 463.828 236.21 462.177 237.115L433.611 253.658C431.96 254.564 429.4 254.564 427.749 253.658L398.275 236.704C396.624 235.799 396.624 234.235 398.275 233.329L426.841 216.786C428.492 215.881 431.134 215.881 432.703 216.786L462.177 233.741Z" fill="#505055"/>
<path d="M433.692 253.659V258.35C432.041 259.255 429.481 259.255 427.83 258.35V253.659C429.399 254.564 432.041 254.564 433.692 253.659Z" fill="#393940"/>
<g opacity="0.25">
<path opacity="0.25" d="M449.461 227.322C457.304 231.848 457.304 239.091 449.543 243.618C441.783 248.145 429.151 248.145 421.308 243.618C413.465 239.091 413.465 231.848 421.225 227.322C429.068 222.795 441.7 222.795 449.461 227.322Z" fill="url(#paint5_linear)"/>
</g>
<path d="M445.003 233.001L444.921 235.717C444.921 237.856 443.517 240.079 440.628 241.725C434.848 245.099 425.519 245.099 419.657 241.725C416.768 240.079 415.282 237.856 415.282 235.634L415.364 232.918C415.364 235.14 416.85 237.363 419.74 239.009C425.519 242.383 434.931 242.383 440.71 239.009C443.6 237.363 445.003 235.223 445.003 233.001Z" fill="#323237"/>
<path d="M445.664 205.922L445.581 234.564C445.581 236.786 444.095 239.091 441.123 240.819C435.096 244.276 425.354 244.276 419.327 240.819C416.272 239.091 414.786 236.786 414.786 234.482L414.869 205.84C414.869 208.145 416.355 210.449 419.41 212.177C425.436 215.634 435.179 215.634 441.206 212.177C444.178 210.449 445.664 208.145 445.664 205.922Z" fill="url(#paint6_linear)"/>
<path d="M445.746 205.264L445.664 208.145C445.664 210.449 444.177 212.671 441.205 214.4C435.178 217.857 425.436 217.857 419.327 214.4C416.272 212.671 414.786 210.367 414.786 208.063L414.869 205.182C414.869 207.486 416.355 209.791 419.409 211.519C425.436 214.976 435.261 214.976 441.288 211.519C444.26 209.791 445.746 207.486 445.746 205.264Z" fill="#CDCDD0"/>
<path d="M441.207 199.503C447.233 202.96 447.316 208.639 441.289 212.178C435.262 215.634 425.438 215.634 419.411 212.178C413.384 208.721 413.301 203.042 419.328 199.585C425.355 196.046 435.097 196.046 441.207 199.503Z" fill="white"/>
<path d="M438.646 200.985C443.269 203.618 443.269 207.98 438.728 210.614C434.105 213.248 426.675 213.248 422.051 210.614C417.428 207.98 417.428 203.618 421.969 200.985C426.509 198.351 434.023 198.351 438.646 200.985Z" fill="#CDCDD0"/>
<path d="M421.887 202.384C426.51 199.75 433.941 199.75 438.564 202.384C440.545 203.536 441.701 205.017 441.949 206.499C442.279 204.524 441.123 202.466 438.564 200.985C433.941 198.351 426.428 198.351 421.887 200.985C419.328 202.466 418.172 204.524 418.502 206.499C418.832 205.017 419.905 203.536 421.887 202.384Z" fill="#78787D"/>
<path opacity="0.35" d="M289.543 125.348L311.338 113.167C311.669 113.003 312.081 113.003 312.412 113.167L342.876 130.78C343.619 131.192 343.619 132.262 342.876 132.673L321.08 144.854C320.75 145.019 320.337 145.019 320.007 144.854L289.46 127.241C288.717 126.83 288.717 125.76 289.543 125.348Z" fill="url(#paint7_linear)"/>
<path opacity="0.35" d="M320.089 216.705L310.43 211.355C310.265 211.273 310.1 211.273 309.934 211.355L296.477 219.091C296.147 219.256 296.147 219.75 296.477 219.914L306.137 225.264C306.302 225.346 306.467 225.346 306.632 225.264L320.089 217.528C320.42 217.363 320.42 216.869 320.089 216.705Z" fill="url(#paint8_linear)"/>
<path opacity="0.35" d="M343.372 202.302L333.712 196.952C333.547 196.87 333.382 196.87 333.217 196.952L319.759 204.688C319.429 204.853 319.429 205.347 319.759 205.511L329.419 210.861C329.584 210.943 329.749 210.943 329.914 210.861L343.372 203.125C343.702 202.96 343.702 202.466 343.372 202.302Z" fill="url(#paint9_linear)"/>
<path opacity="0.35" d="M318.439 153.825L294.331 140.41C293.918 140.163 293.506 140.163 293.093 140.41L259.408 159.833C258.583 160.327 258.583 161.479 259.408 161.973L283.516 175.388C283.929 175.635 284.341 175.635 284.754 175.388L318.439 155.965C319.264 155.471 319.264 154.319 318.439 153.825Z" fill="url(#paint10_linear)"/>
<path opacity="0.35" d="M357.985 138.023L333.878 125.019C333.465 124.854 333.052 124.854 332.639 125.019L327.356 128.558C325.952 129.546 326.035 131.686 327.521 132.509L349.564 144.36C350.307 144.772 351.215 144.689 351.958 144.196L357.985 140.08C358.811 139.587 358.728 138.434 357.985 138.023Z" fill="url(#paint11_linear)"/>
<path opacity="0.35" d="M389.935 207.24L365.828 194.236C365.415 194.071 365.002 194.071 364.59 194.236L362.443 193.083C361.039 194.071 361.122 196.211 362.608 197.034L385.064 210.696C385.807 211.108 386.716 211.026 387.459 210.532L389.935 209.297C390.761 208.803 390.761 207.651 389.935 207.24Z" fill="url(#paint12_linear)"/>
<path opacity="0.35" d="M410.08 193.824L385.972 180.82C385.56 180.656 385.147 180.656 384.734 180.82L382.588 179.668C381.184 180.656 381.267 182.796 382.753 183.619L405.209 197.281C405.952 197.693 406.86 197.61 407.603 197.117L410.08 195.882C410.906 195.388 410.906 194.236 410.08 193.824Z" fill="url(#paint13_linear)"/>
<path opacity="0.35" d="M429.812 182.714L405.704 169.71C405.292 169.545 404.879 169.545 404.466 169.71L402.319 168.557C400.916 169.545 400.998 171.685 402.485 172.508L424.941 186.17C425.684 186.582 426.592 186.5 427.335 186.006L429.812 184.771C430.637 184.36 430.637 183.207 429.812 182.714Z" fill="url(#paint14_linear)"/>
<path opacity="0.35" d="M322.567 188.804L312.907 183.454C312.742 183.372 312.577 183.372 312.412 183.454L298.955 191.191C298.624 191.355 298.624 191.849 298.955 192.014L308.614 197.364C308.779 197.446 308.944 197.446 309.11 197.364L322.567 189.627C322.897 189.462 322.897 188.969 322.567 188.804Z" fill="url(#paint15_linear)"/>
<path d="M335.28 99.0933L335.198 136.953L290.12 111.027L290.203 73.1677L335.28 99.0933Z" fill="#185A97"/>
<path d="M335.281 99.0934L344.61 93.6614L344.528 131.603L335.198 136.953L335.281 99.0934Z" fill="#0078D4"/>
<path d="M290.201 73.1679L299.53 67.7358L344.608 93.6614L335.279 99.0935L290.201 73.1679Z" fill="#2195DC"/>
<path d="M311.091 68.3109L312.742 67.241L314.889 71.1915L313.32 72.2615L311.091 68.3109Z" fill="#A1F6FF"/>
<path d="M299.367 61.5626L301.018 60.4927L312.741 67.2416L311.09 68.3115L299.367 61.5626Z" fill="#CCFDFF"/>
<path d="M311.09 68.3114L313.319 72.2619L340.894 88.0642V94.0724L299.367 70.2044V61.5625L311.09 68.3114Z" fill="#50E6FF"/>
<path d="M313.32 72.2618L314.888 71.1919L342.546 86.9941L340.895 88.0641L313.32 72.2618Z" fill="#CCFDFF"/>
<path d="M340.896 88.0638L342.547 86.9939V92.9197L340.896 94.072V88.0638Z" fill="#A1F6FF"/>
<path d="M308.117 70.0402L309.686 68.9702L311.832 72.8385L310.264 73.9907L308.117 70.0402Z" fill="#A1F6FF"/>
<path d="M296.393 63.2914L297.962 62.2214L309.685 68.9703L308.117 70.0403L296.393 63.2914Z" fill="#CCFDFF"/>
<path d="M308.118 70.0401L310.264 73.9907L337.922 89.793V95.7188L296.312 71.9331L296.394 63.2913L308.118 70.0401Z" fill="#50E6FF"/>
<path d="M310.264 73.9909L311.832 72.8386L339.49 88.7232L337.921 89.7931L310.264 73.9909Z" fill="#CCFDFF"/>
<path d="M337.921 89.7928L339.49 88.7229V94.6487L337.921 95.7187V89.7928Z" fill="#A1F6FF"/>
<path d="M305.063 71.6862L306.632 70.6162L308.861 74.4845L307.21 75.6367L305.063 71.6862Z" fill="#A1F6FF"/>
<path d="M293.341 64.9371L294.909 63.8672L306.633 70.6161L305.064 71.686L293.341 64.9371Z" fill="#CCFDFF"/>
<path d="M305.064 71.6861L307.21 75.6367L334.868 91.439V97.3648L293.34 73.5791V64.9373L305.064 71.6861Z" fill="#50E6FF"/>
<path d="M307.21 75.6369L308.862 74.4846L336.519 90.3692L334.868 91.4391L307.21 75.6369Z" fill="#CCFDFF"/>
<path d="M334.868 91.4388L336.519 90.3689L336.437 96.2947L334.868 97.3647V91.4388Z" fill="#A1F6FF"/>
<path d="M300.276 178.351L300.193 194.153L286.406 186.252V170.45L300.276 178.351Z" fill="#45CAF2"/>
<path d="M300.276 178.351L313.733 170.45L313.65 186.252L300.193 194.153L300.276 178.351Z" fill="#50E6FF"/>
<path d="M286.406 170.45L299.863 162.467L313.733 170.45L300.276 178.351L286.406 170.45Z" fill="#50E6FF"/>
<path d="M322.071 190.779V207.158L307.788 198.927V182.549L322.071 190.779Z" fill="#243A5E"/>
<path d="M322.071 190.779L336.023 182.549V198.927L322.071 207.158V190.779Z" fill="#1D4A79"/>
<path d="M307.789 182.549L321.742 174.319L336.025 182.549L322.072 190.779L307.789 182.549Z" fill="#156AB3"/>
<path d="M300.524 205.923L300.441 222.054L286.406 213.906V197.775L300.524 205.923Z" fill="#0078D4"/>
<path d="M300.523 205.923L314.228 197.775V213.906L300.44 222.054L300.523 205.923Z" fill="#2195DC"/>
<path d="M286.406 197.775L300.193 189.627L314.228 197.775L300.523 205.923L286.406 197.775Z" fill="#45CAF2"/>
<path d="M408.924 139.751L418.089 145.019L418.006 181.808L385.89 163.29L386.055 116.706L409.007 129.875L408.924 139.751Z" fill="#2195DC"/>
<path d="M410.493 144.936V147.57L391.917 136.788V134.154L410.493 144.936Z" fill="#50E6FF"/>
<path d="M410.493 150.039V152.755L391.917 141.973V139.257L410.493 150.039Z" fill="#50E6FF"/>
<path d="M410.493 154.977V157.693L391.917 146.912V144.278L410.493 154.977Z" fill="#50E6FF"/>
<path d="M409.007 129.875L413.217 127.488L413.135 137.282L408.924 139.751L409.007 129.875Z" fill="#0078D4"/>
<path d="M386.056 116.706L390.266 114.237L413.218 127.488L409.007 129.875L386.056 116.706Z" fill="#32B0E7"/>
<path d="M409.007 129.875L413.217 127.488L422.381 142.55L418.171 145.019L409.007 129.875Z" fill="#A1F6FF"/>
<path d="M408.924 139.751L413.135 137.282L422.381 142.549L418.171 145.019L408.924 139.751Z" fill="#A1F6FF"/>
<path d="M418.171 145.019L422.381 142.55L422.216 179.339L418.006 181.808L418.171 145.019Z" fill="#32B0E7"/>
<path d="M409.007 129.875L418.171 145.018L408.924 139.751L409.007 129.875Z" fill="#50E6FF"/>
<path d="M388.202 150.534L397.366 155.801L397.284 192.591L365.168 174.072L365.333 127.489L388.285 140.657L388.202 150.534Z" fill="#0078D4"/>
<path d="M389.771 155.718V158.352L371.195 147.57V144.937L389.771 155.718Z" fill="#50E6FF"/>
<path d="M389.771 160.821V163.537L371.195 152.755V150.039L389.771 160.821Z" fill="#50E6FF"/>
<path d="M389.771 165.759V168.475L371.195 157.694V155.06L389.771 165.759Z" fill="#50E6FF"/>
<path d="M388.285 140.657L392.495 138.27L392.413 148.064L388.202 150.533L388.285 140.657Z" fill="#0078D4"/>
<path d="M365.332 127.488L369.543 125.019L392.494 138.27L388.284 140.657L365.332 127.488Z" fill="#32B0E7"/>
<path d="M388.285 140.657L392.495 138.27L401.659 153.332L397.449 155.801L388.285 140.657Z" fill="#A1F6FF"/>
<path d="M388.202 150.533L392.413 148.064L401.659 153.332L397.449 155.801L388.202 150.533Z" fill="#A1F6FF"/>
<path d="M397.449 155.801L401.66 153.332L401.495 190.121L397.284 192.59L397.449 155.801Z" fill="#2195DC"/>
<path d="M388.285 140.656L397.449 155.8L388.202 150.533L388.285 140.656Z" fill="#50E6FF"/>
<path d="M365.91 162.713L375.074 167.981L374.992 204.77L342.876 186.252L343.041 139.668L365.993 152.837L365.91 162.713Z" fill="#185A97"/>
<path d="M367.561 167.981L367.478 170.615L348.902 159.833V157.199L367.561 167.981Z" fill="#0078D4"/>
<path d="M367.561 173.084L367.478 175.718L348.902 165.018V162.302L367.561 173.084Z" fill="#0078D4"/>
<path d="M367.561 178.022L367.478 180.738L348.902 169.956V167.24L367.561 178.022Z" fill="#0078D4"/>
<path d="M365.992 152.919L370.203 150.532V160.326L365.91 162.713L365.992 152.919Z" fill="#0078D4"/>
<path d="M343.04 139.751L347.25 137.282L370.202 150.533L365.991 152.92L343.04 139.751Z" fill="#2195DC"/>
<path d="M365.993 152.919L370.204 150.532L379.368 165.594L375.157 168.063L365.993 152.919Z" fill="#32B0E7"/>
<path d="M375.157 168.064L379.367 165.594L379.202 202.384L374.992 204.853L375.157 168.064Z" fill="#0078D4"/>
<path d="M365.992 152.919L375.156 168.063L365.91 162.714L365.992 152.919Z" fill="#0078D4"/>
<path opacity="0.35" d="M82.7296 202.384L72.5747 196.623C72.4096 196.54 72.2445 196.54 72.0794 196.623L57.879 204.935C57.5488 205.1 57.5488 205.676 57.879 205.841L68.0339 211.602C68.199 211.684 68.3642 211.684 68.5293 211.602L82.7296 203.289C83.0598 203.125 83.0598 202.548 82.7296 202.384Z" fill="url(#paint16_linear)"/>
<path opacity="0.35" d="M108.405 186.746L98.2505 180.985C98.0853 180.903 97.9202 180.903 97.7551 180.985L83.6373 189.298C83.3071 189.462 83.3071 190.038 83.6373 190.203L93.7922 195.964C93.9573 196.047 94.1225 196.047 94.2876 195.964L108.488 187.652C108.818 187.487 108.818 186.993 108.405 186.746Z" fill="url(#paint17_linear)"/>
<path opacity="0.35" d="M133.091 170.697L122.937 164.936C122.771 164.854 122.606 164.854 122.441 164.936L108.241 173.249C107.911 173.413 107.911 173.989 108.241 174.154L118.396 179.915C118.561 179.998 118.726 179.998 118.891 179.915L133.091 171.603C133.422 171.438 133.422 170.944 133.091 170.697Z" fill="url(#paint18_linear)"/>
<path opacity="0.35" d="M185.27 139.916L175.115 134.155C174.95 134.072 174.785 134.072 174.62 134.155L160.42 142.467C160.089 142.632 160.089 143.208 160.42 143.372L170.574 149.134C170.74 149.216 170.905 149.216 171.07 149.134L185.27 140.821C185.6 140.656 185.6 140.08 185.27 139.916Z" fill="url(#paint19_linear)"/>
<path opacity="0.35" d="M212.101 125.019L201.698 119.093C201.533 119.011 201.368 119.011 201.203 119.093L186.672 127.653C186.342 127.899 186.342 128.393 186.672 128.558L197.075 134.484C197.24 134.566 197.405 134.566 197.57 134.484L212.101 125.924C212.431 125.76 212.431 125.266 212.101 125.019Z" fill="url(#paint20_linear)"/>
<path opacity="0.35" d="M237.53 109.134L227.128 103.29C226.962 103.208 226.797 103.208 226.632 103.29L212.184 111.768C211.854 112.015 211.854 112.508 212.184 112.673L222.587 118.517C222.752 118.599 222.917 118.599 223.082 118.517L237.53 110.039C237.943 109.875 237.943 109.299 237.53 109.134Z" fill="url(#paint21_linear)"/>
<path opacity="0.35" d="M264.279 94.3196L254.124 88.5583C253.959 88.476 253.794 88.476 253.629 88.5583L239.428 96.871C239.098 97.0356 239.098 97.6117 239.428 97.7763L249.583 103.538C249.748 103.62 249.913 103.62 250.079 103.538L264.279 95.2249C264.692 94.978 264.692 94.4842 264.279 94.3196Z" fill="url(#paint22_linear)"/>
<path opacity="0.35" d="M291.028 79.4226L280.874 73.6613C280.708 73.579 280.543 73.579 280.378 73.6613L266.178 81.974C265.848 82.1386 265.848 82.7147 266.178 82.8793L276.333 88.6405C276.498 88.7228 276.663 88.7228 276.828 88.6405L291.028 80.3279C291.359 80.081 291.359 79.5872 291.028 79.4226Z" fill="url(#paint23_linear)"/>
<path d="M285.414 9.29994L269.892 18.3533L254.289 9.29994L269.81 0.328857L285.414 9.29994Z" fill="#50E6FF"/>
<path d="M285.413 9.29932L285.248 76.3766L269.727 85.43L269.892 18.3527L285.413 9.29932Z" fill="#50E6FF"/>
<path d="M269.892 18.3527L269.727 85.43L254.124 76.3766L254.289 9.29932L269.892 18.3527Z" fill="#50E6FF"/>
<path d="M259.326 24.4435L243.805 33.4969L228.201 24.4435L243.722 15.4724L259.326 24.4435Z" fill="#45CAF2"/>
<path d="M259.327 24.4434L259.161 91.5206L243.64 100.574L243.805 33.4967L259.327 24.4434Z" fill="#45CAF2"/>
<path d="M243.805 33.4967L243.64 100.574L228.036 91.5206L228.201 24.4434L243.805 33.4967Z" fill="#45CAF2"/>
<path d="M232.493 39.4227L216.972 48.4761L201.368 39.4227L216.889 30.4517L232.493 39.4227Z" fill="#32B0E7"/>
<path d="M232.494 39.4226L232.328 106.5L216.807 115.553L216.972 48.476L232.494 39.4226Z" fill="#32B0E7"/>
<path d="M216.973 48.476L216.807 115.553L201.204 106.5L201.369 39.4226L216.973 48.476Z" fill="#32B0E7"/>
<path d="M205.989 54.5668L190.468 63.5378L174.864 54.5668L190.386 45.5957L205.989 54.5668Z" fill="#2195DC"/>
<path d="M205.991 54.5664L205.825 121.644L190.304 130.615L190.469 63.5375L205.991 54.5664Z" fill="#2195DC"/>
<path d="M190.47 63.5375L190.305 130.615L174.618 121.644L174.866 54.5664L190.47 63.5375Z" fill="#2195DC"/>
<path d="M179.655 69.6283L164.134 78.6817L148.53 69.6283L164.051 60.6572L179.655 69.6283Z" fill="#0078D4"/>
<path d="M179.655 69.6279L179.49 136.705L163.968 145.759L164.133 78.6813L179.655 69.6279Z" fill="#0078D4"/>
<path d="M164.133 78.6813L163.968 145.759L148.364 136.705L148.529 69.6279L164.133 78.6813Z" fill="#0078D4"/>
<path d="M153.401 84.6078L137.88 93.6612L122.276 84.6078L137.797 75.6367L153.401 84.6078Z" fill="#156AB3"/>
<path d="M153.402 84.6077L153.237 151.767L137.715 160.738L137.88 93.6611L153.402 84.6077Z" fill="#156AB3"/>
<path d="M137.88 93.6611L137.715 160.738L122.111 151.767L122.276 84.6077L137.88 93.6611Z" fill="#156AB3"/>
<path d="M127.063 99.7511L111.541 108.722L95.9375 99.7511L111.459 90.78L127.063 99.7511Z" fill="#185A97"/>
<path d="M127.063 99.7507L126.898 166.828L111.377 175.881L111.542 108.722L127.063 99.7507Z" fill="#185A97"/>
<path d="M111.542 108.722L111.377 175.881L95.7729 166.828L95.9381 99.7507L111.542 108.722Z" fill="#185A97"/>
<path d="M100.81 115.06L85.2884 124.031L69.6846 115.06L85.2058 106.006L100.81 115.06Z" fill="#1D4A79"/>
<path d="M100.811 115.06L100.646 182.137L85.1245 191.108L85.2896 124.031L100.811 115.06Z" fill="#1D4A79"/>
<path d="M85.2895 124.031L85.1243 191.108L69.5205 182.137L69.6856 115.06L85.2895 124.031Z" fill="#1D4A79"/>
<path d="M74.4713 130.286L58.95 139.257L43.3462 130.286L58.8675 121.232L74.4713 130.286Z" fill="#243A5E"/>
<path d="M74.4736 130.285L74.2259 197.362L58.7046 206.333L58.9523 139.256L74.4736 130.285Z" fill="#243A5E"/>
<path d="M58.9521 139.256L58.7044 206.333L43.1006 197.362L43.3483 130.285L58.9521 139.256Z" fill="#243A5E"/>
<path d="M42.3584 179.586H42.4394" stroke="white" stroke-width="1.83406" stroke-miterlimit="10" stroke-linecap="round"/>
<path d="M284.342 41.8923H284.423" stroke="white" stroke-width="1.83406" stroke-miterlimit="10" stroke-linecap="round"/>
<path d="M40.459 184.031C40.459 184.031 63.0804 127.817 69.0248 112.756C74.9691 97.6942 94.5358 58.5177 115.506 57.1186C139.448 55.4725 159.18 92.6737 167.519 107.406" stroke="#50E6FF" stroke-width="1.83406" stroke-miterlimit="10" stroke-linecap="round"/>
<path d="M43.1011 177.694C43.1011 177.694 54.3292 146.501 61.5945 134.731C68.8598 122.88 72.8227 119.67 78.3542 118.929C83.8032 118.188 90.0777 121.727 94.2057 128.065C98.3337 134.402 110.057 150.534 116.084 158.517C122.194 166.5 125.579 168.723 133.009 168.146C140.439 167.57 146.053 158.517 149.026 152.92C151.998 147.324 164.712 116.131 167.849 107.736C170.987 99.3408 181.307 75.5551 185.435 66.584C189.563 57.6129 196.58 46.9135 203.928 46.502C211.276 46.0905 216.395 50.4525 225.559 62.7158C234.723 74.979 239.511 85.2669 246.446 91.1927C253.381 97.1186 256.354 97.1186 261.968 95.1433C267.582 93.168 274.93 82.304 278.149 73.7444C279.801 69.3 284.424 41.3992 284.424 41.3992" stroke="#50E6FF" stroke-width="1.46725" stroke-miterlimit="10" stroke-linecap="round"/>
<path d="M40.4595 184.031C40.4595 184.031 49.0457 164.854 53.7516 157.858C58.4575 150.945 60.6041 146.006 68.4473 145.759C76.2905 145.43 82.4825 153.002 86.1977 156.87C89.9129 160.739 95.8572 167.076 102.627 165.43C109.48 163.784 115.176 154.237 120.13 143.866C125.001 133.496 130.945 122.468 134.33 115.966C137.715 109.464 142.173 100.163 149.851 97.7766C157.53 95.3898 167.767 107.653 167.767 107.653C167.767 107.653 178.252 119.916 187.746 116.624C197.241 113.414 203.598 97.6119 206.405 91.6861C209.212 85.7602 217.551 68.4765 220.77 62.633C223.99 56.7071 229.935 49.0529 236.622 48.7237C243.309 48.3945 250.657 56.7071 254.95 61.2338C259.243 65.8428 264.858 70.3695 272.288 68.065C279.718 65.6782 284.342 41.3164 284.342 41.3164" stroke="#50E6FF" stroke-width="1.46725" stroke-miterlimit="10" stroke-linecap="round"/>
<path d="M40.459 184.03C40.459 184.03 51.6046 163.043 58.5396 160.327C65.4747 157.611 65.8049 158.681 69.9329 160.162C74.0609 161.644 80.5006 165.43 86.61 163.948C92.7195 162.467 97.0951 156.047 99.3243 152.837C101.553 149.71 109.892 136.047 114.02 130.698C118.148 125.348 121.368 122.961 126.487 122.961C131.605 122.961 136.559 125.266 139.283 126.582C142.008 127.899 147.209 130.615 154.722 124.607C162.235 118.599 170.161 104.443 173.546 99.5046C176.931 94.5664 180.811 88.4759 186.755 87.0768C192.7 85.6776 198.644 88.5582 202.607 90.0397C206.652 91.5212 211.606 93.4964 218.211 88.1467C224.815 82.797 231.338 70.9453 234.145 66.6655C236.952 62.3034 242.814 51.4394 249.831 50.6986C256.849 49.9579 258.252 51.3571 265.022 54.32C271.792 57.2006 272.37 56.5422 277.489 52.6739C282.607 48.8057 284.341 41.6453 284.341 41.6453" stroke="#50E6FF" stroke-width="1.46725" stroke-miterlimit="10" stroke-linecap="round"/>
<path opacity="0.35" d="M66.7018 227.158L153.803 178.599C155.206 177.858 156.857 177.858 158.178 178.599L279.624 248.721C282.596 250.449 282.596 254.729 279.541 256.458L192.523 304.934C191.12 305.675 189.468 305.675 188.148 304.934L66.7018 234.812C63.7296 233.083 63.7296 228.804 66.7018 227.158Z" fill="url(#paint24_linear)"/>
<path d="M92.2949 213.578L94.7717 216.787L214.731 287.074C217.291 288.556 220.511 287.815 222.079 285.346L276.404 200.162L276.982 197.199L277.477 198.434C278.055 199.833 277.972 201.479 277.147 202.796L222.74 287.898C221.254 290.284 218.116 291.025 215.722 289.626L95.0194 219.092C93.781 218.351 92.8728 217.117 92.6252 215.635L92.2949 213.578Z" fill="#505055"/>
<path d="M93.9455 216.293L216.547 288.062C218.116 288.967 220.097 288.474 221.088 286.992L276.568 199.915C277.559 198.351 277.064 196.211 275.412 195.224L152.893 123.455C151.325 122.55 149.343 123.044 148.353 124.525L92.8722 211.602C91.7989 213.166 92.2943 215.306 93.9455 216.293Z" fill="#78787D"/>
<path d="M100.881 213.083L216.878 280.984L268.313 199.421L152.399 131.438L100.881 213.083Z" fill="#323237"/>
<path d="M208.871 242.054L209.284 241.313L138.613 199.091L138.2 199.832L208.871 242.054Z" fill="#505055"/>
<path d="M213.164 234.893L213.576 234.152L142.905 191.931L142.492 192.671L213.164 234.893Z" fill="#505055"/>
<path d="M217.457 227.815L217.87 227.074L147.199 184.853L146.786 185.593L217.457 227.815Z" fill="#505055"/>
<path d="M221.667 220.655L222.08 219.914L151.409 177.692L150.996 178.433L221.667 220.655Z" fill="#505055"/>
<path d="M225.961 213.577L226.374 212.836L155.702 170.614L155.29 171.355L225.961 213.577Z" fill="#505055"/>
<path d="M207.302 244.605L207.715 243.864L137.126 201.642L136.713 202.383L207.302 244.605Z" fill="#0078D4"/>
<path d="M201.688 237.691L208.953 241.971L214.732 232.342L207.467 228.062L201.688 237.691Z" fill="#1D4A79"/>
<path d="M192.606 232.26L199.872 236.622L207.88 223.371L200.615 219.009L192.606 232.26Z" fill="#185A97"/>
<path d="M183.608 226.91L190.873 231.189L200.946 214.4L193.68 210.12L183.608 226.91Z" fill="#156AB3"/>
<path d="M174.608 221.478L181.874 225.84L195.248 203.618L187.983 199.256L174.608 221.478Z" fill="#0078D4"/>
<path d="M165.279 215.963L172.545 220.243L184.681 200.079L177.416 195.799L165.279 215.963Z" fill="#2195DC"/>
<path d="M156.28 210.531L163.545 214.894L173.535 198.268L166.27 193.906L156.28 210.531Z" fill="#32B0E7"/>
<path d="M147.281 205.181L154.546 209.461L169.985 183.782L162.72 179.503L147.281 205.181Z" fill="#45CAF2"/>
<path d="M138.2 199.75L145.465 204.112L163.711 173.742L156.445 169.38L138.2 199.75Z" fill="#50E6FF"/>
<path d="M131.708 210.785L136.211 213.541L138.976 209.052L134.473 206.296L131.708 210.785Z" fill="#505055"/>
<path d="M162.472 227.157L162.968 226.498L138.695 212.013L138.2 212.671L162.472 227.157Z" fill="#505055"/>
<path d="M161.647 228.474L162.143 227.815L137.87 213.33L137.375 213.988L161.647 228.474Z" fill="#323237"/>
<path d="M230.915 204.852L232.731 202.466L196.074 180.408L194.258 182.795L230.915 204.852Z" fill="#323237"/>
<path d="M313.155 103.62L309.192 145.924L255.775 117.118L260.481 75.8838C260.564 74.8961 261.72 74.32 262.545 74.8138L313.155 103.62Z" fill="#0078D4"/>
<path d="M313.155 103.62L309.192 145.924L255.775 117.118L260.481 75.5545C260.564 74.7314 261.472 74.2376 262.215 74.6491L313.155 103.62Z" fill="#505055"/>
<path d="M254.784 115.965L219.118 136.294L222.585 138.517L272.534 166.5L273.607 167.158L308.86 147.158L310.099 146.5L309.356 145.348L256.517 115.883C255.939 115.636 255.279 115.636 254.784 115.965Z" fill="#78787D"/>
<path d="M264.279 148.393L256.023 153.084C255.776 153.249 255.528 153.249 255.28 153.084L242.896 146.089C242.649 145.924 242.649 145.595 242.896 145.513L250.987 140.739C251.235 140.574 251.482 140.574 251.73 140.739L264.279 147.735C264.527 147.899 264.527 148.229 264.279 148.393Z" fill="#CDCDD0"/>
<path d="M219.119 135.965C219.284 136.212 219.532 136.624 219.862 136.871C226.137 141.315 269.976 165.595 271.38 166.418C272.948 167.241 272.866 167.57 275.012 166.335C276.911 165.265 303.413 150.369 309.027 146.912C309.687 146.5 309.687 145.677 309.77 145.677C310.1 145.43 310.265 147.653 310.183 148.64C310.1 148.969 309.77 149.545 309.44 149.71C305.559 152.097 276.746 168.475 275.342 169.463C272.866 171.191 272.288 170.78 270.719 169.545C268.49 167.817 223.412 142.55 219.367 139.669C219.119 139.504 219.037 139.258 219.037 139.011V136.13C218.954 136.048 219.037 135.636 219.119 135.965Z" fill="#0078D4"/>
<path d="M219.119 135.965C219.284 136.212 219.532 136.624 219.862 136.871C226.136 141.315 269.976 165.595 271.379 166.418C272.948 167.241 272.865 167.57 275.012 166.335C276.911 165.265 303.413 150.369 309.027 146.912C309.687 146.5 309.77 145.677 309.77 145.677C310.1 145.43 310.265 147.653 310.1 148.64C310.017 148.969 309.687 149.545 309.357 149.71C305.477 152.097 276.663 168.475 275.26 169.463C272.783 171.191 272.122 170.697 270.636 169.545C268.407 167.817 223.329 142.55 219.284 139.669C219.036 139.504 218.954 139.258 218.954 139.011V136.13C218.954 136.048 219.036 135.636 219.119 135.965Z" fill="#505055"/>
<path d="M271.874 167.24L219.366 137.364C219.036 137.035 219.036 136.706 219.036 136.459C219.036 136.212 219.201 135.883 219.448 135.718L254.371 115.636C254.784 115.389 255.362 115.389 255.775 115.636L309.604 145.183C309.934 145.348 310.099 146.006 310.099 146.418C310.099 146.829 309.934 147.158 309.604 147.323L274.268 167.158C273.855 167.405 273.443 167.487 273.03 167.487C272.617 167.57 272.204 167.487 271.874 167.24ZM220.439 136.377C220.357 136.377 220.274 136.459 220.274 136.541C220.274 136.623 220.357 136.788 220.439 136.87L272.204 166.253C272.782 166.582 273.525 166.582 274.103 166.253L308.778 146.664C308.943 146.582 309.109 146.335 309.109 146.171C309.109 145.924 309.026 145.759 308.861 145.677L255.197 116.377L220.439 136.377Z" fill="#78787D"/>
<path d="M256.436 116.048C256.436 116.048 256.601 116.624 257.179 117.2C257.51 117.611 255.941 116.541 255.941 116.541L256.436 116.048Z" fill="#78787D"/>
<path d="M258.747 114.649L306.385 140.163L309.852 105.924L263.288 79.5874C263.206 79.5051 263.123 79.5051 263.04 79.5874C262.958 79.5874 262.875 79.6697 262.875 79.752C262.875 79.752 258.665 114.566 258.747 114.649Z" fill="#9B9BA0"/>
<path d="M258.747 114.649L306.385 140.163L309.852 105.924L263.288 79.5874C263.206 79.5051 263.123 79.5051 263.04 79.5874C262.958 79.5874 262.875 79.6697 262.875 79.752C262.875 79.752 258.665 114.566 258.747 114.649Z" fill="#323237"/>
<path d="M255.776 115.307C256.106 112.097 260.069 77.6121 260.069 76.2129C260.151 74.8138 261.472 73.25 263.041 73.9907C263.784 74.3199 311.421 101.727 312.164 102.139C314.063 103.373 313.815 103.785 313.733 106.254C313.733 108.147 310.265 143.126 309.935 144.442C309.522 146.335 310.348 145.842 309.109 145.759V145.677C309.109 145.677 309.109 145.677 309.027 145.677C308.779 145.677 308.531 145.348 308.614 145.101C308.614 144.936 312.247 107.406 312.247 107.406C312.494 104.608 312.082 104.278 311.173 103.62C310.43 103.126 262.545 75.3899 262.545 75.3899C262.545 75.3899 261.637 75.0607 261.142 75.6368C260.894 75.8837 260.729 76.3775 260.647 77.1183C260.481 78.5174 256.684 112.92 256.353 116.13C256.271 116.706 256.353 116.542 256.436 116.789C256.519 117.035 256.188 116.542 255.941 116.624C255.693 116.706 256.023 117.035 255.941 116.789C256.023 116.295 255.693 115.965 255.776 115.307Z" fill="#78787D"/>
<path d="M255.776 125.843L253.464 127.242L256.684 129.052L258.996 127.653L255.776 125.843Z" fill="#CDCDD0"/>
<path d="M259.821 128.147L257.592 129.546L260.234 131.028L262.545 129.628L259.821 128.147Z" fill="#CDCDD0"/>
<path d="M263.371 130.122L261.06 131.521L263.784 133.003L266.013 131.686L263.371 130.122Z" fill="#CDCDD0"/>
<path d="M253.217 127.982L247.52 124.772L245.126 126.172L250.74 129.381L253.217 127.982Z" fill="#CDCDD0"/>
<path d="M278.149 148.394L280.378 147.077L277.488 145.431L275.259 146.748L278.149 148.394Z" fill="#CDCDD0"/>
<path d="M281.369 150.204L283.598 148.887L281.204 147.57L278.975 148.887L281.369 150.204Z" fill="#CDCDD0"/>
<path d="M274.434 136.377L272.123 137.776L274.93 139.422L277.241 138.023L274.434 136.377Z" fill="#CDCDD0"/>
<path d="M275.755 140.74L273.361 142.221L276.168 143.785L278.562 142.303L275.755 140.74Z" fill="#CDCDD0"/>
<path d="M279.388 142.797L276.994 144.278L279.883 145.924L282.278 144.443L279.388 142.797Z" fill="#CDCDD0"/>
<path d="M278.727 141.48L280.957 140.163L278.15 138.517L275.838 139.916L278.727 141.48Z" fill="#CDCDD0"/>
<path d="M272.288 138.846L269.894 140.245L272.535 141.727L274.93 140.245L272.288 138.846Z" fill="#CDCDD0"/>
<path d="M282.278 143.538L284.589 142.221L281.865 140.657L279.553 141.974L282.278 143.538Z" fill="#CDCDD0"/>
<path d="M270.553 134.237L268.242 135.636L271.214 137.282L273.526 135.965L270.553 134.237Z" fill="#CDCDD0"/>
<path d="M266.921 132.18L264.609 133.497L267.417 135.143L269.728 133.743L266.921 132.18Z" fill="#CDCDD0"/>
<path d="M264.28 140.575L266.509 139.258L263.867 137.694L261.638 139.011L264.28 140.575Z" fill="#CDCDD0"/>
<path d="M267.582 142.467L269.811 141.068L267.417 139.751L265.188 141.068L267.582 142.467Z" fill="#CDCDD0"/>
<path d="M254.042 128.476L251.647 129.875L254.62 131.521L257.014 130.122L254.042 128.476Z" fill="#CDCDD0"/>
<path d="M260.73 138.517L263.041 137.2L260.399 135.719L258.17 137.036L260.73 138.517Z" fill="#CDCDD0"/>
<path d="M283.681 148.064L286.075 146.665L283.103 144.937L280.708 146.336L283.681 148.064Z" fill="#CDCDD0"/>
<path d="M289.543 147.653L291.855 146.336L289.048 144.772L286.736 146.089L289.543 147.653Z" fill="#CDCDD0"/>
<path d="M274.434 146.336L276.663 144.937L274.186 143.538L271.875 144.855L274.434 146.336Z" fill="#CDCDD0"/>
<path d="M268.903 136.871L266.508 138.27L269.068 139.752L271.462 138.353L268.903 136.871Z" fill="#CDCDD0"/>
<path d="M265.187 134.813L262.793 136.213L265.683 137.859L268.077 136.377L265.187 134.813Z" fill="#CDCDD0"/>
<path d="M261.637 132.756L259.243 134.155L261.968 135.719L264.362 134.32L261.637 132.756Z" fill="#CDCDD0"/>
<path d="M271.049 144.36L273.278 143.044L270.719 141.562L268.407 142.879L271.049 144.36Z" fill="#CDCDD0"/>
<path d="M257.923 130.616L255.446 132.015L258.418 133.743L260.812 132.262L257.923 130.616Z" fill="#CDCDD0"/>
<path d="M288.717 141.069L286.571 142.385L289.213 143.949L291.442 142.632L288.717 141.069Z" fill="#CDCDD0"/>
<path d="M257.261 136.624L259.573 135.225L257.014 133.825L254.785 135.142L257.261 136.624Z" fill="#CDCDD0"/>
<path d="M285.58 139.258L283.351 140.575L285.663 141.891L287.892 140.575L285.58 139.258Z" fill="#CDCDD0"/>
<path d="M292.267 143.126L290.038 144.361L293.175 146.171L295.322 144.854L292.267 143.126Z" fill="#CDCDD0"/>
<path d="M285.497 142.715L283.186 144.031L285.91 145.595L288.222 144.278L285.497 142.715Z" fill="#CDCDD0"/>
<path d="M299.863 146.5L301.927 145.266L297.881 142.961L295.817 144.196L299.863 146.5Z" fill="#CDCDD0"/>
<path d="M282.112 137.365L279.966 138.682L282.525 140.081L284.672 138.764L282.112 137.365Z" fill="#CDCDD0"/>
<path d="M267.912 129.299L265.766 130.616L268.49 132.18L270.719 130.863L267.912 129.299Z" fill="#CDCDD0"/>
<path d="M294.91 143.702L296.974 142.467L294.414 140.986L292.35 142.22L294.91 143.702Z" fill="#CDCDD0"/>
<path d="M264.031 127.077L261.885 128.394L264.857 130.122L267.086 128.805L264.031 127.077Z" fill="#CDCDD0"/>
<path d="M260.647 125.184L258.417 126.501L260.977 127.9L263.206 126.583L260.647 125.184Z" fill="#CDCDD0"/>
<path d="M278.727 135.39L276.498 136.707L279.057 138.188L281.287 136.871L278.727 135.39Z" fill="#CDCDD0"/>
<path d="M275.178 133.414L272.949 134.731L275.673 136.213L277.82 134.896L275.178 133.414Z" fill="#CDCDD0"/>
<path d="M254.95 125.348L250.574 122.879L248.263 124.279L252.638 126.748L254.95 125.348Z" fill="#CDCDD0"/>
<path d="M271.544 131.357L269.398 132.674L272.122 134.238L274.351 132.921L271.544 131.357Z" fill="#CDCDD0"/>
<path d="M263.289 125.76L265.353 124.526L263.042 123.209L260.978 124.443L263.289 125.76Z" fill="#CDCDD0"/>
<path d="M291.524 141.727L293.588 140.575L290.616 138.846L288.552 140.081L291.524 141.727Z" fill="#CDCDD0"/>
<path d="M266.591 127.571L268.655 126.419L266.178 125.02L264.114 126.254L266.591 127.571Z" fill="#CDCDD0"/>
<path d="M270.141 129.628L272.205 128.394L269.48 126.912L267.417 128.064L270.141 129.628Z" fill="#CDCDD0"/>
<path d="M258.748 120.822L256.353 119.423L254.372 120.657L256.684 122.056L258.748 120.822Z" fill="#CDCDD0"/>
<path d="M256.271 122.715L253.546 121.151L251.4 122.468L254.124 124.032L256.271 122.715Z" fill="#CDCDD0"/>
<path d="M260.151 123.949L262.215 122.715L259.656 121.316L257.592 122.468L260.151 123.949Z" fill="#CDCDD0"/>
<path d="M287.644 139.587L289.708 138.352L287.396 137.035L285.333 138.27L287.644 139.587Z" fill="#CDCDD0"/>
<path d="M273.856 131.768L275.92 130.534L273.031 128.887L270.967 130.122L273.856 131.768Z" fill="#CDCDD0"/>
<path d="M284.507 137.776L286.571 136.542L283.929 135.06L281.865 136.295L284.507 137.776Z" fill="#CDCDD0"/>
<path d="M281.039 135.801L283.103 134.649L280.461 133.085L278.397 134.32L281.039 135.801Z" fill="#CDCDD0"/>
<path d="M277.489 133.826L279.553 132.591L276.746 131.027L274.682 132.18L277.489 133.826Z" fill="#CDCDD0"/>
<path d="M257.179 123.209L254.95 124.443L257.592 126.007L259.821 124.69L257.179 123.209Z" fill="#CDCDD0"/>
<path d="M268.904 144.114L266.427 145.513L269.234 147.159L271.711 145.677L268.904 144.114Z" fill="#CDCDD0"/>
<path d="M265.435 142.139L263.041 143.62L265.6 145.019L268.077 143.62L265.435 142.139Z" fill="#CDCDD0"/>
<path d="M248.675 129.052L244.299 126.583L242.07 127.982L246.446 130.451L248.675 129.052Z" fill="#CDCDD0"/>
<path d="M241.328 128.394L238.851 129.875L241.493 131.356L243.97 129.957L241.328 128.394Z" fill="#CDCDD0"/>
<path d="M244.878 130.451L242.401 131.85L244.878 133.332L247.355 131.85L244.878 130.451Z" fill="#CDCDD0"/>
<path d="M255.033 136.212L252.556 137.612L255.033 139.093L257.51 137.612L255.033 136.212Z" fill="#CDCDD0"/>
<path d="M251.565 134.237L249.088 135.719L251.648 137.2L254.125 135.719L251.565 134.237Z" fill="#CDCDD0"/>
<path d="M248.18 132.344L245.786 133.826L248.263 135.225L250.657 133.744L248.18 132.344Z" fill="#CDCDD0"/>
<path d="M296.23 145.348L294.001 146.665L296.891 148.311L299.12 146.994L296.23 145.348Z" fill="#CDCDD0"/>
<path d="M258.336 138.105L255.859 139.505L258.748 141.151L261.143 139.669L258.336 138.105Z" fill="#CDCDD0"/>
<path d="M262.05 140.163L259.573 141.644L262.133 143.126L264.609 141.644L262.05 140.163Z" fill="#CDCDD0"/>
<path d="M290.368 148.146L293.836 150.122L296.147 148.722L292.68 146.747L290.368 148.146Z" fill="#CDCDD0"/>
<path d="M282.195 150.698L287.644 153.825L289.873 152.508L284.424 149.381L282.195 150.698Z" fill="#CDCDD0"/>
<path d="M279.388 150.04L276.994 151.521L279.388 152.838L281.782 151.439L279.388 150.04Z" fill="#CDCDD0"/>
<path d="M280.213 153.331L284.424 155.718L286.818 154.237L282.69 151.932L280.213 153.331Z" fill="#CDCDD0"/>
<path d="M253.877 134.649L256.189 133.332L253.299 131.686L250.988 133.003L253.877 134.649Z" fill="#CDCDD0"/>
<path d="M272.535 146.171L270.141 147.653L272.701 149.052L275.095 147.653L272.535 146.171Z" fill="#CDCDD0"/>
<path d="M276.003 148.064L273.526 149.546L276.086 151.027L278.563 149.546L276.003 148.064Z" fill="#CDCDD0"/>
<path d="M250.161 132.509L252.39 131.192L249.501 129.546L247.271 130.863L250.161 132.509Z" fill="#CDCDD0"/>
<path d="M284.589 148.558L290.699 152.015L293.093 150.616L286.984 147.159L284.589 148.558Z" fill="#CDCDD0"/>
<path d="M286.158 102.331C288.512 103.515 290.035 106.021 290.45 108.807C290.866 108.876 291.212 109.015 291.627 109.224C294.396 110.687 295.781 114.516 294.673 117.928C294.535 118.346 294.396 118.694 294.189 119.042C294.189 119.112 294.12 119.112 294.12 119.182C293.773 119.739 293.427 120.157 293.15 120.435L293.012 120.574C291.489 121.967 289.481 122.385 287.542 121.41L273.004 113.89C271.481 112.845 270.719 110.547 271.411 108.598C272.104 106.509 274.111 105.534 275.911 106.439C276.258 106.648 276.604 106.857 276.881 107.205C276.881 107.066 276.95 106.996 276.95 106.857C278.473 102.4 282.558 100.451 286.158 102.331Z" fill="#50E6FF"/>
</g>
<defs>
<linearGradient id="paint0_linear" x1="330.684" y1="72.201" x2="115.026" y2="317.294" gradientUnits="userSpaceOnUse">
<stop/>
<stop offset="0.8221" stop-opacity="0"/>
</linearGradient>
<linearGradient id="paint1_linear" x1="367.372" y1="265.331" x2="407.241" y2="265.331" gradientUnits="userSpaceOnUse">
<stop/>
<stop offset="0.8221" stop-opacity="0"/>
</linearGradient>
<linearGradient id="paint2_linear" x1="366.012" y1="253.694" x2="396.908" y2="253.694" gradientUnits="userSpaceOnUse">
<stop stop-color="#4DC2EB"/>
<stop offset="0.585" stop-color="#0078D4"/>
</linearGradient>
<linearGradient id="paint3_linear" x1="462.784" y1="205.406" x2="502.654" y2="205.406" gradientUnits="userSpaceOnUse">
<stop/>
<stop offset="0.8221" stop-opacity="0"/>
</linearGradient>
<linearGradient id="paint4_linear" x1="462.022" y1="194.564" x2="492.918" y2="194.564" gradientUnits="userSpaceOnUse">
<stop stop-color="#4DC2EB"/>
<stop offset="0.585" stop-color="#0078D4"/>
</linearGradient>
<linearGradient id="paint5_linear" x1="415.508" y1="235.454" x2="455.377" y2="235.454" gradientUnits="userSpaceOnUse">
<stop/>
<stop offset="0.8221" stop-opacity="0"/>
</linearGradient>
<linearGradient id="paint6_linear" x1="414.747" y1="224.612" x2="445.643" y2="224.612" gradientUnits="userSpaceOnUse">
<stop stop-color="#4DC2EB"/>
<stop offset="0.585" stop-color="#0078D4"/>
</linearGradient>
<linearGradient id="paint7_linear" x1="327.548" y1="116.328" x2="303.399" y2="143.506" gradientUnits="userSpaceOnUse">
<stop/>
<stop offset="0.8221" stop-opacity="0"/>
</linearGradient>
<linearGradient id="paint8_linear" x1="303.475" y1="212.736" x2="314.12" y2="224.716" gradientUnits="userSpaceOnUse">
<stop/>
<stop offset="0.8221" stop-opacity="0"/>
</linearGradient>
<linearGradient id="paint9_linear" x1="326.748" y1="198.322" x2="337.393" y2="210.302" gradientUnits="userSpaceOnUse">
<stop/>
<stop offset="0.8221" stop-opacity="0"/>
</linearGradient>
<linearGradient id="paint10_linear" x1="276.557" y1="143.906" x2="303.226" y2="173.92" gradientUnits="userSpaceOnUse">
<stop/>
<stop offset="0.8221" stop-opacity="0"/>
</linearGradient>
<linearGradient id="paint11_linear" x1="332.236" y1="123.735" x2="352.999" y2="147.827" gradientUnits="userSpaceOnUse">
<stop/>
<stop offset="0.8221" stop-opacity="0"/>
</linearGradient>
<linearGradient id="paint12_linear" x1="365.291" y1="190.07" x2="387.098" y2="215.373" gradientUnits="userSpaceOnUse">
<stop/>
<stop offset="0.8221" stop-opacity="0"/>
</linearGradient>
<linearGradient id="paint13_linear" x1="385.442" y1="176.635" x2="407.25" y2="201.939" gradientUnits="userSpaceOnUse">
<stop/>
<stop offset="0.8221" stop-opacity="0"/>
</linearGradient>
<linearGradient id="paint14_linear" x1="405.204" y1="165.575" x2="427.011" y2="190.879" gradientUnits="userSpaceOnUse">
<stop/>
<stop offset="0.8221" stop-opacity="0"/>
</linearGradient>
<linearGradient id="paint15_linear" x1="305.954" y1="184.868" x2="316.599" y2="196.848" gradientUnits="userSpaceOnUse">
<stop/>
<stop offset="0.8221" stop-opacity="0"/>
</linearGradient>
<linearGradient id="paint16_linear" x1="64.8372" y1="198.131" x2="76.2727" y2="210.801" gradientUnits="userSpaceOnUse">
<stop/>
<stop offset="0.8221" stop-opacity="0"/>
</linearGradient>
<linearGradient id="paint17_linear" x1="90.5417" y1="182.525" x2="101.977" y2="195.196" gradientUnits="userSpaceOnUse">
<stop/>
<stop offset="0.8221" stop-opacity="0"/>
</linearGradient>
<linearGradient id="paint18_linear" x1="115.153" y1="166.467" x2="126.588" y2="179.137" gradientUnits="userSpaceOnUse">
<stop/>
<stop offset="0.8221" stop-opacity="0"/>
</linearGradient>
<linearGradient id="paint19_linear" x1="167.355" y1="135.673" x2="178.791" y2="148.344" gradientUnits="userSpaceOnUse">
<stop/>
<stop offset="0.8221" stop-opacity="0"/>
</linearGradient>
<linearGradient id="paint20_linear" x1="193.733" y1="120.702" x2="205.467" y2="133.703" gradientUnits="userSpaceOnUse">
<stop/>
<stop offset="0.8221" stop-opacity="0"/>
</linearGradient>
<linearGradient id="paint21_linear" x1="219.283" y1="104.789" x2="230.96" y2="117.728" gradientUnits="userSpaceOnUse">
<stop/>
<stop offset="0.8221" stop-opacity="0"/>
</linearGradient>
<linearGradient id="paint22_linear" x1="246.419" y1="90.0545" x2="257.855" y2="102.725" gradientUnits="userSpaceOnUse">
<stop/>
<stop offset="0.8221" stop-opacity="0"/>
</linearGradient>
<linearGradient id="paint23_linear" x1="273.107" y1="75.1499" x2="284.543" y2="87.8205" gradientUnits="userSpaceOnUse">
<stop/>
<stop offset="0.8221" stop-opacity="0"/>
</linearGradient>
<linearGradient id="paint24_linear" x1="218.308" y1="191.315" x2="122.042" y2="299.656" gradientUnits="userSpaceOnUse">
<stop/>
<stop offset="0.8221" stop-opacity="0"/>
</linearGradient>
<clipPath id="clip0">
<rect width="516" height="313" fill="white" transform="translate(0.5)"/>
</clipPath>
</defs>
</svg>
